<svg class="svgicons" viewBox="0 0 74 74" xmlns="http://www.w3.org/2000/svg"><path d="m38.56 64.79h-3.66a1 1 0 1 1 0-2h3.66a1 1 0 0 1 0 2z"/><path d="m51.1 64.79h-3.74a1 1 0 1 1 0-2h3.74a1 1 0 0 1 0 2z"/><path d="m68.94 64.79h-9.03a1 1 0 1 1 0-2h9.03a1.062 1.062 0 0 0 1.06-1.06v-29.88a1.062 1.062 0 0 0 -1.06-1.06h-63.88a1.062 1.062 0 0 0 -1.06 1.06v29.88a1.062 1.062 0 0 0 1.06 1.06h21.03a1 1 0 0 1 0 2h-21.03a3.063 3.063 0 0 1 -3.06-3.06v-29.88a3.063 3.063 0 0 1 3.06-3.06h63.88a3.063 3.063 0 0 1 3.06 3.06v29.88a3.063 3.063 0 0 1 -3.06 3.06z"/><path class="key17 key-icon" d="m64.3 37.271h-2.16a1 1 0 0 1 0-2h2.16a1 1 0 0 1 0 2z"/><path d="m55.562 37.271h-2.162a1 1 0 1 1 0-2h2.161a1 1 0 0 1 0 2z"/><path d="m46.821 37.271h-2.161a1 1 0 0 1 0-2h2.161a1 1 0 0 1 0 2z"/><path d="m38.08 37.271h-2.16a1 1 0 0 1 0-2h2.16a1 1 0 0 1 0 2z"/><path d="m29.34 37.271h-2.161a1 1 0 0 1 0-2h2.161a1 1 0 1 1 0 2z"/><path class="key12 key-icon" d="m20.6 37.271h-2.162a1 1 0 0 1 0-2h2.162a1 1 0 1 1 0 2z"/><path d="m11.857 37.271h-2.157a1 1 0 0 1 0-2h2.16a1 1 0 0 1 0 2z"/><path d="m64.3 44.283h-2.16a1 1 0 0 1 0-2h2.16a1 1 0 0 1 0 2z"/><path d="m55.562 44.283h-2.162a1 1 0 1 1 0-2h2.161a1 1 0 0 1 0 2z"/><path class="key25 key-icon" d="m46.821 44.283h-2.161a1 1 0 0 1 0-2h2.161a1 1 0 0 1 0 2z"/><path class="key24 key-icon" d="m38.08 44.283h-2.16a1 1 0 0 1 0-2h2.16a1 1 0 0 1 0 2z"/><path class="key23 key-icon" d="m29.34 44.283h-2.161a1 1 0 0 1 0-2h2.161a1 1 0 1 1 0 2z"/><path d="m20.6 44.283h-2.162a1 1 0 0 1 0-2h2.162a1 1 0 1 1 0 2z"/><path d="m11.857 44.283h-2.157a1 1 0 0 1 0-2h2.16a1 1 0 0 1 0 2z"/><path d="m64.3 51.3h-2.16a1 1 0 0 1 0-2h2.16a1 1 0 0 1 0 2z"/><path class="key36 key-icon" d="m55.562 51.3h-2.162a1 1 0 1 1 0-2h2.161a1 1 0 0 1 0 2z"/><path d="m46.821 51.3h-2.161a1 1 0 0 1 0-2h2.161a1 1 0 0 1 0 2z"/><path d="m38.08 51.3h-2.16a1 1 0 0 1 0-2h2.16a1 1 0 0 1 0 2z"/><path d="m29.34 51.3h-2.161a1 1 0 0 1 0-2h2.161a1 1 0 1 1 0 2z"/><path class="key32 key-icon" d="m20.6 51.3h-2.162a1 1 0 0 1 0-2h2.162a1 1 0 1 1 0 2z"/><path d="m11.857 51.3h-2.157a1 1 0 0 1 0-2h2.16a1 1 0 0 1 0 2z"/><path d="m64.3 58.307h-2.16a1 1 0 0 1 0-2h2.16a1 1 0 0 1 0 2z"/><path class="key41 key-icon" d="m11.857 58.307h-2.157a1 1 0 0 1 0-2h2.16a1 1 0 0 1 0 2z"/><path d="m55.562 58.307h-37.124a1 1 0 0 1 0-2h37.124a1 1 0 0 1 0 2z"/><path d="m24.081 30.789h-11.664a1 1 0 0 1 -1-1v-3.406a2.489 2.489 0 0 1 2.483-2.483h8.7a2.489 2.489 0 0 1 2.486 2.487v3.406a1 1 0 0 1 -1.005.996zm-10.664-2h9.664v-2.406a.487.487 0 0 0 -.481-.483h-8.7a.487.487 0 0 0 -.486.487z"/><path d="m18.249 25.9a1 1 0 0 1 -1-1 8.178 8.178 0 0 1 8.169-8.168h3.871a6.177 6.177 0 0 0 6.169-6.169v-.348a1 1 0 1 1 2 0v.348a8.179 8.179 0 0 1 -8.169 8.169h-3.871a6.176 6.176 0 0 0 -6.169 6.168 1 1 0 0 1 -1 1z"/></svg>