<svg id="Icons" height="512" viewBox="0 0 74 74" width="512" xmlns="http://www.w3.org/2000/svg"><path d="m56.06 34.39a1 1 0 0 1 -.707-.293l-2.64-2.64a1 1 0 0 1 1.414-1.414l2.64 2.64a1 1 0 0 1 -.707 1.707z"/><path d="m54.975 71.989a16.985 16.985 0 0 1 -12.041-4.971l-34.334-34.331a1.949 1.949 0 0 1 -.01-2.7l2.271-2.261 19.111-19.126a1.948 1.948 0 0 1 2.7-.011l6.415 6.411a1 1 0 0 1 -1.414 1.414l-6.343-6.339-2.191 2.2-19.064 19.055 34.272 34.27a15.03 15.03 0 0 0 21.253-21.253l-4.02-4.02a1 1 0 0 1 1.42-1.414l4.02 4.02a17.014 17.014 0 0 1 -12.045 29.056z"/><path d="m47.19 25.52a1 1 0 0 1 -.707-.293l-2.58-2.58a1 1 0 1 1 1.414-1.414l2.58 2.58a1 1 0 0 1 -.707 1.707z"/><path d="m11.569 29.426a.993.993 0 0 1 -.707-.293l-8.309-8.308a1.892 1.892 0 0 1 0-2.671l15.6-15.6a1.892 1.892 0 0 1 2.671 0l8.308 8.309a1 1 0 0 1 0 1.414l-16.856 16.856a.993.993 0 0 1 -.707.293zm-7.523-9.936 7.523 7.522 15.443-15.443-7.522-7.523z"/><path d="m54.526 62.35a7.824 7.824 0 1 1 5.535-2.289 7.8 7.8 0 0 1 -5.535 2.289zm0-13.649a5.825 5.825 0 1 0 4.121 1.7 5.811 5.811 0 0 0 -4.121-1.701z"/><path d="m18.542 13.517a1 1 0 0 1 -.707-1.707l.711-.711a1 1 0 0 1 1.414 1.414l-.711.711a1 1 0 0 1 -.707.293z"/><path d="m11.806 20.253a1 1 0 0 1 -.707-1.707l.711-.711a1 1 0 0 1 1.414 1.414l-.711.711a1 1 0 0 1 -.707.293z"/></svg>