<svg id="Icons" height="512" viewBox="0 0 74 74" width="512" xmlns="http://www.w3.org/2000/svg"><path d="m44.751 10.53a1.043 1.043 0 0 1 -.175-.015c-1.014-.18-1.949-.307-2.856-.389a1 1 0 0 1 -.907-1.086 1.016 1.016 0 0 1 1.087-.906c.965.087 1.955.221 3.025.411a1 1 0 0 1 -.173 1.985z"/><path d="m8.37 66.12a1 1 0 0 1 -1-1l-.02-18.372a20.509 20.509 0 0 1 -5.35-13.498c0-13.209 14.217-24.318 32.366-25.289a1 1 0 1 1 .108 2c-17.088.912-30.474 11.139-30.474 23.289a18.642 18.642 0 0 0 5.1 12.45 1 1 0 0 1 .255.665l.013 16.835 12.509-8.74a1 1 0 0 1 .894-.127 44.176 44.176 0 0 0 14.229 2.287c18.2 0 33-10.484 33-23.37 0-6.354-3.55-12.294-10-16.726a1 1 0 1 1 1.133-1.648c7.009 4.816 10.867 11.341 10.867 18.374 0 13.989-15.7 25.37-35 25.37a46.278 46.278 0 0 1 -14.389-2.233l-13.668 9.553a1 1 0 0 1 -.573.18z"/><path d="m54.359 13.3a1.018 1.018 0 0 1 -.4-.082c-.863-.374-1.743-.711-2.692-1.03a1 1 0 0 1 .638-1.9c1 .338 1.934.694 2.849 1.09a1 1 0 0 1 -.4 1.918z"/><path d="m44.3 39.952a1 1 0 0 1 -.707-1.707l4.995-4.995-4.995-4.994a1 1 0 0 1 1.414-1.414l5.7 5.7a1 1 0 0 1 0 1.415l-5.7 5.7a1 1 0 0 1 -.707.295z"/><path d="m29.7 39.952a1 1 0 0 1 -.7-.293l-5.7-5.7a1 1 0 0 1 0-1.415l5.7-5.7a1 1 0 0 1 1.414 1.414l-5 4.992 4.995 4.995a1 1 0 0 1 -.707 1.707z"/><path d="m33.828 45.832a1.02 1.02 0 0 1 -.266-.036 1 1 0 0 1 -.7-1.229l6.346-23.161a1 1 0 0 1 1.93.528l-6.346 23.166a1 1 0 0 1 -.964.732z"/></svg>