<svg id="Icons" height="512" viewBox="0 0 74 74" width="512" xmlns="http://www.w3.org/2000/svg"><path d="m71.01 43.31a1 1 0 0 1 -1-1v-3.73a1 1 0 0 1 2 0v3.73a1 1 0 0 1 -1 1z"/><path d="m69.01 72.67h-64a3 3 0 0 1 -3-3v-64a3 3 0 0 1 3-3h64a3 3 0 0 1 3 3v24.1a1 1 0 0 1 -2 0v-24.1a1 1 0 0 0 -1-1h-64a1 1 0 0 0 -1 1v64a1 1 0 0 0 1 1h64a.99.99 0 0 0 1-1v-6.09a1 1 0 0 1 2 0v6.09a3 3 0 0 1 -3 3z"/><path d="m71.01 55.77a1 1 0 0 1 -1-1v-3.65a1 1 0 1 1 2 0v3.65a1 1 0 0 1 -1 1z"/><path d="m65.011 66.674h-56a1 1 0 0 1 -1-1v-45.674a1 1 0 0 1 1-1h56a1 1 0 0 1 1 1v45.674a1 1 0 0 1 -1 1zm-55-2h54v-43.674h-54z"/><path d="m61.3 14.7a3.522 3.522 0 1 1 3.522-3.522 3.526 3.526 0 0 1 -3.522 3.522zm0-5.044a1.522 1.522 0 1 0 1.522 1.522 1.524 1.524 0 0 0 -1.522-1.526z"/><path d="m50.787 14.7a3.522 3.522 0 1 1 3.522-3.522 3.526 3.526 0 0 1 -3.522 3.522zm0-5.044a1.522 1.522 0 1 0 1.522 1.522 1.523 1.523 0 0 0 -1.522-1.526z"/><path d="m40.272 14.7a3.522 3.522 0 1 1 3.522-3.522 3.526 3.526 0 0 1 -3.522 3.522zm0-5.044a1.522 1.522 0 1 0 1.522 1.522 1.524 1.524 0 0 0 -1.522-1.526z"/><path d="m37.011 56.325a14.326 14.326 0 1 1 14.325-14.325 14.341 14.341 0 0 1 -14.325 14.325zm0-26.651a12.326 12.326 0 1 0 12.325 12.326 12.34 12.34 0 0 0 -12.325-12.326z"/><path d="m34.521 48.434a2.436 2.436 0 0 1 -2.436-2.434v-8a2.436 2.436 0 0 1 3.729-2.065l6.388 4a2.436 2.436 0 0 1 0 4.13l-6.388 4a2.433 2.433 0 0 1 -1.293.369zm0-10.871a.452.452 0 0 0 -.214.057.422.422 0 0 0 -.225.382v8a.436.436 0 0 0 .668.37l6.388-4a.436.436 0 0 0 0-.74l-6.388-4a.428.428 0 0 0 -.226-.069z"/></svg>