<?xml version="1.0" encoding="UTF-8"?>
<svg xmlns="http://www.w3.org/2000/svg" id="Icons" viewBox="0 0 74 74" width="512" height="512"><path d="M39.1,4.5H35.36a1,1,0,0,1,0-2H39.1a1,1,0,0,1,0,2Z"/><path d="M68,57.83H6a4,4,0,0,1-4-4V6.5a4,4,0,0,1,4-4h8.09a1,1,0,0,1,0,2H6a2,2,0,0,0-2,2V53.83a2,2,0,0,0,2,2H68a2,2,0,0,0,2-2V6.5a2,2,0,0,0-2-2H47.91a1,1,0,0,1,0-2H68a4,4,0,0,1,4,4V53.83A4,4,0,0,1,68,57.83Z"/><path d="M26.56,4.5H22.9a1,1,0,0,1,0-2h3.66a1,1,0,0,1,0,2Z"/><path d="M71,45.5H3a1,1,0,0,1,0-2H71a1,1,0,0,1,0,2Z"/><path d="M57,71.5H17a1,1,0,0,1-.684-1.73l1.6-1.5c3.58-3.353,5.472-7.31,5.472-11.442a1,1,0,0,1,1-1H49.608a1,1,0,0,1,1,1c0,4.132,1.892,8.089,5.472,11.442l1.6,1.5A1,1,0,0,1,57,71.5Zm-37.473-2H54.473a18.048,18.048,0,0,1-5.831-11.674H25.358A18.048,18.048,0,0,1,19.527,69.5Z"/><path d="M15.031,51.469H12.719a1,1,0,0,1,0-2h2.312a1,1,0,0,1,0,2Z"/><path d="M39.01,39.25H34.99a1.465,1.465,0,0,1-1.452-1.28l-.233-1.846a12.891,12.891,0,0,1-2.266-.938l-1.463,1.138a1.464,1.464,0,0,1-1.934-.12L24.8,33.358a1.467,1.467,0,0,1-.121-1.934l1.139-1.463a12.86,12.86,0,0,1-.938-2.266l-1.846-.233a1.465,1.465,0,0,1-1.28-1.452V21.99a1.465,1.465,0,0,1,1.28-1.452l1.846-.233a12.891,12.891,0,0,1,.938-2.266l-1.138-1.463a1.465,1.465,0,0,1,.12-1.934L27.642,11.8a1.466,1.466,0,0,1,1.934-.121l1.463,1.139a12.891,12.891,0,0,1,2.266-.938l.233-1.846A1.465,1.465,0,0,1,34.99,8.75h4.02a1.465,1.465,0,0,1,1.452,1.28l.233,1.846a12.891,12.891,0,0,1,2.266.938l1.463-1.138a1.465,1.465,0,0,1,1.934.12L49.2,14.642a1.467,1.467,0,0,1,.121,1.934l-1.139,1.463a12.891,12.891,0,0,1,.938,2.266l1.846.233a1.465,1.465,0,0,1,1.28,1.452v4.02a1.465,1.465,0,0,1-1.28,1.452l-1.846.233a12.86,12.86,0,0,1-.938,2.266l1.138,1.463a1.465,1.465,0,0,1-.12,1.934L46.358,36.2a1.467,1.467,0,0,1-1.934.121l-1.463-1.139a12.891,12.891,0,0,1-2.266.938l-.233,1.846A1.465,1.465,0,0,1,39.01,39.25Zm-3.547-2h3.074l.258-2.039a1,1,0,0,1,.753-.845,10.894,10.894,0,0,0,2.99-1.236,1,1,0,0,1,1.127.069l1.614,1.256,2.176-2.176L46.2,30.665a1,1,0,0,1-.069-1.128,10.862,10.862,0,0,0,1.236-2.989,1,1,0,0,1,.845-.753l2.039-.258V22.463l-2.039-.258a1,1,0,0,1-.845-.753,10.894,10.894,0,0,0-1.236-2.99,1,1,0,0,1,.069-1.127l1.256-1.614-2.176-2.176L43.665,14.8a1,1,0,0,1-1.127.069,10.894,10.894,0,0,0-2.99-1.236,1,1,0,0,1-.753-.845l-.258-2.039H35.463l-.258,2.039a1,1,0,0,1-.753.845,10.894,10.894,0,0,0-2.99,1.236,1,1,0,0,1-1.127-.069l-1.614-1.256-2.176,2.176L27.8,17.335a1,1,0,0,1,.069,1.127,10.894,10.894,0,0,0-1.236,2.99,1,1,0,0,1-.845.753l-2.039.258v3.074l2.039.258a1,1,0,0,1,.845.753,10.862,10.862,0,0,0,1.236,2.989,1,1,0,0,1-.069,1.128l-1.256,1.614,2.176,2.176L30.335,33.2a1,1,0,0,1,1.127-.069,10.894,10.894,0,0,0,2.99,1.236,1,1,0,0,1,.753.845Zm12.283-4.6h0Z"/><path d="M37,32.471A8.473,8.473,0,1,1,45.312,24,8.4,8.4,0,0,1,37,32.471Zm0-14.942A6.473,6.473,0,1,0,43.312,24,6.4,6.4,0,0,0,37,17.529Z"/></svg>
