<svg id="Icons" height="512" viewBox="0 0 74 74" width="512" xmlns="http://www.w3.org/2000/svg"><path d="m71 43.57a1 1 0 0 1 -1-1v-3.74a1 1 0 0 1 2 0v3.74a1 1 0 0 1 -1 1z"/><path d="m69 72h-64a3 3 0 0 1 -3-3v-64a3 3 0 0 1 3-3h64a3 3 0 0 1 3 3v25.02a1 1 0 0 1 -2 0v-25.02a1 1 0 0 0 -1-1h-64a1 1 0 0 0 -1 1v64a1 1 0 0 0 1 1h64a1 1 0 0 0 1-1v-5.17a1 1 0 1 1 2 0v5.17a3 3 0 0 1 -3 3z"/><path d="m71 56.03a1 1 0 0 1 -1-1v-3.66a1 1 0 0 1 2 0v3.66a1 1 0 0 1 -1 1z"/><path d="m71 19h-68a1 1 0 0 1 0-2h68a1 1 0 0 1 0 2z"/><path d="m63.417 11.5h-2.54a1 1 0 0 1 0-2h2.54a1 1 0 0 1 0 2z"/><path d="m54.1 11.5h-2.54a1 1 0 0 1 0-2h2.54a1 1 0 1 1 0 2z"/><path d="m44.79 11.5h-2.54a1 1 0 0 1 0-2h2.54a1 1 0 0 1 0 2z"/><path d="m23.535 63a1 1 0 0 1 -1-1v-35a1 1 0 0 1 2 0v35a1 1 0 0 1 -1 1z"/><path d="m36.1 42.363h-12.565a1 1 0 0 1 -1-1v-14.363a1 1 0 0 1 1-1h10.431a3.141 3.141 0 0 1 3.134 3.137v12.226a1 1 0 0 1 -1 1zm-11.568-2h10.568v-11.226a1.138 1.138 0 0 0 -1.134-1.137h-9.431z"/><path d="m50.465 47.749h-12.226a3.139 3.139 0 0 1 -3.139-3.137v-12.226a1 1 0 0 1 1-1h14.365a1 1 0 0 1 .848 1.531l-4.157 6.642 4.157 6.661a1 1 0 0 1 -.848 1.529zm-13.365-14.363v11.226a1.137 1.137 0 0 0 1.136 1.137h10.426l-3.534-5.662a1 1 0 0 1 0-1.06l3.531-5.641z"/></svg>