<?xml version="1.0" encoding="UTF-8"?>
<svg xmlns="http://www.w3.org/2000/svg" id="Icons" viewBox="0 0 74 74" width="512" height="512"><path d="M41.1,72H37.36a1,1,0,0,1,0-2H41.1a1,1,0,0,1,0,2Z"/><path d="M69,72H49.91a1,1,0,0,1,0-2H69a1,1,0,0,0,1-1V5a1,1,0,0,0-1-1H5A1,1,0,0,0,4,5V69a1,1,0,0,0,1,1H16.09a1,1,0,1,1,0,2H5a3,3,0,0,1-3-3V5A3,3,0,0,1,5,2H69a3,3,0,0,1,3,3V69A3,3,0,0,1,69,72Z"/><path d="M28.56,72H24.9a1,1,0,0,1,0-2h3.66a1,1,0,1,1,0,2Z"/><path d="M71,19H3a1,1,0,0,1,0-2H71a1,1,0,0,1,0,2Z"/><path d="M13.123,11.5h-2.54a1,1,0,1,1,0-2h2.54a1,1,0,0,1,0,2Z"/><path d="M22.437,11.5H19.9a1,1,0,0,1,0-2h2.541a1,1,0,0,1,0,2Z"/><path d="M31.75,11.5H29.21a1,1,0,0,1,0-2h2.54a1,1,0,0,1,0,2Z"/><path d="M39.68,64.5H34.32a1.62,1.62,0,0,1-1.6-1.415l-.339-2.677a16.888,16.888,0,0,1-3.357-1.389L26.9,60.669a1.619,1.619,0,0,1-2.136-.131l-3.8-3.8a1.618,1.618,0,0,1-.133-2.137l1.65-2.122a16.917,16.917,0,0,1-1.388-3.358l-2.678-.339A1.621,1.621,0,0,1,17,47.18V41.82a1.621,1.621,0,0,1,1.416-1.6l2.677-.339a16.917,16.917,0,0,1,1.388-3.358L20.831,34.4a1.62,1.62,0,0,1,.134-2.139l3.794-3.794a1.619,1.619,0,0,1,2.138-.132l2.122,1.649a16.888,16.888,0,0,1,3.357-1.389l.339-2.677a1.62,1.62,0,0,1,1.6-1.415h5.36a1.62,1.62,0,0,1,1.6,1.415l.339,2.677a16.888,16.888,0,0,1,3.357,1.389l2.123-1.65a1.617,1.617,0,0,1,2.137.133l3.8,3.8a1.618,1.618,0,0,1,.133,2.137l-1.65,2.122a16.917,16.917,0,0,1,1.388,3.358l2.678.339A1.621,1.621,0,0,1,57,41.82v5.36a1.621,1.621,0,0,1-1.416,1.6l-2.677.339a16.917,16.917,0,0,1-1.388,3.358l1.65,2.121a1.62,1.62,0,0,1-.134,2.139l-3.794,3.8a1.622,1.622,0,0,1-2.137.133l-2.123-1.651a16.888,16.888,0,0,1-3.357,1.389l-.339,2.677A1.62,1.62,0,0,1,39.68,64.5Zm-5.023-2h4.686l.381-3.009a1,1,0,0,1,.753-.846,14.825,14.825,0,0,0,4.077-1.686,1,1,0,0,1,1.128.07l2.383,1.855,3.319-3.319-1.855-2.383a1,1,0,0,1-.069-1.128,14.874,14.874,0,0,0,1.686-4.077,1,1,0,0,1,.844-.753L55,46.843V42.157l-3.01-.381a1,1,0,0,1-.844-.753,14.874,14.874,0,0,0-1.686-4.077,1,1,0,0,1,.069-1.128l1.855-2.383-3.319-3.318-2.383,1.854a1,1,0,0,1-1.128.07,14.825,14.825,0,0,0-4.077-1.686,1,1,0,0,1-.753-.846L39.343,26.5H34.657l-.381,3.009a1,1,0,0,1-.753.846,14.825,14.825,0,0,0-4.077,1.686,1,1,0,0,1-1.128-.07l-2.383-1.854-3.319,3.318,1.855,2.383a1,1,0,0,1,.069,1.128,14.874,14.874,0,0,0-1.686,4.077,1,1,0,0,1-.844.753L19,42.157v4.686l3.01.381a1,1,0,0,1,.844.753,14.874,14.874,0,0,0,1.686,4.077,1,1,0,0,1-.069,1.128l-1.855,2.383,3.319,3.319,2.383-1.855a1,1,0,0,1,1.128-.07,14.825,14.825,0,0,0,4.077,1.686,1,1,0,0,1,.753.846Zm16.934-6.669h0Z"/><path d="M37,55.462A10.964,10.964,0,1,1,47.75,44.5,10.87,10.87,0,0,1,37,55.462Zm0-19.924A8.965,8.965,0,1,0,45.75,44.5,8.868,8.868,0,0,0,37,35.538Z"/></svg>
