<svg id="Icons" height="512" viewBox="0 0 74 74" width="512" xmlns="http://www.w3.org/2000/svg"><path d="m69 72h-64a3 3 0 0 1 -3-3v-64a3 3 0 0 1 3-3h64a3 3 0 0 1 3 3v64a3 3 0 0 1 -3 3zm-64-68a1 1 0 0 0 -1 1v64a1 1 0 0 0 1 1h64a1 1 0 0 0 1-1v-64a1 1 0 0 0 -1-1z"/><path d="m34.47 65h-2.91a1 1 0 0 1 0-2h2.91a1 1 0 0 1 0 2z"/><path d="m63.19 65h-11.75a1 1 0 0 1 0-2h11.56v-41.67h-52v41.67h13.56a1 1 0 1 1 0 2h-13.75a1.812 1.812 0 0 1 -1.81-1.81v-42.06a1.807 1.807 0 0 1 1.81-1.8h52.38a1.807 1.807 0 0 1 1.81 1.8v42.06a1.812 1.812 0 0 1 -1.81 1.81z"/><path d="m44.44 65h-2.97a1 1 0 0 1 0-2h2.97a1 1 0 0 1 0 2z"/><path d="m12.71 14.844a3.522 3.522 0 1 1 3.521-3.522 3.526 3.526 0 0 1 -3.521 3.522zm0-5.044a1.522 1.522 0 1 0 1.521 1.522 1.523 1.523 0 0 0 -1.521-1.522z"/><path d="m23.225 14.844a3.522 3.522 0 1 1 3.521-3.522 3.526 3.526 0 0 1 -3.521 3.522zm0-5.044a1.522 1.522 0 1 0 1.521 1.522 1.524 1.524 0 0 0 -1.521-1.522z"/><path d="m33.739 14.844a3.522 3.522 0 1 1 3.522-3.522 3.526 3.526 0 0 1 -3.522 3.522zm0-5.044a1.522 1.522 0 1 0 1.522 1.522 1.523 1.523 0 0 0 -1.522-1.522z"/></svg>