<svg id="Icons" height="512" viewBox="0 0 74 74" width="512" xmlns="http://www.w3.org/2000/svg"><path d="m71 32.44a1 1 0 0 1 -1-1v-2.97a1 1 0 0 1 2 0v2.97a1 1 0 0 1 -1 1z"/><path d="m68 58.87h-62a4 4 0 0 1 -4-4v-47.33a4 4 0 0 1 4-4h62a4 4 0 0 1 4 4v4.02a1 1 0 1 1 -2 0v-4.02a2 2 0 0 0 -2-2h-62a2 2 0 0 0 -2 2v47.33a2 2 0 0 0 2 2h62a2 2 0 0 0 2-2v-16.43a1 1 0 0 1 2 0v16.43a4 4 0 0 1 -4 4z"/><path d="m71 22.47a1 1 0 0 1 -1-1v-2.91a1 1 0 0 1 2 0v2.91a1 1 0 0 1 -1 1z"/><path d="m71 46.542h-68a1 1 0 0 1 0-2h68a1 1 0 0 1 0 2z"/><path d="m15.031 52.51h-2.312a1 1 0 0 1 0-2h2.312a1 1 0 0 1 0 2z"/><path d="m45.727 31.349a10.288 10.288 0 0 1 -7.275-17.564 10.288 10.288 0 1 1 7.275 17.564zm0-18.578a8.238 8.238 0 0 0 -5.861 2.429 8.288 8.288 0 1 0 5.861-2.428z"/><path d="m60.14 39.31a3.826 3.826 0 0 1 -2.714-1.122l-8.158-8.16a1 1 0 1 1 1.414-1.414l8.158 8.159a1.838 1.838 0 1 0 2.6-2.6l-8.158-8.159a1 1 0 0 1 1.418-1.414l8.159 8.159a3.836 3.836 0 0 1 -2.714 6.55z"/><path d="m32.021 15.605h-21a1 1 0 0 1 0-2h21a1 1 0 0 1 0 2z"/><path d="m30.021 23.605h-19a1 1 0 0 1 0-2h19a1 1 0 0 1 0 2z"/><path d="m35.021 31.605h-24a1 1 0 0 1 0-2h24a1 1 0 0 1 0 2z"/><path d="m47.625 70.458h-21.25a1 1 0 0 1 -1-1v-11.591a1 1 0 0 1 1-1h21.25a1 1 0 0 1 1 1v11.591a1 1 0 0 1 -1 1zm-20.25-2h19.25v-9.591h-19.25z"/><path d="m53.479 70.458h-32.958a1 1 0 0 1 0-2h32.958a1 1 0 0 1 0 2z"/></svg>