<svg id="Icons" height="512" viewBox="0 0 74 74" width="512" xmlns="http://www.w3.org/2000/svg"><path d="m71 55.25a1 1 0 0 1 -1-1v-2.97a1 1 0 0 1 2 0v2.97a1 1 0 0 1 -1 1z"/><path d="m69 72h-64a3 3 0 0 1 -3-3v-64a3 3 0 0 1 3-3h64a3 3 0 0 1 3 3v29.38a1 1 0 0 1 -2 0v-29.38a1 1 0 0 0 -1-1h-64a1 1 0 0 0 -1 1v64a1 1 0 0 0 1 1h64a1 1 0 0 0 1-1v-7.75a1 1 0 0 1 2 0v7.75a3 3 0 0 1 -3 3z"/><path d="m71 45.28a1 1 0 0 1 -1-1v-2.9a1 1 0 1 1 2 0v2.9a1 1 0 0 1 -1 1z"/><path d="m65 66h-56a1 1 0 0 1 -1-1v-45.674a1 1 0 0 1 1-1h56a1 1 0 0 1 1 1v45.674a1 1 0 0 1 -1 1zm-55-2h54v-43.674h-54z"/><path d="m12.71 14.022a3.522 3.522 0 1 1 3.521-3.522 3.526 3.526 0 0 1 -3.521 3.522zm0-5.044a1.522 1.522 0 1 0 1.521 1.522 1.523 1.523 0 0 0 -1.521-1.522z"/><path d="m23.225 14.022a3.522 3.522 0 1 1 3.521-3.522 3.526 3.526 0 0 1 -3.521 3.522zm0-5.044a1.522 1.522 0 1 0 1.521 1.522 1.524 1.524 0 0 0 -1.521-1.522z"/><path d="m33.739 14.022a3.522 3.522 0 1 1 3.522-3.522 3.526 3.526 0 0 1 -3.522 3.522zm0-5.044a1.522 1.522 0 1 0 1.522 1.522 1.523 1.523 0 0 0 -1.522-1.522z"/><path d="m25.4 49.454a6.529 6.529 0 1 1 6.53-6.529 6.536 6.536 0 0 1 -6.53 6.529zm0-11.058a4.529 4.529 0 1 0 4.53 4.529 4.534 4.534 0 0 0 -4.53-4.525z"/><path d="m44.841 38.184a5.785 5.785 0 1 1 5.784-5.784 5.79 5.79 0 0 1 -5.784 5.784zm0-9.569a3.785 3.785 0 1 0 3.784 3.785 3.789 3.789 0 0 0 -3.784-3.785z"/><path d="m44.841 58.385a5.785 5.785 0 1 1 5.784-5.785 5.791 5.791 0 0 1 -5.784 5.785zm0-9.569a3.785 3.785 0 1 0 3.784 3.784 3.788 3.788 0 0 0 -3.784-3.784z"/><path d="m30.168 41.127a1 1 0 0 1 -.472-1.882l10.417-5.563a1 1 0 0 1 .942 1.765l-10.417 5.562a1 1 0 0 1 -.47.118z"/><path d="m40.583 51.436a.992.992 0 0 1 -.412-.09l-10.417-4.721a1 1 0 1 1 .826-1.825l10.42 4.725a1 1 0 0 1 -.414 1.911z"/></svg>