<svg id="Icons" height="512" viewBox="0 0 74 74" width="512" xmlns="http://www.w3.org/2000/svg"><path d="m71 40.5a1 1 0 0 1 -1-1v-2.97a1 1 0 0 1 2 0v2.97a1 1 0 0 1 -1 1z"/><path d="m69 72h-64a3 3 0 0 1 -3-3v-64a3 3 0 0 1 3-3h64a3 3 0 0 1 3 3v24.53a1 1 0 0 1 -2 0v-24.53a1 1 0 0 0 -1-1h-64a1 1 0 0 0 -1 1v64a1 1 0 0 0 1 1h64a1 1 0 0 0 1-1v-12.6a1 1 0 0 1 2 0v12.6a3 3 0 0 1 -3 3z"/><path d="m71 50.4a1 1 0 0 1 -1-1v-2.9a1 1 0 0 1 2 0v2.9a1 1 0 0 1 -1 1z"/><path d="m71 19h-68a1 1 0 0 1 0-2h68a1 1 0 0 1 0 2z"/><path d="m62.5 13.817a3.317 3.317 0 1 1 3.312-3.317 3.321 3.321 0 0 1 -3.312 3.317zm0-4.634a1.317 1.317 0 1 0 1.312 1.317 1.318 1.318 0 0 0 -1.312-1.317z"/><path d="m52.833 13.817a3.317 3.317 0 1 1 3.318-3.317 3.321 3.321 0 0 1 -3.318 3.317zm0-4.634a1.317 1.317 0 1 0 1.318 1.317 1.318 1.318 0 0 0 -1.318-1.317z"/><path d="m43.171 13.817a3.317 3.317 0 1 1 3.318-3.317 3.321 3.321 0 0 1 -3.318 3.317zm0-4.634a1.317 1.317 0 1 0 1.318 1.317 1.318 1.318 0 0 0 -1.318-1.317z"/><path d="m33.521 11.5h-24.333a1 1 0 0 1 0-2h24.333a1 1 0 0 1 0 2z"/><path d="m55.26 53.5h-13.5a1 1 0 0 1 -.774-.367l-13.2-16.133h-9.026a1 1 0 0 1 0-2h9.5a1 1 0 0 1 .774.367l13.2 16.133h13.026a1 1 0 0 1 0 2z"/><path d="m51.01 57.75a1 1 0 0 1 -.707-1.707l3.543-3.543-3.546-3.543a1 1 0 0 1 1.414-1.414l4.25 4.25a1 1 0 0 1 0 1.414l-4.25 4.25a1 1 0 0 1 -.704.293z"/><path d="m28.26 54h-9.5a1 1 0 0 1 0-2h9.026l13.2-16.133a1 1 0 0 1 .774-.367h13.5a1 1 0 0 1 0 2h-13.026l-13.2 16.133a1 1 0 0 1 -.774.367z"/><path d="m51.01 41.75a1 1 0 0 1 -.707-1.707l3.543-3.543-3.546-3.543a1 1 0 0 1 1.414-1.414l4.25 4.25a1 1 0 0 1 0 1.414l-4.25 4.25a1 1 0 0 1 -.704.293z"/></svg>