<svg id="Icons" height="512" viewBox="0 0 74 74" width="512" xmlns="http://www.w3.org/2000/svg"><path d="m71 40.53a1 1 0 0 1 -1-1v-2.97a1 1 0 0 1 2 0v2.97a1 1 0 0 1 -1 1z"/><path d="m69 72h-64a3 3 0 0 1 -3-3v-64a3 3 0 0 1 3-3h64a3 3 0 0 1 3 3v24.56a1 1 0 1 1 -2 0v-24.56a1 1 0 0 0 -1-1h-64a1 1 0 0 0 -1 1v64a1 1 0 0 0 1 1h64a1 1 0 0 0 1-1v-12.56a1 1 0 0 1 2 0v12.56a3 3 0 0 1 -3 3z"/><path d="m71 50.44a1 1 0 0 1 -1-1v-2.91a1 1 0 0 1 2 0v2.91a1 1 0 0 1 -1 1z"/><path d="m71 19h-68a1 1 0 0 1 0-2h68a1 1 0 0 1 0 2z"/><path d="m33.521 11.5h-24.333a1 1 0 0 1 0-2h24.333a1 1 0 0 1 0 2z"/><path d="m63.812 11.5h-2.634a1 1 0 0 1 0-2h2.634a1 1 0 0 1 0 2z"/><path d="m54.151 11.5h-2.635a1 1 0 0 1 0-2h2.635a1 1 0 1 1 0 2z"/><path d="m44.489 11.5h-2.635a1 1 0 0 1 0-2h2.635a1 1 0 0 1 0 2z"/><path d="m37.02 61.688a17.188 17.188 0 1 1 17.188-17.188 17.207 17.207 0 0 1 -17.188 17.188zm0-32.376a15.188 15.188 0 1 0 15.188 15.188 15.2 15.2 0 0 0 -15.188-15.188z"/><path d="m37.021 50.9a14.928 14.928 0 0 1 -11.543-5.759 1 1 0 0 1 0-1.274 14.928 14.928 0 0 1 11.543-5.767 14.924 14.924 0 0 1 11.541 5.759 1 1 0 0 1 0 1.274 14.924 14.924 0 0 1 -11.541 5.767zm-9.447-6.4a12.788 12.788 0 0 0 9.447 4.4 12.783 12.783 0 0 0 9.445-4.4 12.783 12.783 0 0 0 -9.445-4.4 12.788 12.788 0 0 0 -9.447 4.4z"/><path d="m37.02 50.9a6.4 6.4 0 1 1 6.4-6.4 6.4 6.4 0 0 1 -6.4 6.4zm0-10.792a4.4 4.4 0 1 0 4.4 4.4 4.4 4.4 0 0 0 -4.4-4.408z"/><path d="m25.574 56.946a1 1 0 0 1 -.707-1.707l22.892-22.892a1 1 0 0 1 1.414 1.414l-22.892 22.892a1 1 0 0 1 -.707.293z"/></svg>