<svg id="Icons" height="512" viewBox="0 0 74 74" width="512" xmlns="http://www.w3.org/2000/svg"><path d="m51.733 25.577h-29.466a1 1 0 0 1 -.954-1.3l4.987-15.695a1 1 0 0 1 .953-.7h19.494a1 1 0 0 1 .953.7l4.987 15.692a1 1 0 0 1 -.954 1.3zm-28.1-2h26.733l-4.35-13.692h-18.032z"/><path d="m71 25.577h-68a1 1 0 0 1 -.893-1.451l7.934-15.692a1 1 0 0 1 .893-.549h52.132a1 1 0 0 1 .893.549l7.934 15.692a1 1 0 0 1 -.893 1.451zm-66.374-2h64.748l-6.923-13.692h-50.9z"/><path d="m37 66.12a1 1 0 0 1 -.767-.357l-34-40.54a1 1 0 0 1 .767-1.643h68a1 1 0 0 1 .767 1.642l-4.35 5.19a1 1 0 1 1 -1.533-1.284l2.973-3.548h-63.713l31.856 37.984 11.514-13.727a1 1 0 0 1 1.533 1.286l-12.28 14.64a1 1 0 0 1 -.767.357z"/><path d="m60.209 38.45a1 1 0 0 1 -.766-1.642l1.92-2.29a1 1 0 1 1 1.537 1.282l-1.919 2.29a1 1 0 0 1 -.772.36z"/><path d="m53.8 46.08a1 1 0 0 1 -.765-1.642l1.88-2.241a1 1 0 0 1 1.531 1.285l-1.88 2.241a1 1 0 0 1 -.766.357z"/><path d="m37 66.115a1 1 0 0 1 -.939-.658l-14.734-40.538a1 1 0 0 1 .94-1.342h29.466a1 1 0 0 1 .94 1.342l-14.734 40.538a1 1 0 0 1 -.939.658zm-13.306-40.538 13.306 36.611 13.306-36.611z"/></svg>