<?xml version="1.0" encoding="UTF-8"?>
<svg xmlns="http://www.w3.org/2000/svg" id="Icons" viewBox="0 0 74 74" width="512" height="512"><path d="M41.94,72H32.06a2.144,2.144,0,0,1-2.123-1.871l-.678-4.457A30.229,30.229,0,0,1,22.19,62.75l-3.627,2.682a2.138,2.138,0,0,1-2.808-.191l-7-7a2.142,2.142,0,0,1-.176-2.827l2.667-3.608a30.2,30.2,0,0,1-2.922-7.068L3.847,44.06A2.138,2.138,0,0,1,2,41.94V32.06a2.144,2.144,0,0,1,1.871-2.123l4.457-.678a30.2,30.2,0,0,1,2.922-7.068L8.568,18.564a2.136,2.136,0,0,1,.191-2.808l7-7a2.142,2.142,0,0,1,2.826-.176L22.19,11.25a30.229,30.229,0,0,1,7.069-2.922l.681-4.481A2.138,2.138,0,0,1,32.06,2h9.88a2.144,2.144,0,0,1,2.123,1.871l.678,4.457A30.229,30.229,0,0,1,51.81,11.25l3.627-2.682a2.135,2.135,0,0,1,2.808.191l7,7a2.145,2.145,0,0,1,.177,2.827L62.75,22.191a30.2,30.2,0,0,1,2.922,7.068l4.481.681A2.138,2.138,0,0,1,72,32.06v9.88a2.144,2.144,0,0,1-1.871,2.123l-4.457.678a30.2,30.2,0,0,1-2.922,7.068l2.682,3.627a2.139,2.139,0,0,1-.191,2.808l-7,7a2.142,2.142,0,0,1-2.827.176L51.81,62.75a30.229,30.229,0,0,1-7.069,2.922l-.681,4.481A2.138,2.138,0,0,1,41.94,72ZM22.126,60.554a1,1,0,0,1,.514.142,28.233,28.233,0,0,0,7.748,3.2,1,1,0,0,1,.749.821l.78,5.134A.15.15,0,0,0,32.06,70h9.88a.14.14,0,0,0,.139-.123l.784-5.158a1,1,0,0,1,.749-.821,28.233,28.233,0,0,0,7.748-3.2,1,1,0,0,1,1.109.054l4.157,3.074a.146.146,0,0,0,.2,0l7-7a.141.141,0,0,0,.011-.186l-3.087-4.175a1,1,0,0,1-.055-1.108,28.252,28.252,0,0,0,3.2-7.749,1,1,0,0,1,.821-.75l5.134-.779A.15.15,0,0,0,70,41.94V32.06a.14.14,0,0,0-.123-.139l-5.158-.783a1,1,0,0,1-.821-.75,28.252,28.252,0,0,0-3.2-7.749,1,1,0,0,1,.055-1.108l3.073-4.156a.149.149,0,0,0,0-.2l-7-7a.138.138,0,0,0-.184-.012L52.469,13.25a1,1,0,0,1-1.109.054,28.233,28.233,0,0,0-7.748-3.2,1,1,0,0,1-.749-.821l-.78-5.134A.15.15,0,0,0,41.94,4H32.06a.14.14,0,0,0-.139.123l-.784,5.158a1,1,0,0,1-.749.821,28.233,28.233,0,0,0-7.748,3.2,1,1,0,0,1-1.109-.054l-4.157-3.074a.15.15,0,0,0-.2,0l-7,7a.14.14,0,0,0-.012.185l3.088,4.176a1,1,0,0,1,.055,1.108,28.252,28.252,0,0,0-3.2,7.749,1,1,0,0,1-.821.75l-5.134.779A.15.15,0,0,0,4,32.06v9.88a.14.14,0,0,0,.123.139l5.158.783a1,1,0,0,1,.821.75,28.252,28.252,0,0,0,3.2,7.749,1,1,0,0,1-.055,1.108l-3.073,4.156a.149.149,0,0,0,0,.2l7,7a.14.14,0,0,0,.185.011l4.176-3.088A1,1,0,0,1,22.126,60.554Z"/><path d="M54.481,26.29a1,1,0,0,1-.835-.45,18.9,18.9,0,0,0-1.777-2.278,1,1,0,1,1,1.483-1.343,20.992,20.992,0,0,1,1.963,2.521,1,1,0,0,1-.834,1.55Z"/><path d="M37,59.04a22.035,22.035,0,0,1-.669-44.06h.03a1,1,0,0,1,.029,2A20.035,20.035,0,1,0,57.04,37a20.279,20.279,0,0,0-.458-4.269,1,1,0,1,1,1.955-.422A22.048,22.048,0,0,1,37,59.04Z"/><path d="M47.119,19.55a.987.987,0,0,1-.477-.122,19.711,19.711,0,0,0-2.608-1.19,1,1,0,1,1,.692-1.877A21.748,21.748,0,0,1,47.6,17.672a1,1,0,0,1-.48,1.878Z"/><path d="M45.305,47.322H28.7a1.779,1.779,0,0,1-1.776-1.777V35.579A1.779,1.779,0,0,1,28.7,33.8h16.61a1.779,1.779,0,0,1,1.776,1.777v9.966A1.779,1.779,0,0,1,45.305,47.322Zm-16.386-2H45.081V35.8H28.919ZM45.305,35.8h0Z"/><path d="M42.735,35.8H31.265a1,1,0,0,1-1-1V29.863a6.735,6.735,0,1,1,13.47,0V34.8A1,1,0,0,1,42.735,35.8Zm-10.47-2h9.47V29.863a4.735,4.735,0,1,0-9.47,0Z"/><path d="M37,42.2a1,1,0,0,1-1-1v-.88a1,1,0,0,1,2,0v.88A1,1,0,0,1,37,42.2Z"/></svg>
