<svg id="Icons" height="512" viewBox="0 0 74 74" width="512" xmlns="http://www.w3.org/2000/svg"><path d="m38.03 60h-2.9a1 1 0 1 1 0-2h2.9a1 1 0 0 1 0 2z"/><path d="m71 60h-16a1 1 0 0 1 0-2h15v-42h-66v42h24.13a1 1 0 0 1 0 2h-25.13a1 1 0 0 1 -1-1v-44a1 1 0 0 1 1-1h68a1 1 0 0 1 1 1v44a1 1 0 0 1 -1 1z"/><path d="m48 60h-2.97a1 1 0 0 1 0-2h2.97a1 1 0 0 1 0 2z"/><path d="m37 41.928a13.159 13.159 0 0 1 -8.724-3.291l-25.938-22.887a1 1 0 1 1 1.324-1.5l25.938 22.887a11.2 11.2 0 0 0 14.8 0l25.938-22.887a1 1 0 1 1 1.324 1.5l-25.939 22.887a13.155 13.155 0 0 1 -8.723 3.291z"/><path d="m71 60a1 1 0 0 1 -.662-.25l-24.93-22a1 1 0 1 1 1.324-1.5l24.93 22a1 1 0 0 1 -.662 1.75z"/><path d="m3 60a1 1 0 0 1 -.662-1.75l24.93-22a1 1 0 0 1 1.324 1.5l-24.93 22a1 1 0 0 1 -.662.25z"/></svg>