<svg id="Icons" height="512" viewBox="0 0 74 74" width="512" xmlns="http://www.w3.org/2000/svg"><path d="m3 24a1 1 0 0 1 -1-1v-20a1 1 0 0 1 1-1h20a1 1 0 0 1 0 2h-19v19a1 1 0 0 1 -1 1z"/><path d="m71 24a1 1 0 0 1 -1-1v-19h-19a1 1 0 0 1 0-2h20a1 1 0 0 1 1 1v20a1 1 0 0 1 -1 1z"/><path d="m71 72h-20a1 1 0 0 1 0-2h19v-19a1 1 0 0 1 2 0v20a1 1 0 0 1 -1 1z"/><path d="m23 72h-20a1 1 0 0 1 -1-1v-20a1 1 0 0 1 2 0v19h19a1 1 0 0 1 0 2z"/><path d="m37 58.13a21.13 21.13 0 1 1 21.13-21.13 20.755 20.755 0 0 1 -1.49 7.785 1 1 0 0 1 -1.94-.335v-.01a1 1 0 0 1 .073-.375 18.745 18.745 0 0 0 1.357-7.065 19.1 19.1 0 1 0 -13.094 18.16 1 1 0 0 1 .627 1.9 21.226 21.226 0 0 1 -6.663 1.07z"/><path d="m49.871 53.49a1 1 0 0 1 -.644-1.765 21.765 21.765 0 0 0 2.016-1.941 1 1 0 0 1 1.475 1.352 23.748 23.748 0 0 1 -2.2 2.12 1 1 0 0 1 -.647.234z"/><path d="m37 23.622a1 1 0 0 1 -1-1v-11.622a1 1 0 0 1 2 0v11.622a1 1 0 0 1 -1 1z"/><path d="m37 64a1 1 0 0 1 -1-1v-11.623a1 1 0 0 1 2 0v11.623a1 1 0 0 1 -1 1z"/><path d="m63 38h-11.622a1 1 0 0 1 0-2h11.622a1 1 0 0 1 0 2z"/><path d="m22.622 38h-11.622a1 1 0 0 1 0-2h11.622a1 1 0 0 1 0 2z"/></svg>