<svg id="Icons" height="512" viewBox="0 0 74 74" width="512" xmlns="http://www.w3.org/2000/svg"><path d="m71 42.49a1 1 0 0 1 -1-1v-2.97a1 1 0 0 1 2 0v2.97a1 1 0 0 1 -1 1z"/><path d="m69 72h-64a3 3 0 0 1 -3-3v-64a3 3 0 0 1 3-3h64a3 3 0 0 1 3 3v26.52a1 1 0 0 1 -2 0v-26.52a1 1 0 0 0 -1-1h-64a1 1 0 0 0 -1 1v64a1 1 0 0 0 1 1h64a1 1 0 0 0 1-1v-10.61a1 1 0 1 1 2 0v10.61a3 3 0 0 1 -3 3z"/><path d="m71 52.39a1 1 0 0 1 -1-1v-2.9a1 1 0 0 1 2 0v2.9a1 1 0 0 1 -1 1z"/><path d="m71 19h-68a1 1 0 0 1 0-2h68a1 1 0 0 1 0 2z"/><path d="m63.417 11.5h-2.54a1 1 0 0 1 0-2h2.54a1 1 0 0 1 0 2z"/><path d="m54.1 11.5h-2.54a1 1 0 0 1 0-2h2.54a1 1 0 1 1 0 2z"/><path d="m44.79 11.5h-2.54a1 1 0 0 1 0-2h2.54a1 1 0 0 1 0 2z"/><path d="m35.123 56.261a.993.993 0 0 1 -.707-.293l-2.269-2.268a1 1 0 0 1 1.415-1.414l1.561 1.561 5.315-5.315a1 1 0 0 1 1.415 1.414l-6.023 6.022a.993.993 0 0 1 -.707.293z"/><path d="m37 63a10.75 10.75 0 1 1 10.75-10.75 10.762 10.762 0 0 1 -10.75 10.75zm0-19.5a8.75 8.75 0 1 0 8.75 8.75 8.76 8.76 0 0 0 -8.75-8.75z"/><path d="m63 28h-52a1 1 0 0 1 0-2h52a1 1 0 0 1 0 2z"/><path d="m63 36h-52a1 1 0 0 1 0-2h52a1 1 0 0 1 0 2z"/></svg>