<svg id="Icons" height="512" viewBox="0 0 74 74" width="512" xmlns="http://www.w3.org/2000/svg"><path d="m71 42.53a1 1 0 0 1 -1-1v-2.97a1 1 0 0 1 2 0v2.97a1 1 0 0 1 -1 1z"/><path d="m69 72h-64a3 3 0 0 1 -3-3v-64a3 3 0 0 1 3-3h64a3 3 0 0 1 3 3v26.56a1 1 0 1 1 -2 0v-26.56a1 1 0 0 0 -1-1h-64a1 1 0 0 0 -1 1v64a1 1 0 0 0 1 1h64a1 1 0 0 0 1-1v-10.56a1 1 0 0 1 2 0v10.56a3 3 0 0 1 -3 3z"/><path d="m71 52.44a1 1 0 0 1 -1-1v-2.91a1 1 0 0 1 2 0v2.91a1 1 0 0 1 -1 1z"/><path d="m71 19h-68a1 1 0 0 1 0-2h68a1 1 0 0 1 0 2z"/><path d="m62.5 13.817a3.317 3.317 0 1 1 3.312-3.317 3.321 3.321 0 0 1 -3.312 3.317zm0-4.634a1.317 1.317 0 1 0 1.312 1.317 1.318 1.318 0 0 0 -1.312-1.317z"/><path d="m52.833 13.817a3.317 3.317 0 1 1 3.317-3.317 3.321 3.321 0 0 1 -3.317 3.317zm0-4.634a1.317 1.317 0 1 0 1.317 1.317 1.317 1.317 0 0 0 -1.317-1.317z"/><path d="m43.172 13.817a3.317 3.317 0 1 1 3.317-3.317 3.322 3.322 0 0 1 -3.317 3.317zm0-4.634a1.317 1.317 0 1 0 1.317 1.317 1.318 1.318 0 0 0 -1.317-1.317z"/><path d="m33.521 11.5h-24.333a1 1 0 0 1 0-2h24.333a1 1 0 0 1 0 2z"/><path d="m42.627 44.892a6.019 6.019 0 0 1 -4.258-10.276l4.814-4.816a6.021 6.021 0 0 1 8.517 8.517l-4.814 4.814a6 6 0 0 1 -4.259 1.761zm1.973-13.676-4.817 4.814a4.021 4.021 0 0 0 5.687 5.687l4.814-4.817a4.021 4.021 0 0 0 -5.684-5.684z"/><path d="m26.56 60.958a6.018 6.018 0 0 1 -4.26-10.275l4.814-4.814a6.021 6.021 0 0 1 8.515 8.515l-4.812 4.816a6 6 0 0 1 -4.257 1.758zm4.814-14.851a4.014 4.014 0 0 0 -2.844 1.176l-4.814 4.817a4.021 4.021 0 0 0 5.684 5.684l4.814-4.814a4.02 4.02 0 0 0 -2.843-6.863z"/><path d="m30.771 51.728a1 1 0 0 1 -.707-1.707l12.277-12.276a1 1 0 0 1 1.414 1.414l-12.276 12.276a1 1 0 0 1 -.708.293z"/></svg>