<svg id="Icons" height="512" viewBox="0 0 74 74" width="512" xmlns="http://www.w3.org/2000/svg"><path d="m47 72h-2.97a1 1 0 0 1 0-2h2.97a1 1 0 0 1 0 2z"/><path d="m69 72h-15a1 1 0 0 1 0-2h15a1 1 0 0 0 1-1v-64a1 1 0 0 0 -1-1h-64a1 1 0 0 0 -1 1v64a1 1 0 0 0 1 1h22.13a1 1 0 0 1 0 2h-22.13a3 3 0 0 1 -3-3v-64a3 3 0 0 1 3-3h64a3 3 0 0 1 3 3v64a3 3 0 0 1 -3 3z"/><path d="m37.03 72h-2.9a1 1 0 1 1 0-2h2.9a1 1 0 0 1 0 2z"/><path d="m71 19h-68a1 1 0 0 1 0-2h68a1 1 0 0 1 0 2z"/><path d="m33.521 11.5h-24.333a1 1 0 0 1 0-2h24.333a1 1 0 0 1 0 2z"/><path d="m63.812 11.5h-2.634a1 1 0 0 1 0-2h2.634a1 1 0 0 1 0 2z"/><path d="m54.151 11.5h-2.635a1 1 0 0 1 0-2h2.635a1 1 0 1 1 0 2z"/><path d="m44.489 11.5h-2.635a1 1 0 0 1 0-2h2.635a1 1 0 0 1 0 2z"/><path d="m33 35h-13.58a1 1 0 0 1 0-2h13.58a1 1 0 0 1 0 2z"/><path d="m54.58 35h-13.58a1 1 0 0 1 0-2h13.58a1 1 0 0 1 0 2z"/><path d="m15.771 38.646a4.646 4.646 0 1 1 4.646-4.646 4.651 4.651 0 0 1 -4.646 4.646zm0-7.292a2.646 2.646 0 1 0 2.646 2.646 2.649 2.649 0 0 0 -2.646-2.646z"/><path d="m58.229 38.646a4.646 4.646 0 1 1 4.646-4.646 4.651 4.651 0 0 1 -4.646 4.646zm0-7.292a2.646 2.646 0 1 0 2.646 2.646 2.649 2.649 0 0 0 -2.646-2.646z"/><path d="m20.61 52.52a1 1 0 0 1 -1-1v-1.13a17.355 17.355 0 0 1 13.181-16.861 1 1 0 1 1 .478 1.942 15.354 15.354 0 0 0 -11.659 14.919v1.13a1 1 0 0 1 -1 1z"/><path d="m53.39 52.52a1 1 0 0 1 -1-1v-1.13a15.323 15.323 0 0 0 -11.66-14.919 1 1 0 0 1 .48-1.942 17.32 17.32 0 0 1 13.18 16.861v1.13a1 1 0 0 1 -1 1z"/><path d="m57.25 60h-7.714a1 1 0 0 1 -1-1v-7.477a1 1 0 0 1 1-1h7.714a1 1 0 0 1 1 1v7.477a1 1 0 0 1 -1 1zm-6.714-2h5.714v-5.477h-5.714z"/><path d="m24.464 60h-7.714a1 1 0 0 1 -1-1v-7.477a1 1 0 0 1 1-1h7.714a1 1 0 0 1 1 1v7.477a1 1 0 0 1 -1 1zm-6.714-2h5.714v-5.477h-5.714z"/><path d="m37 39a5 5 0 1 1 5-5 5.006 5.006 0 0 1 -5 5zm0-8a3 3 0 1 0 3 3 3 3 0 0 0 -3-3z"/></svg>