<?xml version="1.0" encoding="UTF-8"?>
<svg xmlns="http://www.w3.org/2000/svg" id="Icons" viewBox="0 0 74 74" width="512" height="512"><path d="M48.45,33H25.55a1,1,0,0,1-1-1V26.45a1,1,0,0,1,2,0V31h20.9V11.384L41.066,5H26.55V9.55a1,1,0,0,1-2,0V4a1,1,0,0,1,1-1H41.48a1,1,0,0,1,.707.293l6.97,6.97a1,1,0,0,1,.293.707V32A1,1,0,0,1,48.45,33Z"/><path d="M25.55,20.45a1,1,0,0,1-1-1v-2.9a1,1,0,0,1,2,0v2.9A1,1,0,0,1,25.55,20.45Z"/><path d="M48.452,11.971H41.48a1,1,0,0,1-1-1V4a1,1,0,0,1,2,0V9.971h5.972a1,1,0,0,1,0,2Z"/><path d="M43.444,27.12H30.556a1,1,0,0,1,0-2H43.444a1,1,0,0,1,0,2Z"/><path d="M43.444,22.123H30.556a1,1,0,0,1,0-2H43.444a1,1,0,0,1,0,2Z"/><path d="M43.444,17.126H30.556a1,1,0,0,1,0-2H43.444a1,1,0,0,1,0,2Z"/><path d="M71,71H48.1a1,1,0,0,1-1-1V42a1,1,0,0,1,1-1H64.029a1,1,0,0,1,.707.293l6.971,6.971a1,1,0,0,1,.293.707V70A1,1,0,0,1,71,71ZM49.1,69H70V49.385L63.615,43H49.1Z"/><path d="M71,49.971H64.029a1,1,0,0,1-1-1V42a1,1,0,0,1,2,0v5.971H71a1,1,0,0,1,0,2Z"/><path d="M65.992,65.12H53.1a1,1,0,0,1,0-2H65.992a1,1,0,0,1,0,2Z"/><path d="M65.992,60.123H53.1a1,1,0,0,1,0-2H65.992a1,1,0,0,1,0,2Z"/><path d="M65.992,55.126H53.1a1,1,0,0,1,0-2H65.992a1,1,0,0,1,0,2Z"/><path d="M25.9,71H3a1,1,0,0,1-1-1V42a1,1,0,0,1,1-1H18.932a1,1,0,0,1,.707.293l6.971,6.971a1,1,0,0,1,.293.707V70A1,1,0,0,1,25.9,71ZM4,69H24.9V49.385L18.518,43H4Z"/><path d="M25.9,49.971H18.932a1,1,0,0,1-1-1V42a1,1,0,0,1,2,0v5.971H25.9a1,1,0,0,1,0,2Z"/><path d="M20.9,65.12H8.008a1,1,0,1,1,0-2H20.9a1,1,0,0,1,0,2Z"/><path d="M20.9,60.123H8.008a1,1,0,1,1,0-2H20.9a1,1,0,1,1,0,2Z"/><path d="M20.9,55.126H8.008a1,1,0,1,1,0-2H20.9a1,1,0,0,1,0,2Z"/></svg>
