<svg id="Icons" height="512" viewBox="0 0 74 74" width="512" xmlns="http://www.w3.org/2000/svg"><path d="m36.64 72h-3.74a1 1 0 0 1 0-2h3.74a1 1 0 0 1 0 2z"/><path d="m69 72h-11.09a1 1 0 0 1 0-2h11.09a1 1 0 0 0 1-1v-64a1 1 0 0 0 -1-1h-64a1 1 0 0 0 -1 1v64a1 1 0 0 0 1 1h19.09a1 1 0 1 1 0 2h-19.09a3 3 0 0 1 -3-3v-64a3 3 0 0 1 3-3h64a3 3 0 0 1 3 3v64a3 3 0 0 1 -3 3z"/><path d="m49.1 72h-3.66a1 1 0 0 1 0-2h3.66a1 1 0 0 1 0 2z"/><path d="m71 19h-68a1 1 0 0 1 0-2h68a1 1 0 0 1 0 2z"/><path d="m63.417 11.5h-2.54a1 1 0 0 1 0-2h2.54a1 1 0 0 1 0 2z"/><path d="m54.1 11.5h-2.537a1 1 0 0 1 0-2h2.537a1 1 0 0 1 0 2z"/><path d="m44.79 11.5h-2.54a1 1 0 0 1 0-2h2.54a1 1 0 0 1 0 2z"/><path d="m46.067 58.25a1.007 1.007 0 0 1 -.571-.179l-8.496-5.912-8.5 5.912a1 1 0 0 1 -1.571-.821v-26.5a1 1 0 0 1 1-1h18.138a1 1 0 0 1 1 1v26.5a1 1 0 0 1 -1 1zm-9.067-8.31a1 1 0 0 1 .571.18l7.5 5.216v-23.586h-16.138v23.586l7.5-5.216a1 1 0 0 1 .567-.18z"/></svg>