<svg id="Icons" height="512" viewBox="0 0 74 74" width="512" xmlns="http://www.w3.org/2000/svg"><path d="m42 60.83h-2.97a1 1 0 0 1 0-2h2.97a1 1 0 0 1 0 2z"/><path d="m61.33 60.83h-12.33a1 1 0 0 1 0-2h12.33a8.679 8.679 0 0 0 8.612-7.66h-24.995l-.9 2.9a1 1 0 0 1 -.954.7h-12.183a1 1 0 0 1 -.955-.7l-.9-2.9h-25a8.679 8.679 0 0 0 8.612 7.66h9.46a1 1 0 0 1 0 2h-9.457a10.677 10.677 0 0 1 -10.67-10.66 1 1 0 0 1 1-1h26.79a1 1 0 0 1 .955.7l.9 2.9h10.71l.9-2.9a1 1 0 0 1 .955-.7h26.79a1 1 0 0 1 1 1 10.677 10.677 0 0 1 -10.67 10.66z"/><path d="m32.03 60.83h-2.9a1 1 0 1 1 0-2h2.9a1 1 0 0 1 0 2z"/><path d="m64.5 51.17a1 1 0 0 1 -1-1v-32.55a2.458 2.458 0 0 0 -2.46-2.45h-48.08a2.458 2.458 0 0 0 -2.46 2.45v32.55a1 1 0 0 1 -2 0v-32.55a4.461 4.461 0 0 1 4.46-4.45h48.08a4.461 4.461 0 0 1 4.46 4.45v32.55a1 1 0 0 1 -1 1z"/><path d="m37 43.09a10.92 10.92 0 1 1 10.92-10.92 10.933 10.933 0 0 1 -10.92 10.92zm0-19.84a8.92 8.92 0 1 0 8.92 8.92 8.929 8.929 0 0 0 -8.92-8.92z"/><path d="m35.357 35.914a1 1 0 0 1 -.707-.293l-2.2-2.2a1 1 0 0 1 1.414-1.414l1.493 1.493 4.78-4.78a1 1 0 0 1 1.414 1.414l-5.487 5.487a1 1 0 0 1 -.707.293z"/></svg>