<svg id="Icons" height="512" viewBox="0 0 74 74" width="512" xmlns="http://www.w3.org/2000/svg"><path d="m71 45a1 1 0 0 1 -1-1v-2.9a1 1 0 1 1 2 0v2.9a1 1 0 0 1 -1 1z"/><path d="m69 72h-64a3 3 0 0 1 -3-3v-64a3 3 0 0 1 3-3h64a3 3 0 0 1 3 3v29.1a1 1 0 0 1 -2 0v-29.1a1 1 0 0 0 -1-1h-64a1 1 0 0 0 -1 1v64a1 1 0 0 0 1 1h64a1 1 0 0 0 1-1v-8.03a1 1 0 0 1 2 0v8.03a3 3 0 0 1 -3 3z"/><path d="m71 54.97a1 1 0 0 1 -1-1v-2.97a1 1 0 0 1 2 0v2.97a1 1 0 0 1 -1 1z"/><path d="m71 19h-68a1 1 0 0 1 0-2h68a1 1 0 0 1 0 2z"/><path d="m62.5 13.817a3.317 3.317 0 1 1 3.312-3.317 3.321 3.321 0 0 1 -3.312 3.317zm0-4.634a1.317 1.317 0 1 0 1.312 1.317 1.318 1.318 0 0 0 -1.312-1.317z"/><path d="m52.833 13.817a3.317 3.317 0 1 1 3.318-3.317 3.321 3.321 0 0 1 -3.318 3.317zm0-4.634a1.317 1.317 0 1 0 1.318 1.317 1.318 1.318 0 0 0 -1.318-1.317z"/><path d="m43.171 13.817a3.317 3.317 0 1 1 3.318-3.317 3.321 3.321 0 0 1 -3.318 3.317zm0-4.634a1.317 1.317 0 1 0 1.318 1.317 1.318 1.318 0 0 0 -1.318-1.317z"/><path d="m61.5 27.5h-49a1 1 0 0 1 0-2h49a1 1 0 0 1 0 2z"/><path d="m61.5 36h-49a1 1 0 0 1 0-2h49a1 1 0 0 1 0 2z"/><path d="m37 65.562a12.062 12.062 0 1 1 12.062-12.062 12.076 12.076 0 0 1 -12.062 12.062zm0-22.124a10.062 10.062 0 1 0 10.062 10.062 10.074 10.074 0 0 0 -10.062-10.062z"/><path d="m37 58.95a1 1 0 0 1 -1-1v-8.9a1 1 0 0 1 2 0v8.9a1 1 0 0 1 -1 1z"/><path d="m41.45 54.5h-8.9a1 1 0 1 1 0-2h8.9a1 1 0 0 1 0 2z"/></svg>