<svg id="Icons" height="512" viewBox="0 0 74 74" width="512" xmlns="http://www.w3.org/2000/svg"><path d="m65.16 52.17a1 1 0 0 1 -1-1v-33.52a2.678 2.678 0 0 0 -2.68-2.67h-9.48a1 1 0 0 1 0-2h9.48a4.68 4.68 0 0 1 4.68 4.67v33.52a1 1 0 0 1 -1 1z"/><path d="m35.03 14.98h-2.9a1 1 0 0 1 0-2h2.9a1 1 0 0 1 0 2z"/><path d="m8.84 52.17a1 1 0 0 1 -1-1v-33.52a4.68 4.68 0 0 1 4.68-4.67h12.61a1 1 0 0 1 0 2h-12.61a2.678 2.678 0 0 0 -2.68 2.67v33.52a1 1 0 0 1 -1 1z"/><path d="m45 14.98h-2.97a1 1 0 0 1 0-2h2.97a1 1 0 0 1 0 2z"/><path d="m37 44.266a11.16 11.16 0 1 1 11.16-11.16 11.172 11.172 0 0 1 -11.16 11.16zm0-20.32a9.16 9.16 0 1 0 9.16 9.16 9.17 9.17 0 0 0 -9.16-9.16z"/><path d="m35.317 36.916a1 1 0 0 1 -.707-.293l-2.254-2.254a1 1 0 0 1 1.414-1.414l1.547 1.545 4.913-4.913a1 1 0 0 1 1.414 1.413l-5.62 5.62a1 1 0 0 1 -.707.296z"/><path d="m66.134 61.019h-58.268a5.872 5.872 0 0 1 -5.866-5.866v-3.985a1 1 0 0 1 1-1h27.413a1 1 0 1 1 0 2h-26.413v2.985a3.87 3.87 0 0 0 3.866 3.866h58.268a3.87 3.87 0 0 0 3.866-3.866v-2.985h-26.413a1 1 0 0 1 0-2h27.413a1 1 0 0 1 1 1v3.985a5.872 5.872 0 0 1 -5.866 5.866z"/><path d="m42.174 56.036h-10.348a2.41 2.41 0 0 1 -2.413-2.4v-2.468a1 1 0 0 1 2 0v2.465a.409.409 0 0 0 .413.4h10.348a.409.409 0 0 0 .413-.4v-2.465a1 1 0 1 1 2 0v2.465a2.41 2.41 0 0 1 -2.413 2.403z"/></svg>