<svg id="Icons" height="512" viewBox="0 0 74 74" width="512" xmlns="http://www.w3.org/2000/svg"><path d="m47.68 44.81a.992.992 0 0 1 -.68-.265 6.385 6.385 0 0 0 -1.45-1 1 1 0 0 1 .408-1.909 1.035 1.035 0 0 1 .457.106 8.368 8.368 0 0 1 1.94 1.329 1 1 0 0 1 -.677 1.735z"/><path d="m50.18 55.05h-26.36a1 1 0 0 1 -1-1v-4.58a8.655 8.655 0 0 1 8.64-8.65h8.72a1 1 0 0 1 0 2h-8.72a6.653 6.653 0 0 0 -6.64 6.65v3.58h24.36v-3.58a6.365 6.365 0 0 0 -.044-.709 1.032 1.032 0 0 1 -.006-.111 1 1 0 0 1 2-.073 8.191 8.191 0 0 1 .052.893v4.58a1 1 0 0 1 -1.002 1z"/><path d="m37 38.309a7.707 7.707 0 1 1 7.706-7.709 7.715 7.715 0 0 1 -7.706 7.709zm0-13.409a5.707 5.707 0 1 0 5.706 5.7 5.713 5.713 0 0 0 -5.706-5.7z"/><path d="m44 55.046h-14a1 1 0 0 1 -1-1v-3.692a1 1 0 0 1 2 0v2.692h12v-2.692a1 1 0 0 1 2 0v3.692a1 1 0 0 1 -1 1z"/><path d="m71 43.492h-19.708a1 1 0 0 1 -1-1v-3.422a6.723 6.723 0 0 1 6.715-6.715h8.277a6.724 6.724 0 0 1 6.716 6.715v3.422a1 1 0 0 1 -1 1zm-18.708-2h17.708v-2.422a4.72 4.72 0 0 0 -4.716-4.715h-8.277a4.72 4.72 0 0 0 -4.715 4.715z"/><path d="m61.146 30.98a6.013 6.013 0 1 1 6.013-6.013 6.019 6.019 0 0 1 -6.013 6.013zm0-10.026a4.013 4.013 0 1 0 4.013 4.013 4.017 4.017 0 0 0 -4.013-4.013z"/><path d="m66.208 43.492h-10.125a1 1 0 0 1 -1-1v-2.761a1 1 0 1 1 2 0v1.761h8.125v-1.761a1 1 0 1 1 2 0v2.761a1 1 0 0 1 -1 1z"/><path d="m22.708 43.492h-19.708a1 1 0 0 1 -1-1v-3.422a6.724 6.724 0 0 1 6.716-6.715h8.277a6.723 6.723 0 0 1 6.715 6.715v3.422a1 1 0 0 1 -1 1zm-18.708-2h17.708v-2.422a4.72 4.72 0 0 0 -4.715-4.715h-8.277a4.72 4.72 0 0 0 -4.716 4.715z"/><path d="m12.854 30.98a6.013 6.013 0 1 1 6.013-6.013 6.019 6.019 0 0 1 -6.013 6.013zm0-10.026a4.013 4.013 0 1 0 4.013 4.013 4.018 4.018 0 0 0 -4.013-4.013z"/><path d="m18 43.492h-10.292a1 1 0 0 1 -1-1v-2.761a1 1 0 0 1 2 0v1.761h8.292v-1.761a1 1 0 0 1 2 0v2.761a1 1 0 0 1 -1 1z"/></svg>