<svg id="Icons" height="512" viewBox="0 0 74 74" width="512" xmlns="http://www.w3.org/2000/svg"><path d="m57 33.53a1 1 0 0 1 -1-1v-2.97a1 1 0 0 1 2 0v2.97a1 1 0 0 1 -1 1z"/><path d="m54 72h-34a4 4 0 0 1 -4-4v-62a4 4 0 0 1 4-4h34a4 4 0 0 1 4 4v16.56a1 1 0 1 1 -2 0v-16.56a2 2 0 0 0 -2-2h-34a2 2 0 0 0 -2 2v62a2 2 0 0 0 2 2h34a2 2 0 0 0 2-2v-18.56a1 1 0 0 1 2 0v18.56a4 4 0 0 1 -4 4z"/><path d="m57 43.44a1 1 0 0 1 -1-1v-2.91a1 1 0 0 1 2 0v2.91a1 1 0 0 1 -1 1z"/><path d="m57 14h-40a1 1 0 0 1 0-2h40a1 1 0 0 1 0 2z"/><path d="m57 59h-40a1 1 0 0 1 0-2h40a1 1 0 0 1 0 2z"/><path d="m44.562 9h-9.39a1 1 0 1 1 0-2h9.39a1 1 0 0 1 0 2z"/><path d="m30.707 9h-1.269a1 1 0 0 1 0-2h1.269a1 1 0 1 1 0 2z"/><path d="m37 68.083a3.583 3.583 0 1 1 3.583-3.583 3.587 3.587 0 0 1 -3.583 3.583zm0-5.166a1.583 1.583 0 1 0 1.583 1.583 1.585 1.585 0 0 0 -1.583-1.583z"/><path d="m41.056 43.739a.993.993 0 0 1 -.707-.293l-4.922-4.922-2.054 2.054a1 1 0 0 1 -1.674-.452l-3.307-12.513a1 1 0 0 1 1.222-1.222l12.513 3.309a1 1 0 0 1 .451 1.674l-2.054 2.053 4.922 4.922a1 1 0 0 1 0 1.414l-3.683 3.683a1 1 0 0 1 -.707.293zm-5.629-7.629a1 1 0 0 1 .707.293l4.922 4.922 2.269-2.269-4.925-4.922a1 1 0 0 1 0-1.414l1.532-1.531-9.17-2.425 2.423 9.17 1.535-1.534a1 1 0 0 1 .707-.29z"/></svg>