<?xml version="1.0" encoding="UTF-8"?>
<svg xmlns="http://www.w3.org/2000/svg" id="Icons" viewBox="0 0 74 74" width="512" height="512"><path d="M41.94,72H32.06a2.144,2.144,0,0,1-2.123-1.871l-.678-4.457A30.229,30.229,0,0,1,22.19,62.75l-3.627,2.682a2.138,2.138,0,0,1-2.808-.191l-7-7a2.147,2.147,0,0,1-.177-2.828l2.668-3.608a30.2,30.2,0,0,1-2.922-7.068L3.847,44.06A2.137,2.137,0,0,1,2,41.94V32.06a2.145,2.145,0,0,1,1.871-2.123l4.457-.678a30.2,30.2,0,0,1,2.922-7.068L8.568,18.564a2.139,2.139,0,0,1,.191-2.808l7-7a2.141,2.141,0,0,1,2.828-.175L22.19,11.25a30.229,30.229,0,0,1,7.069-2.922l.681-4.481A2.138,2.138,0,0,1,32.06,2h9.88a2.144,2.144,0,0,1,2.123,1.871l.678,4.457A30.229,30.229,0,0,1,51.81,11.25l3.627-2.682a2.134,2.134,0,0,1,2.808.191l7,7a2.145,2.145,0,0,1,.177,2.827L62.75,22.191a30.2,30.2,0,0,1,2.922,7.068l4.481.681A2.139,2.139,0,0,1,72,32.06v9.88a2.143,2.143,0,0,1-1.872,2.123l-4.456.678a30.2,30.2,0,0,1-2.922,7.068l2.682,3.628a2.138,2.138,0,0,1-.19,2.807l-7,7a2.142,2.142,0,0,1-2.827.176L51.81,62.75a30.229,30.229,0,0,1-7.069,2.922l-.681,4.481A2.138,2.138,0,0,1,41.94,72ZM22.126,60.554a1,1,0,0,1,.514.142,28.233,28.233,0,0,0,7.748,3.2,1,1,0,0,1,.749.821l.78,5.134A.15.15,0,0,0,32.06,70h9.88a.14.14,0,0,0,.139-.123l.784-5.158a1,1,0,0,1,.749-.821,28.233,28.233,0,0,0,7.748-3.2,1,1,0,0,1,1.109.054l4.157,3.074a.146.146,0,0,0,.2,0l7-7a.141.141,0,0,0,.011-.186l-3.087-4.177a1,1,0,0,1-.055-1.107,28.258,28.258,0,0,0,3.2-7.748,1,1,0,0,1,.821-.75l5.134-.78A.15.15,0,0,0,70,41.94V32.06a.14.14,0,0,0-.123-.139l-5.158-.784a1,1,0,0,1-.821-.75,28.284,28.284,0,0,0-3.2-7.748,1,1,0,0,1,.055-1.108l3.073-4.156a.149.149,0,0,0,0-.2l-7-7a.139.139,0,0,0-.184-.012L52.469,13.25a1,1,0,0,1-1.109.054,28.233,28.233,0,0,0-7.748-3.2,1,1,0,0,1-.749-.821l-.78-5.134A.15.15,0,0,0,41.94,4H32.06a.14.14,0,0,0-.139.123l-.784,5.158a1,1,0,0,1-.749.821,28.233,28.233,0,0,0-7.748,3.2,1,1,0,0,1-1.109-.054l-4.157-3.073a.147.147,0,0,0-.2,0l-7,7a.141.141,0,0,0-.011.186l3.087,4.175a1,1,0,0,1,.055,1.108,28.284,28.284,0,0,0-3.2,7.748,1,1,0,0,1-.821.75l-5.134.78A.15.15,0,0,0,4,32.06v9.88a.14.14,0,0,0,.122.139l5.159.784a1,1,0,0,1,.821.75,28.258,28.258,0,0,0,3.2,7.748,1,1,0,0,1-.055,1.107l-3.073,4.157a.15.15,0,0,0,0,.206l7,7a.14.14,0,0,0,.184.012l4.177-3.089A1,1,0,0,1,22.126,60.554Z"/><path d="M28.829,57.271a1,1,0,0,1-.4-.086,21.032,21.032,0,0,1-2.867-1.544,1,1,0,1,1,1.082-1.682,19.024,19.024,0,0,0,2.593,1.4,1,1,0,0,1-.405,1.916Z"/><path d="M37,59a1,1,0,0,1,0-2A19.731,19.731,0,0,0,56.148,41H36.67A3.674,3.674,0,0,1,33,37.33V17.418A20.095,20.095,0,0,0,17.7,40.133a1,1,0,1,1-1.974.314A22.062,22.062,0,0,1,33.852,15.231a.981.981,0,0,1,.8.231A1,1,0,0,1,35,16.22V37.33A1.672,1.672,0,0,0,36.67,39H57.33a1,1,0,0,1,.99,1.137A21.76,21.76,0,0,1,37,59Z"/><path d="M20.921,51.08a1,1,0,0,1-.794-.391,20.87,20.87,0,0,1-1.72-2.582,1,1,0,1,1,1.746-.974,19.218,19.218,0,0,0,1.56,2.338,1,1,0,0,1-.792,1.609Z"/><path d="M57.33,35H40a1,1,0,0,1-1-1V16.22a1,1,0,0,1,1.147-.99A21.84,21.84,0,0,1,58.32,33.863,1,1,0,0,1,57.33,35ZM41,33H56.148A19.853,19.853,0,0,0,41,17.417Z"/></svg>
