<?xml version="1.0" encoding="UTF-8"?>
<svg xmlns="http://www.w3.org/2000/svg" id="Icons" viewBox="0 0 74 74" width="512" height="512"><path d="M58.781,34.523a1.072,1.072,0,0,1-.592-.174,1.045,1.045,0,0,1-.457-.672A20.923,20.923,0,0,0,40.323,16.268a1,1,0,0,1-.824-1.179V3.18a1,1,0,0,1,.33-.742.985.985,0,0,1,.772-.252A35.066,35.066,0,0,1,71.814,33.4a1,1,0,0,1-.994,1.1H59A1,1,0,0,1,58.781,34.523Zm.772-2.023H69.694A33.081,33.081,0,0,0,41.5,4.306V14.447A22.911,22.911,0,0,1,59.553,32.5Z"/><path d="M64.089,58.54a1,1,0,0,1-.8-1.6c.6-.793,1.154-1.591,1.636-2.372a1,1,0,1,1,1.7,1.053c-.516.834-1.1,1.685-1.744,2.529A1,1,0,0,1,64.089,58.54Z"/><path d="M40.5,71.82a1,1,0,0,1-1-1V59a1.077,1.077,0,0,1,.151-.811,1.043,1.043,0,0,1,.672-.456,20.927,20.927,0,0,0,17.41-17.41,1,1,0,0,1,1.205-.819l11.882,0a1,1,0,0,1,.994,1.1,34.137,34.137,0,0,1-1.926,8.344,1,1,0,0,1-1.876-.694A31.944,31.944,0,0,0,69.693,41.5H59.554A22.916,22.916,0,0,1,41.5,59.554V69.693a32.785,32.785,0,0,0,8.6-2.4,1.03,1.03,0,0,1,1.4.918,1,1,0,0,1-.683.95A34.745,34.745,0,0,1,40.6,71.814.872.872,0,0,1,40.5,71.82Z"/><path d="M56.981,65.5a1,1,0,0,1-.581-1.814,28.455,28.455,0,0,0,2.24-1.777,1,1,0,0,1,1.32,1.5,30.407,30.407,0,0,1-2.4,1.9A.99.99,0,0,1,56.981,65.5Z"/><path d="M24.11,20.19a.945.945,0,0,1-.191-.019,1,1,0,0,1-.658-.453l-8.408-8.4a1,1,0,0,1,.076-1.483A34.771,34.771,0,0,1,33.4,2.186a1,1,0,0,1,1.1.994V15a1.08,1.08,0,0,1-.152.812,1.043,1.043,0,0,1-.672.456A20.825,20.825,0,0,0,24.7,20,1,1,0,0,1,24.11,20.19ZM17.063,10.7l7.179,7.179A22.866,22.866,0,0,1,32.5,14.447V4.306A32.771,32.771,0,0,0,17.063,10.7Z"/><path d="M15.28,34.52a.993.993,0,0,1-.216-.024L3.18,34.5a1,1,0,0,1-.994-1.1A34.771,34.771,0,0,1,9.834,14.929a1,1,0,0,1,.725-.367.982.982,0,0,1,.758.291l8.36,8.36a1.074,1.074,0,0,1,.474.682,1.048,1.048,0,0,1-.153.8,20.835,20.835,0,0,0-3.73,8.977,1,1,0,0,1-.988.844ZM4.306,32.5H14.447a22.864,22.864,0,0,1,3.43-8.258L10.7,17.063A32.771,32.771,0,0,0,4.306,32.5Z"/><path d="M33.5,71.82a.882.882,0,0,1-.1,0A35.068,35.068,0,0,1,2.186,40.6a1,1,0,0,1,.994-1.1H15a1.077,1.077,0,0,1,.811.151,1.045,1.045,0,0,1,.457.672,20.925,20.925,0,0,0,17.409,17.41,1,1,0,0,1,.824,1.179V70.82a1,1,0,0,1-1,1ZM4.306,41.5A33.081,33.081,0,0,0,32.5,69.694V59.554A22.914,22.914,0,0,1,14.447,41.5Z"/></svg>
