<svg id="Icons" height="512" viewBox="0 0 74 74" width="512" xmlns="http://www.w3.org/2000/svg"><path d="m71 32.44a1 1 0 0 1 -1-1v-2.91a1 1 0 0 1 2 0v2.91a1 1 0 0 1 -1 1z"/><path d="m68 57.83h-62a4 4 0 0 1 -4-4v-47.33a4 4 0 0 1 4-4h62a4 4 0 0 1 4 4v5.06a1 1 0 1 1 -2 0v-5.06a2 2 0 0 0 -2-2h-62a2 2 0 0 0 -2 2v47.33a2 2 0 0 0 2 2h62a2 2 0 0 0 2-2v-15.39a1 1 0 0 1 2 0v15.39a4 4 0 0 1 -4 4z"/><path d="m71 22.53a1 1 0 0 1 -1-1v-2.97a1 1 0 0 1 2 0v2.97a1 1 0 0 1 -1 1z"/><path d="m71 46.5h-68a1 1 0 0 1 0-2h68a1 1 0 0 1 0 2z"/><path d="m56 71.5h-38a1 1 0 0 1 -.684-1.73l1.6-1.5c3.051-2.858 4.472-6.494 4.472-11.442a1 1 0 0 1 1-1h25.22a1 1 0 0 1 1 1c0 4.948 1.421 8.584 4.472 11.442l1.6 1.5a1 1 0 0 1 -.68 1.73zm-35.474-2h32.948c-3.111-3.023-4.665-6.76-4.848-11.674h-23.252c-.183 4.914-1.737 8.651-4.848 11.674z"/><path d="m14.031 52h-2.312a1 1 0 0 1 0-2h2.312a1 1 0 1 1 0 2z"/><path d="m61.719 71.5h-49.438a1 1 0 0 1 0-2h49.438a1 1 0 0 1 0 2z"/><path d="m37 32.812a7.789 7.789 0 0 1 -5.777-13.012 1 1 0 0 1 1.484 1.342 5.79 5.79 0 1 0 8.586 0 1 1 0 1 1 1.484-1.342 7.789 7.789 0 0 1 -5.777 13.012z"/><path d="m37 25.5a1 1 0 0 1 -1-1v-7.312a1 1 0 0 1 2 0v7.312a1 1 0 0 1 -1 1z"/><path d="m37 38.5a14 14 0 1 1 14-14 14.015 14.015 0 0 1 -14 14zm0-26a12 12 0 1 0 12 12 12.013 12.013 0 0 0 -12-12z"/></svg>