<svg xmlns="http://www.w3.org/2000/svg" xml:space="preserve" id="Layer_1" x="0" y="0" viewBox="0 0 512 512" fill="currentColor"><title>AJAX icon</title><g id="XMLID_1_"><path id="XMLID_5_" d="M50.42 251.09.47 362.92h32.69l9.68-23.71h50.23l9.68 23.71h32.55L85.22 251.09h-34.8zm17.68 26.38 8.42 21.33 8.42 21.33H51.26l8.42-21.33 8.42-21.33z" class="st0"></path><path id="XMLID_8_" d="m292.46 251.09-49.95 111.83h32.69l9.68-23.71h50.23l9.68 23.71h32.69L327.4 251.09h-34.94zm17.82 26.38 8.42 21.33 8.42 21.33h-33.68l8.42-21.33 8.42-21.33z" class="st0"></path><path id="XMLID_9_" d="M386.05 250.67h37.04l23.71 35.78 25.12-35.78h36.62l-44.06 54.3 46.87 58.37h-37.04l-26.94-38.03-26.38 38.03h-39.57l47.71-57.81z" class="st0"></path><path id="XMLID_10_" d="m229.18 203.38-44.34 43.64 15.29 13.89 14.45-14.59h1.68v83.35c0 10.52-8.56 19.08-19.08 19.08h-15.15c-10.52 0-19.08-8.56-19.08-19.08v-8.84h-29.47v11.08c0 19.08 15.43 34.52 34.52 34.52h39.29c19.08 0 34.52-15.43 34.52-34.52v-85.45h1.12l16.84 14.45 13.33-13.89-43.92-43.64z" class="st0"></path><path id="XMLID_11_" d="M147.66 311.7 192 268.07l-15.29-13.89-14.45 14.59h-1.68v-83.35c0-10.52 8.56-19.08 19.08-19.08h15.15c10.52 0 19.08 8.56 19.08 19.08v8.84h29.47v-11.08c0-19.08-15.43-34.52-34.52-34.52h-39.29c-19.08 0-34.52 15.43-34.52 34.52v85.45h-1.12l-16.84-14.45-13.33 13.89 43.92 43.63z" class="st0"></path></g></svg>