<svg id="Icons" height="512" viewBox="0 0 74 74" width="512" xmlns="http://www.w3.org/2000/svg"><path d="m71 39.64a1 1 0 0 1 -1-1v-3.74a1 1 0 0 1 2 0v3.74a1 1 0 0 1 -1 1z"/><path d="m69 72h-64a3 3 0 0 1 -3-3v-64a3 3 0 0 1 3-3h64a3 3 0 0 1 3 3v21.09a1 1 0 1 1 -2 0v-21.09a1 1 0 0 0 -1-1h-64a1 1 0 0 0 -1 1v64a1 1 0 0 0 1 1h64a1 1 0 0 0 1-1v-9.09a1 1 0 0 1 2 0v9.09a3 3 0 0 1 -3 3z"/><path d="m71 52.1a1 1 0 0 1 -1-1v-3.66a1 1 0 0 1 2 0v3.66a1 1 0 0 1 -1 1z"/><path d="m71 19h-68a1 1 0 0 1 0-2h68a1 1 0 0 1 0 2z"/><path d="m62.5 13.817a3.317 3.317 0 1 1 3.312-3.317 3.321 3.321 0 0 1 -3.312 3.317zm0-4.634a1.317 1.317 0 1 0 1.312 1.317 1.318 1.318 0 0 0 -1.312-1.317z"/><path d="m52.833 13.817a3.317 3.317 0 1 1 3.318-3.317 3.321 3.321 0 0 1 -3.318 3.317zm0-4.634a1.317 1.317 0 1 0 1.318 1.317 1.318 1.318 0 0 0 -1.318-1.317z"/><path d="m43.171 13.817a3.317 3.317 0 1 1 3.318-3.317 3.321 3.321 0 0 1 -3.318 3.317zm0-4.634a1.317 1.317 0 1 0 1.318 1.317 1.318 1.318 0 0 0 -1.318-1.317z"/><path d="m33.521 11.5h-24.333a1 1 0 0 1 0-2h24.333a1 1 0 0 1 0 2z"/><path d="m44.892 47.243h-15.784a1.928 1.928 0 0 1 -1.926-1.926v-8.729a1.928 1.928 0 0 1 1.926-1.926h15.784a1.928 1.928 0 0 1 1.926 1.926v8.729a1.928 1.928 0 0 1 -1.926 1.926zm-15.71-2h15.636v-8.581h-15.636z"/><path d="m42.623 36.662h-11.246a1 1 0 0 1 -1-1v-4.532a6.623 6.623 0 1 1 13.246 0v4.532a1 1 0 0 1 -1 1zm-10.246-2h9.246v-3.532a4.623 4.623 0 1 0 -9.246 0z"/><path d="m37 42.079a1 1 0 0 1 -1-1v-.252a1 1 0 0 1 2 0v.252a1 1 0 0 1 -1 1z"/><path d="m62 55.493h-50a1 1 0 1 1 0-2h50a1 1 0 0 1 0 2z"/><path d="m62 64.493h-50a1 1 0 0 1 0-2h50a1 1 0 0 1 0 2z"/></svg>