<svg id="Icons" height="512" viewBox="0 0 74 74" width="512" xmlns="http://www.w3.org/2000/svg"><path d="m61.178 65.2h-48.356a4.026 4.026 0 0 1 -4.022-4.026v-48.356a4.027 4.027 0 0 1 4.022-4.018h48.356a4.027 4.027 0 0 1 4.022 4.018v48.356a4.026 4.026 0 0 1 -4.022 4.026zm-48.356-54.4a2.024 2.024 0 0 0 -2.022 2.018v48.356a2.024 2.024 0 0 0 2.022 2.026h48.356a2.024 2.024 0 0 0 2.022-2.026v-48.356a2.024 2.024 0 0 0 -2.022-2.018z"/><path d="m57.92 36.49a1 1 0 0 1 -1-1v-2.89a1 1 0 0 1 2 0v2.89a1 1 0 0 1 -1 1z"/><path d="m55.93 58.92h-37.86a2.993 2.993 0 0 1 -2.99-2.99v-37.86a3 3 0 0 1 2.99-3h37.86a3 3 0 0 1 2.99 3v7.56a1 1 0 0 1 -2 0v-7.56a1 1 0 0 0 -.99-1h-37.86a1 1 0 0 0 -.99 1v37.86a.991.991 0 0 0 .99.99h37.86a.991.991 0 0 0 .99-.99v-3.56a1 1 0 1 1 2 0v3.56a2.993 2.993 0 0 1 -2.99 2.99z"/><path d="m57.92 46.41a1 1 0 0 1 -1-1v-2.96a1 1 0 0 1 2 0v2.96a1 1 0 0 1 -1 1z"/><path d="m55.943 10.8a1 1 0 0 1 -1-1v-6.8a1 1 0 0 1 2 0v6.8a1 1 0 0 1 -1 1z"/><path d="m48.366 10.8a1 1 0 0 1 -1-1v-6.8a1 1 0 0 1 2 0v6.8a1 1 0 0 1 -1 1z"/><path d="m40.789 10.8a1 1 0 0 1 -1-1v-6.8a1 1 0 0 1 2 0v6.8a1 1 0 0 1 -1 1z"/><path d="m33.211 10.8a1 1 0 0 1 -1-1v-6.8a1 1 0 0 1 2 0v6.8a1 1 0 0 1 -1 1z"/><path d="m25.634 10.8a1 1 0 0 1 -1-1v-6.8a1 1 0 1 1 2 0v6.8a1 1 0 0 1 -1 1z"/><path d="m18.057 10.8a1 1 0 0 1 -1-1v-6.8a1 1 0 1 1 2 0v6.8a1 1 0 0 1 -1 1z"/><path d="m55.943 72a1 1 0 0 1 -1-1v-6.8a1 1 0 0 1 2 0v6.8a1 1 0 0 1 -1 1z"/><path d="m48.366 72a1 1 0 0 1 -1-1v-6.8a1 1 0 0 1 2 0v6.8a1 1 0 0 1 -1 1z"/><path d="m40.789 72a1 1 0 0 1 -1-1v-6.8a1 1 0 0 1 2 0v6.8a1 1 0 0 1 -1 1z"/><path d="m33.211 72a1 1 0 0 1 -1-1v-6.8a1 1 0 0 1 2 0v6.8a1 1 0 0 1 -1 1z"/><path d="m25.634 72a1 1 0 0 1 -1-1v-6.8a1 1 0 0 1 2 0v6.8a1 1 0 0 1 -1 1z"/><path d="m18.057 72a1 1 0 0 1 -1-1v-6.8a1 1 0 0 1 2 0v6.8a1 1 0 0 1 -1 1z"/><path d="m71 56.939h-6.8a1 1 0 0 1 0-2h6.8a1 1 0 0 1 0 2z"/><path d="m71 49.362h-6.8a1 1 0 0 1 0-2h6.8a1 1 0 0 1 0 2z"/><path d="m71 41.785h-6.8a1 1 0 0 1 0-2h6.8a1 1 0 0 1 0 2z"/><path d="m71 34.208h-6.8a1 1 0 0 1 0-2h6.8a1 1 0 0 1 0 2z"/><path d="m71 26.63h-6.8a1 1 0 0 1 0-2h6.8a1 1 0 0 1 0 2z"/><path d="m71 19.053h-6.8a1 1 0 0 1 0-2h6.8a1 1 0 0 1 0 2z"/><path d="m9.8 56.939h-6.8a1 1 0 0 1 0-2h6.8a1 1 0 1 1 0 2z"/><path d="m9.8 49.362h-6.8a1 1 0 0 1 0-2h6.8a1 1 0 1 1 0 2z"/><path d="m9.8 41.785h-6.8a1 1 0 0 1 0-2h6.8a1 1 0 0 1 0 2z"/><path d="m9.8 34.208h-6.8a1 1 0 0 1 0-2h6.8a1 1 0 0 1 0 2z"/><path d="m9.8 26.63h-6.8a1 1 0 0 1 0-2h6.8a1 1 0 0 1 0 2z"/><path d="m9.8 19.053h-6.8a1 1 0 0 1 0-2h6.8a1 1 0 0 1 0 2z"/><path d="m37 47.593a9.664 9.664 0 0 1 -7.481-15.786 1 1 0 1 1 1.546 1.267 7.667 7.667 0 1 0 11.87 0 1 1 0 1 1 1.546-1.267 9.664 9.664 0 0 1 -7.481 15.786z"/><path d="m37 38.436a1 1 0 0 1 -1-1v-10.036a1 1 0 0 1 2 0v10.036a1 1 0 0 1 -1 1z"/></svg>