<svg id="Icons" height="512" viewBox="0 0 74 74" width="512" xmlns="http://www.w3.org/2000/svg"><path d="m38.1 72h-3.74a1 1 0 0 1 0-2h3.74a1 1 0 0 1 0 2z"/><path d="m69 72h-22.09a1 1 0 0 1 0-2h22.09a1 1 0 0 0 1-1v-64a1 1 0 0 0 -1-1h-64a1 1 0 0 0 -1 1v64a1 1 0 0 0 1 1h8.09a1 1 0 1 1 0 2h-8.09a3 3 0 0 1 -3-3v-64a3 3 0 0 1 3-3h64a3 3 0 0 1 3 3v64a3 3 0 0 1 -3 3z"/><path d="m25.56 72h-3.66a1 1 0 0 1 0-2h3.66a1 1 0 1 1 0 2z"/><path d="m71 19h-68a1 1 0 0 1 0-2h68a1 1 0 0 1 0 2z"/><path d="m33.521 11.5h-24.333a1 1 0 0 1 0-2h24.333a1 1 0 0 1 0 2z"/><path d="m63.812 11.5h-2.634a1 1 0 0 1 0-2h2.634a1 1 0 0 1 0 2z"/><path d="m54.15 11.5h-2.634a1 1 0 0 1 0-2h2.634a1 1 0 1 1 0 2z"/><path d="m44.489 11.5h-2.635a1 1 0 0 1 0-2h2.635a1 1 0 0 1 0 2z"/><path d="m48.11 60.365a6.793 6.793 0 0 1 -4.818-1.992l-15.31-15.31a3.907 3.907 0 0 1 0-5.525 4 4 0 0 1 5.526 0l5.748 5.748a1 1 0 0 1 -1.414 1.414l-5.748-5.748a1.953 1.953 0 0 0 -2.7 0 1.908 1.908 0 0 0 0 2.7l15.31 15.309a4.814 4.814 0 1 0 6.808-6.808l-17.254-17.26a7.722 7.722 0 1 0 -10.92 10.92l11.922 11.922a1 1 0 0 1 -1.414 1.414l-11.922-11.922a9.721 9.721 0 0 1 13.748-13.748l17.256 17.257a6.811 6.811 0 0 1 -4.818 11.629z"/></svg>