<svg id="Icons" height="512" viewBox="0 0 74 74" width="512" xmlns="http://www.w3.org/2000/svg"><path d="m49.1 72h-3.74a1 1 0 0 1 0-2h3.74a1 1 0 0 1 0 2z"/><path d="m69 72h-11.09a1 1 0 0 1 0-2h11.09a1 1 0 0 0 1-1v-64a1 1 0 0 0 -1-1h-64a1 1 0 0 0 -1 1v64a1 1 0 0 0 1 1h19.09a1 1 0 1 1 0 2h-19.09a3 3 0 0 1 -3-3v-64a3 3 0 0 1 3-3h64a3 3 0 0 1 3 3v64a3 3 0 0 1 -3 3z"/><path d="m36.56 72h-3.66a1 1 0 0 1 0-2h3.66a1 1 0 0 1 0 2z"/><path d="m71 19h-68a1 1 0 0 1 0-2h68a1 1 0 0 1 0 2z"/><path d="m64.812 11.5h-24.333a1 1 0 0 1 0-2h24.333a1 1 0 0 1 0 2z"/><path d="m12.822 11.5h-2.634a1 1 0 0 1 0-2h2.634a1 1 0 0 1 0 2z"/><path d="m22.484 11.5h-2.634a1 1 0 0 1 0-2h2.634a1 1 0 0 1 0 2z"/><path d="m32.146 11.5h-2.635a1 1 0 1 1 0-2h2.635a1 1 0 0 1 0 2z"/><path d="m48.327 61.611h-22.654a1 1 0 0 1 -1-1v-2.778a17.8 17.8 0 0 1 6.383-13.333 17.8 17.8 0 0 1 -6.383-13.333v-2.778a1 1 0 0 1 1-1h22.654a1 1 0 0 1 1 1v2.778a17.8 17.8 0 0 1 -6.383 13.333 17.8 17.8 0 0 1 6.383 13.333v2.778a1 1 0 0 1 -1 1zm-21.654-2h20.654v-1.778c0-4.708-2.329-9.166-6.557-12.552a1 1 0 0 1 0-1.562c4.228-3.386 6.557-7.844 6.557-12.552v-1.778h-20.654v1.778c0 4.708 2.329 9.166 6.557 12.552a1 1 0 0 1 0 1.562c-4.23 3.386-6.557 7.844-6.557 12.552z"/><path d="m43.508 56.766h-13.016a1 1 0 0 1 -.978-1.206 14.083 14.083 0 0 1 5.254-7.984l1.607-1.288a1 1 0 0 1 1.25 0l1.607 1.287a14.089 14.089 0 0 1 5.254 7.985 1 1 0 0 1 -.978 1.206zm-11.7-2h10.384a12.749 12.749 0 0 0 -4.21-5.63l-.982-.786-.982.787a12.741 12.741 0 0 0 -4.21 5.629zm5.192-11.835a1 1 0 0 1 -.625-.219l-1.607-1.287a14.083 14.083 0 0 1 -5.254-7.984 1 1 0 0 1 .978-1.206h13.016a1 1 0 0 1 .978 1.206 14.083 14.083 0 0 1 -5.254 7.984l-1.607 1.288a1 1 0 0 1 -.625.218zm-.982-3.068.982.787.982-.787a12.741 12.741 0 0 0 4.21-5.629h-10.384a12.749 12.749 0 0 0 4.21 5.63z"/><path d="m51.5 29.389h-29a1 1 0 0 1 0-2h29a1 1 0 0 1 0 2z"/><path d="m51.5 61.611h-29a1 1 0 1 1 0-2h29a1 1 0 0 1 0 2z"/></svg>