<?xml version="1.0" encoding="UTF-8"?>
<svg xmlns="http://www.w3.org/2000/svg" id="Icons" viewBox="0 0 74 74" width="512" height="512"><path d="M3,48.44a1,1,0,0,1-1-1V44.47a1,1,0,0,1,2,0v2.97A1,1,0,0,1,3,48.44Z"/><path d="M69,72H5a3,3,0,0,1-3-3V54.44a1,1,0,0,1,2,0V69a1,1,0,0,0,1,1H69a1,1,0,0,0,1-1V5a1,1,0,0,0-1-1H5A1,1,0,0,0,4,5V27.56a1,1,0,0,1-2,0V5A3,3,0,0,1,5,2H69a3,3,0,0,1,3,3V69A3,3,0,0,1,69,72Z"/><path d="M3,38.47a1,1,0,0,1-1-1V34.56a1,1,0,0,1,2,0v2.91A1,1,0,0,1,3,38.47Z"/><path d="M63.194,65H10.806A1.808,1.808,0,0,1,9,63.194V21.131a1.808,1.808,0,0,1,1.806-1.8H63.194A1.808,1.808,0,0,1,65,21.131V63.194A1.808,1.808,0,0,1,63.194,65ZM11,63H63V21.326H11Z"/><path d="M60.291,14.844a3.522,3.522,0,1,1,3.521-3.522A3.526,3.526,0,0,1,60.291,14.844Zm0-5.044a1.522,1.522,0,1,0,1.521,1.522A1.523,1.523,0,0,0,60.291,9.8Z"/><path d="M49.776,14.844A3.522,3.522,0,1,1,53.3,11.322,3.526,3.526,0,0,1,49.776,14.844Zm0-5.044A1.522,1.522,0,1,0,51.3,11.322,1.523,1.523,0,0,0,49.776,9.8Z"/><path d="M39.261,14.844a3.522,3.522,0,1,1,3.522-3.522A3.526,3.526,0,0,1,39.261,14.844Zm0-5.044a1.522,1.522,0,1,0,1.522,1.522A1.523,1.523,0,0,0,39.261,9.8Z"/><path d="M27.541,37.294l-2.7,9.738H23.609l-2.338-8.463-2.345,8.463H17.69L15,37.294h1.355L18.3,45.225l2.192-7.931h1.548l2.192,7.931,1.947-7.931Z"/><path d="M24.939,47.157H23.514l-2.243-8.119-2.25,8.119H17.6l-2.759-9.989h1.617l1.856,7.562L20.4,37.168h1.738l2.09,7.562,1.856-7.562h1.624Zm-1.235-.25h1.045l2.628-9.489h-1.1l-2.037,8.3-2.295-8.3H20.589l-2.295,8.3-2.037-8.3H15.164l2.622,9.489h1.045l2.44-8.807Z"/><path d="M43.271,37.294l-2.7,9.738H39.338L37,38.569l-2.345,8.463H33.42l-2.691-9.738h1.355l1.947,7.931,2.192-7.931h1.548l2.192,7.931,1.946-7.931Z"/><path d="M40.669,47.157H39.243L37,39.038l-2.25,8.119H33.324l-2.759-9.989h1.618l1.855,7.562,2.089-7.562h1.739l2.089,7.562,1.856-7.562h1.624Zm-1.235-.25h1.045l2.627-9.489h-1.1l-2.037,8.3-2.3-8.3H36.318l-2.295,8.3-2.037-8.3H30.893l2.622,9.489H34.56L37,38.1Z"/><path d="M59,37.294l-2.7,9.738H55.067l-2.338-8.463-2.345,8.463H49.149l-2.69-9.738h1.355l1.946,7.931,2.192-7.931H53.5l2.192,7.931,1.946-7.931Z"/><path d="M56.4,47.157H54.972l-2.243-8.119-2.25,8.119H49.054l-2.76-9.989h1.618l1.855,7.562,2.09-7.562H53.6l2.09,7.562,1.855-7.562h1.625Zm-1.235-.25h1.045l2.627-9.489h-1.1L55.7,45.72l-2.294-8.3H52.047l-2.295,8.3-2.037-8.3H46.623l2.621,9.489h1.045l2.44-8.807Z"/></svg>
