<svg id="Icons" height="512" viewBox="0 0 74 74" width="512" xmlns="http://www.w3.org/2000/svg"><path d="m49.1 72h-3.74a1 1 0 0 1 0-2h3.74a1 1 0 0 1 0 2z"/><path d="m69 72h-11.09a1 1 0 0 1 0-2h11.09a1 1 0 0 0 1-1v-64a1 1 0 0 0 -1-1h-64a1 1 0 0 0 -1 1v64a1 1 0 0 0 1 1h19.09a1 1 0 1 1 0 2h-19.09a3 3 0 0 1 -3-3v-64a3 3 0 0 1 3-3h64a3 3 0 0 1 3 3v64a3 3 0 0 1 -3 3z"/><path d="m36.56 72h-3.66a1 1 0 0 1 0-2h3.66a1 1 0 0 1 0 2z"/><path d="m71 19h-68a1 1 0 0 1 0-2h68a1 1 0 0 1 0 2z"/><path d="m62.5 13.817a3.317 3.317 0 1 1 3.312-3.317 3.321 3.321 0 0 1 -3.312 3.317zm0-4.634a1.317 1.317 0 1 0 1.312 1.317 1.318 1.318 0 0 0 -1.312-1.317z"/><path d="m52.833 13.817a3.317 3.317 0 1 1 3.317-3.317 3.321 3.321 0 0 1 -3.317 3.317zm0-4.634a1.317 1.317 0 1 0 1.317 1.317 1.317 1.317 0 0 0 -1.317-1.317z"/><path d="m43.172 13.817a3.317 3.317 0 1 1 3.317-3.317 3.322 3.322 0 0 1 -3.317 3.317zm0-4.634a1.317 1.317 0 1 0 1.317 1.317 1.318 1.318 0 0 0 -1.317-1.317z"/><path d="m33.521 11.5h-24.333a1 1 0 0 1 0-2h24.333a1 1 0 0 1 0 2z"/><path d="m60.928 44.052h-28.5a1.948 1.948 0 0 1 -1.946-1.946v-14.1a1.949 1.949 0 0 1 1.946-1.946h28.5a1.949 1.949 0 0 1 1.946 1.946v14.1a1.948 1.948 0 0 1 -1.946 1.946zm-28.45-15.99v14.044l28.45-.054-.054-14.044z"/><path d="m37.877 39.257a1 1 0 0 1 -.707-1.707l2.492-2.493-2.492-2.492a1 1 0 1 1 1.414-1.414l3.2 3.2a1 1 0 0 1 0 1.414l-3.2 3.2a1 1 0 0 1 -.707.292z"/><path d="m53.542 39.253h-3.667a1 1 0 0 1 0-2h3.667a1 1 0 0 1 0 2z"/><path d="m61.621 53.427h-49.495a1 1 0 1 1 0-2h49.5a1 1 0 0 1 0 2z"/><path d="m61.621 62.938h-49.495a1 1 0 0 1 0-2h49.5a1 1 0 0 1 0 2z"/></svg>