<svg id="Icons" height="512" viewBox="0 0 74 74" width="512" xmlns="http://www.w3.org/2000/svg"><path d="m46 69.74a1 1 0 0 1 -.472-1.882 17.825 17.825 0 0 0 2.386-1.525 1 1 0 0 1 1.21 1.593 19.889 19.889 0 0 1 -2.654 1.7 1 1 0 0 1 -.47.114z"/><path d="m37 72a20.072 20.072 0 0 1 -20.05-20.05v-17.72a20.05 20.05 0 0 1 40.1 0v14.96a1 1 0 0 1 -2 0v-14.96a18.05 18.05 0 0 0 -36.1 0v17.72a18.07 18.07 0 0 0 18.05 18.05c.462 0 .934-.019 1.387-.057a1 1 0 1 1 .166 1.994c-.507.042-1.035.063-1.553.063z"/><path d="m53.339 62.75a1 1 0 0 1 -.857-1.515 17.293 17.293 0 0 0 1.372-2.826 1 1 0 1 1 1.873.7 19.433 19.433 0 0 1 -1.53 3.154 1 1 0 0 1 -.858.487z"/><path d="m56.047 36.587h-38.094a1 1 0 0 1 0-2h38.094a1 1 0 0 1 0 2z"/><path d="m37 36.587a1 1 0 0 1 -1-1v-21.937a4.33 4.33 0 0 0 -4.325-4.325h-4.04a6.332 6.332 0 0 1 -6.324-6.325 1 1 0 0 1 2 0 4.329 4.329 0 0 0 4.324 4.325h4.04a6.332 6.332 0 0 1 6.325 6.325v21.937a1 1 0 0 1 -1 1z"/></svg>