<?xml version="1.0" encoding="UTF-8"?>
<svg xmlns="http://www.w3.org/2000/svg" id="Icons" viewBox="0 0 74 74" width="512" height="512"><path d="M37,72A35,35,0,1,1,72,37,35.04,35.04,0,0,1,37,72ZM37,4A33,33,0,1,0,70,37,33.038,33.038,0,0,0,37,4Z"/><path d="M20.8,60.3a1,1,0,0,1-.581-.187,24.361,24.361,0,0,1-2.409-1.971,1,1,0,1,1,1.363-1.464,22.3,22.3,0,0,0,2.21,1.809A1,1,0,0,1,20.8,60.3Z"/><path d="M37,65.58a28.1,28.1,0,0,1-10.139-1.867,1,1,0,1,1,.719-1.866A26.111,26.111,0,0,0,37,63.58,26.58,26.58,0,1,0,10.42,37a25.823,25.823,0,0,0,.462,4.91,1,1,0,0,1-1.964.381A27.846,27.846,0,0,1,8.42,37,28.58,28.58,0,1,1,37,65.58Z"/><path d="M13.921,53.08a1,1,0,0,1-.835-.448,26.093,26.093,0,0,1-1.561-2.7,1,1,0,1,1,1.789-.894,23.934,23.934,0,0,0,1.439,2.495,1,1,0,0,1-.832,1.552Z"/><path d="M31.667,34.667H23a2,2,0,0,1-2-2V24a2,2,0,0,1,2-2h8.667a2,2,0,0,1,2,2v8.667A2,2,0,0,1,31.667,34.667ZM23,24v8.667h8.667V24Z"/><path d="M51,34.667H42.333a2,2,0,0,1-2-2V24a2,2,0,0,1,2-2H51a2,2,0,0,1,2,2v8.667A2,2,0,0,1,51,34.667ZM51,24H42.333v8.667H51Z"/><path d="M31.667,52H23a2,2,0,0,1-2-2V41.333a2,2,0,0,1,2-2h8.667a2,2,0,0,1,2,2V50A2,2,0,0,1,31.667,52ZM23,41.333V50h8.667V41.333Z"/></svg>
