<svg id="Icons" height="512" viewBox="0 0 74 74" width="512" xmlns="http://www.w3.org/2000/svg"><path d="m69 72h-64a3 3 0 0 1 -3-3v-64a3 3 0 0 1 3-3h64a3 3 0 0 1 3 3v64a3 3 0 0 1 -3 3zm-64-68a1 1 0 0 0 -1 1v64a1 1 0 0 0 1 1h64a1 1 0 0 0 1-1v-64a1 1 0 0 0 -1-1z"/><path d="m65 38.7a1 1 0 0 1 -1-1v-2.97a1 1 0 1 1 2 0v2.97a1 1 0 0 1 -1 1z"/><path d="m65 66h-56a1 1 0 0 1 -1-1v-45.67a1 1 0 0 1 1-1h56a1 1 0 0 1 1 1v8.4a1 1 0 1 1 -2 0v-7.4h-54v43.67h54v-9.4a1 1 0 1 1 2 0v10.4a1 1 0 0 1 -1 1z"/><path d="m65 48.6a1 1 0 0 1 -1-1v-2.9a1 1 0 0 1 2 0v2.9a1 1 0 0 1 -1 1z"/><path d="m61.384 14.685a3.522 3.522 0 1 1 3.522-3.522 3.527 3.527 0 0 1 -3.522 3.522zm0-5.044a1.522 1.522 0 1 0 1.522 1.522 1.523 1.523 0 0 0 -1.522-1.522z"/><path d="m50.869 14.685a3.522 3.522 0 1 1 3.523-3.522 3.526 3.526 0 0 1 -3.523 3.522zm0-5.044a1.522 1.522 0 1 0 1.523 1.522 1.523 1.523 0 0 0 -1.523-1.522z"/><path d="m40.354 14.685a3.522 3.522 0 1 1 3.523-3.522 3.526 3.526 0 0 1 -3.523 3.522zm0-5.044a1.522 1.522 0 1 0 1.523 1.522 1.523 1.523 0 0 0 -1.523-1.522z"/><path d="m32.594 12.163h-22.5a1 1 0 1 1 0-2h22.5a1 1 0 0 1 0 2z"/><path d="m45.446 54.422h-16.892a4.813 4.813 0 0 1 -4.3-6.965l8.446-16.893a4.814 4.814 0 0 1 8.61 0l8.446 16.893a4.813 4.813 0 0 1 -4.3 6.965zm-8.446-24.522a2.762 2.762 0 0 0 -2.516 1.554l-8.446 16.897a2.813 2.813 0 0 0 2.516 4.071h16.892a2.813 2.813 0 0 0 2.516-4.071l-8.446-16.893a2.762 2.762 0 0 0 -2.516-1.558z"/><path d="m37 43.452a1 1 0 0 1 -1-1v-6.018a1 1 0 0 1 2 0v6.018a1 1 0 0 1 -1 1z"/><path d="m37 47.751a1 1 0 0 1 -1-1v-.86a1 1 0 1 1 2 0v.86a1 1 0 0 1 -1 1z"/></svg>