<svg id="Icons" height="512" viewBox="0 0 74 74" width="512" xmlns="http://www.w3.org/2000/svg"><path d="m71 42.03a1 1 0 0 1 -1-1v-2.97a1 1 0 0 1 2 0v2.97a1 1 0 0 1 -1 1z"/><path d="m69 72h-64a3 3 0 0 1 -3-3v-64a3 3 0 0 1 3-3h64a3 3 0 0 1 3 3v26.06a1 1 0 1 1 -2 0v-26.06a1 1 0 0 0 -1-1h-64a1 1 0 0 0 -1 1v64a1 1 0 0 0 1 1h64a1 1 0 0 0 1-1v-11.06a1 1 0 0 1 2 0v11.06a3 3 0 0 1 -3 3z"/><path d="m71 51.94a1 1 0 0 1 -1-1v-2.91a1 1 0 0 1 2 0v2.91a1 1 0 0 1 -1 1z"/><path d="m71 19h-68a1 1 0 0 1 0-2h68a1 1 0 0 1 0 2z"/><path d="m63.417 11.5h-2.54a1 1 0 0 1 0-2h2.54a1 1 0 0 1 0 2z"/><path d="m54.1 11.5h-2.54a1 1 0 0 1 0-2h2.54a1 1 0 1 1 0 2z"/><path d="m44.79 11.5h-2.54a1 1 0 0 1 0-2h2.54a1 1 0 0 1 0 2z"/><path d="m50.781 58.452h-2.194a1 1 0 0 1 0-2h2.194a.985.985 0 0 0 .984-.985v-6.267a2.753 2.753 0 0 1 .812-1.96l2.2-2.2a.772.772 0 0 0 0-1.092l-2.2-2.2a2.753 2.753 0 0 1 -.812-1.96v-6.255a.985.985 0 0 0 -.984-.985h-2.194a1 1 0 1 1 0-2h2.194a2.988 2.988 0 0 1 2.984 2.985v6.267a.772.772 0 0 0 .227.547l2.2 2.2a2.775 2.775 0 0 1 0 3.92l-2.2 2.2a.771.771 0 0 0 -.226.546v6.264a2.988 2.988 0 0 1 -2.985 2.975z"/><path d="m25.848 58.452h-2.193a2.988 2.988 0 0 1 -2.985-2.985v-6.267a.767.767 0 0 0 -.226-.546l-2.2-2.2a2.775 2.775 0 0 1 0-3.92l2.2-2.2a.767.767 0 0 0 .226-.546v-6.255a2.988 2.988 0 0 1 2.985-2.985h2.193a1 1 0 0 1 0 2h-2.193a.986.986 0 0 0 -.985.985v6.267a2.75 2.75 0 0 1 -.812 1.96l-2.2 2.2a.773.773 0 0 0 0 1.092l2.2 2.2a2.75 2.75 0 0 1 .812 1.96v6.264a.986.986 0 0 0 .985.985h2.193a1 1 0 0 1 0 2z"/><path d="m33.088 60.471a.981.981 0 0 1 -.266-.037 1 1 0 0 1 -.7-1.23l8.26-29.94a1 1 0 1 1 1.928.532l-8.26 29.94a1 1 0 0 1 -.962.735z"/></svg>