<svg id="Icons" height="512" viewBox="0 0 74 74" width="512" xmlns="http://www.w3.org/2000/svg"><path d="m29.3 50.73a1 1 0 0 1 -.117-1.993 22.441 22.441 0 0 0 19.727-22.282 22.456 22.456 0 1 0 -42.469 10.191 1 1 0 0 1 -1.782.908 24.458 24.458 0 1 1 39.088 6.193 24.135 24.135 0 0 1 -14.329 6.976.966.966 0 0 1 -.118.007z"/><path d="m12.319 46.16a.99.99 0 0 1 -.6-.2 22.4 22.4 0 0 1 -2.345-2.009 1 1 0 0 1 1.4-1.425 20.291 20.291 0 0 0 2.135 1.83 1 1 0 0 1 -.6 1.8z"/><path d="m21.411 50.36a.969.969 0 0 1 -.206-.022 22.376 22.376 0 0 1 -3.078-.889 1 1 0 0 1 .686-1.879 20.476 20.476 0 0 0 2.8.811 1 1 0 0 1 -.2 1.979z"/><path d="m26.457 44.04a17.583 17.583 0 1 1 12.443-5.14 17.533 17.533 0 0 1 -12.443 5.14zm0-33.167a15.584 15.584 0 1 0 11.025 4.559 15.545 15.545 0 0 0 -11.025-4.559z"/><path d="m64.216 72c-.062 0-.123 0-.184 0a7.722 7.722 0 0 1 -5.577-2.537l-20.405-22.363a1 1 0 1 1 1.477-1.349l20.406 22.36a5.79 5.79 0 1 0 8.18-8.18l-22.36-20.404a1 1 0 0 1 1.347-1.477l22.361 20.405a7.791 7.791 0 0 1 -5.245 13.545z"/><path d="m64 67.417a3.417 3.417 0 1 1 3.417-3.417 3.421 3.421 0 0 1 -3.417 3.417zm0-4.834a1.417 1.417 0 1 0 1.417 1.417 1.419 1.419 0 0 0 -1.417-1.417z"/></svg>