<svg id="Icons" height="512" viewBox="0 0 74 74" width="512" xmlns="http://www.w3.org/2000/svg"><path d="m55.111 66.78a1 1 0 0 1 -.532-1.848c.74-.463 1.507-.991 2.344-1.614a1 1 0 0 1 1.193 1.6c-.88.655-1.689 1.213-2.474 1.7a1 1 0 0 1 -.531.162z"/><path d="m37 72a35 35 0 1 1 35-35 34.682 34.682 0 0 1 -2.873 13.909 1 1 0 0 1 -1.834-.8 32.69 32.69 0 0 0 2.707-13.109 32.941 32.941 0 1 0 -21.72 31.03 1 1 0 1 1 .68 1.881 35.06 35.06 0 0 1 -11.96 2.089z"/><path d="m62.63 60.34a1 1 0 0 1 -.755-1.656c.638-.734 1.256-1.51 1.837-2.3a1 1 0 1 1 1.615 1.181c-.614.839-1.267 1.658-1.942 2.435a1 1 0 0 1 -.755.34z"/><path d="m37 65a28 28 0 1 1 28-28 28.032 28.032 0 0 1 -28 28zm0-54a26 26 0 1 0 26 26 26.029 26.029 0 0 0 -26-26z"/><path d="m37.347 53.113c-.021 0-.041 0-.062 0a1 1 0 0 1 -.9-.743l-3.077-11.677-11.676-3.072a1 1 0 0 1 -.117-1.9l25.785-10.316a1 1 0 0 1 1.3 1.3l-10.325 25.78a1 1 0 0 1 -.928.628zm-12.278-16.656 9.312 2.45a1 1 0 0 1 .712.713l2.45 9.311 8.328-20.8z"/></svg>