<svg id="Icons" height="512" viewBox="0 0 74 74" width="512" xmlns="http://www.w3.org/2000/svg"><path d="m30.27 72h-2.9a1 1 0 0 1 0-2h2.9a1 1 0 0 1 0 2z"/><path d="m40.24 72h-2.97a1 1 0 0 1 0-2h2.97a1 1 0 1 1 0 2z"/><path d="m69 72h-21.76a1 1 0 0 1 0-2h21.76a1 1 0 0 0 1-1v-64a1 1 0 0 0 -1-1h-64a1 1 0 0 0 -1 1v64a1 1 0 0 0 1 1h15.37a1 1 0 1 1 0 2h-15.37a3 3 0 0 1 -3-3v-64a3 3 0 0 1 3-3h64a3 3 0 0 1 3 3v64a3 3 0 0 1 -3 3z"/><path d="m71 18h-68a1 1 0 0 1 0-2h68a1 1 0 0 1 0 2z"/><path d="m63.417 11.188h-2.54a1 1 0 1 1 0-2h2.54a1 1 0 0 1 0 2z"/><path d="m54.1 11.188h-2.54a1 1 0 0 1 0-2h2.54a1 1 0 0 1 0 2z"/><path d="m44.79 11.188h-2.54a1 1 0 0 1 0-2h2.54a1 1 0 0 1 0 2z"/><path d="m48.3 61h-22.539a5.731 5.731 0 0 1 -5.126-8.294l11.265-22.538a5.731 5.731 0 0 1 10.252 0l11.273 22.538a5.731 5.731 0 0 1 -5.125 8.294zm-11.27-32a3.664 3.664 0 0 0 -3.337 2.062l-11.269 22.538a3.731 3.731 0 0 0 3.337 5.4h22.539a3.731 3.731 0 0 0 3.337-5.4l-11.27-22.538a3.663 3.663 0 0 0 -3.337-2.062z"/><path d="m37 49a1 1 0 0 1 -1-1v-9a1 1 0 0 1 2 0v9a1 1 0 0 1 -1 1z"/><path d="m37 54a1 1 0 0 1 -1-1v-1a1 1 0 0 1 2 0v1a1 1 0 0 1 -1 1z"/></svg>