<svg id="Icons" height="512" viewBox="0 0 74 74" width="512" xmlns="http://www.w3.org/2000/svg"><path d="m12.19 47.44a1 1 0 0 1 -1-1v-2.97a1 1 0 0 1 2 0v2.97a1 1 0 0 1 -1 1z"/><path d="m64.81 72h-52.62a1 1 0 0 1 -1-1v-17.56a1 1 0 0 1 2 0v16.56h50.62v-50.656l-15.344-15.344h-35.276v22.56a1 1 0 0 1 -2 0v-23.56a1 1 0 0 1 1-1h36.69a1 1 0 0 1 .707.293l15.93 15.93a1 1 0 0 1 .293.707v52.07a1 1 0 0 1 -1 1z"/><path d="m12.19 37.47a1 1 0 0 1 -1-1v-2.91a1 1 0 0 1 2 0v2.91a1 1 0 0 1 -1 1z"/><path d="m64.811 19.929h-15.929a1 1 0 0 1 -1-1v-15.929a1 1 0 0 1 2 0v14.929h14.929a1 1 0 0 1 0 2z"/><path d="m56 51.5h-36a1 1 0 0 1 0-2h36a1 1 0 0 1 0 2z"/><path d="m56 40h-36a1 1 0 0 1 0-2h36a1 1 0 0 1 0 2z"/><path d="m56 63h-36a1 1 0 0 1 0-2h36a1 1 0 0 1 0 2z"/><path d="m36.711 26.211a1 1 0 0 1 -.711-1.711l4-4-4-4a1 1 0 0 1 1.414-1.414l4.711 4.711a1 1 0 0 1 0 1.414l-4.711 4.711a1 1 0 0 1 -.703.289z"/><path d="m24.652 26.211a1 1 0 0 1 -.707-.293l-4.711-4.711a1 1 0 0 1 0-1.414l4.711-4.711a1 1 0 0 1 1.414 1.418l-4 4 4 4a1 1 0 0 1 -.707 1.707z"/><path d="m28.547 30a1.025 1.025 0 0 1 -.244-.03 1 1 0 0 1 -.726-1.214l4.27-17a1 1 0 1 1 1.939.488l-4.27 17a1 1 0 0 1 -.969.756z"/></svg>