<svg id="Icons" height="512" viewBox="0 0 74 74" width="512" xmlns="http://www.w3.org/2000/svg"><path d="m45 72h-2.97a1 1 0 0 1 0-2h2.97a1 1 0 0 1 0 2z"/><path d="m69 72h-17a1 1 0 0 1 0-2h17a1 1 0 0 0 1-1v-64a1 1 0 0 0 -1-1h-64a1 1 0 0 0 -1 1v64a1 1 0 0 0 1 1h20.13a1 1 0 0 1 0 2h-20.13a3 3 0 0 1 -3-3v-64a3 3 0 0 1 3-3h64a3 3 0 0 1 3 3v64a3 3 0 0 1 -3 3z"/><path d="m35.03 72h-2.9a1 1 0 1 1 0-2h2.9a1 1 0 0 1 0 2z"/><path d="m71 19h-68a1 1 0 0 1 0-2h68a1 1 0 0 1 0 2z"/><path d="m11.505 13.817a3.317 3.317 0 1 1 3.317-3.317 3.321 3.321 0 0 1 -3.317 3.317zm0-4.634a1.317 1.317 0 1 0 1.317 1.317 1.317 1.317 0 0 0 -1.317-1.317z"/><path d="m21.167 13.817a3.317 3.317 0 1 1 3.317-3.317 3.321 3.321 0 0 1 -3.317 3.317zm0-4.634a1.317 1.317 0 1 0 1.317 1.317 1.317 1.317 0 0 0 -1.317-1.317z"/><path d="m30.828 13.817a3.317 3.317 0 1 1 3.318-3.317 3.321 3.321 0 0 1 -3.318 3.317zm0-4.634a1.317 1.317 0 1 0 1.318 1.317 1.318 1.318 0 0 0 -1.318-1.317z"/><path d="m65 38h-56a1 1 0 0 1 -1-1v-12a1 1 0 0 1 1-1h56a1 1 0 0 1 1 1v12a1 1 0 0 1 -1 1zm-55-2h54v-10h-54z"/><path d="m57.267 33.336a2.946 2.946 0 0 1 -2.083-5.03 2.947 2.947 0 1 1 2.083 5.03zm0-3.892a.942.942 0 0 0 -.669.276.944.944 0 0 0 0 1.338.968.968 0 0 0 1.338 0 .946.946 0 0 0 -.669-1.615z"/><path d="m60.469 34.592a.993.993 0 0 1 -.707-.293l-1.826-1.826a1 1 0 1 1 1.414-1.414l1.826 1.826a1 1 0 0 1 -.707 1.707z"/><path d="m51 38a1 1 0 0 1 -1-1v-12a1 1 0 0 1 2 0v12a1 1 0 0 1 -1 1z"/></svg>