<svg id="Icons" height="512" viewBox="0 0 74 74" width="512" xmlns="http://www.w3.org/2000/svg"><path d="m71 44.07a1 1 0 0 1 -1-1v-2.97a1 1 0 1 1 2 0v2.97a1 1 0 0 1 -1 1z"/><path d="m69 72h-64a3 3 0 0 1 -3-3v-64a3 3 0 0 1 3-3h64a3 3 0 0 1 3 3v28.1a1 1 0 0 1 -2 0v-28.1a1 1 0 0 0 -1-1h-64a1 1 0 0 0 -1 1v64a1 1 0 0 0 1 1h64a1 1 0 0 0 1-1v-9.03a1 1 0 0 1 2 0v9.03a3 3 0 0 1 -3 3z"/><path d="m71 53.97a1 1 0 0 1 -1-1v-2.9a1 1 0 1 1 2 0v2.9a1 1 0 0 1 -1 1z"/><path d="m71 19h-68a1 1 0 0 1 0-2h68a1 1 0 0 1 0 2z"/><path d="m62.5 13.817a3.317 3.317 0 1 1 3.312-3.317 3.321 3.321 0 0 1 -3.312 3.317zm0-4.634a1.317 1.317 0 1 0 1.312 1.317 1.318 1.318 0 0 0 -1.312-1.317z"/><path d="m52.833 13.817a3.317 3.317 0 1 1 3.318-3.317 3.321 3.321 0 0 1 -3.318 3.317zm0-4.634a1.317 1.317 0 1 0 1.318 1.317 1.318 1.318 0 0 0 -1.318-1.317z"/><path d="m43.171 13.817a3.317 3.317 0 1 1 3.318-3.317 3.321 3.321 0 0 1 -3.318 3.317zm0-4.634a1.317 1.317 0 1 0 1.318 1.317 1.318 1.318 0 0 0 -1.318-1.317z"/><path d="m20.2 62a1 1 0 0 1 -1-1l-.01-10.626a12.413 12.413 0 0 1 -3.14-8.074c0-8.437 9.4-15.3 20.95-15.3s20.95 6.863 20.95 15.3-9.398 15.3-20.95 15.3a27.627 27.627 0 0 1 -8.374-1.269l-7.853 5.489a1 1 0 0 1 -.573.18zm16.8-33c-10.449 0-18.95 5.966-18.95 13.3a10.544 10.544 0 0 0 2.886 7.034 1 1 0 0 1 .253.665l.009 9.084 6.693-4.678a1 1 0 0 1 .894-.127 25.522 25.522 0 0 0 8.215 1.322c10.449 0 18.95-5.966 18.95-13.3s-8.501-13.3-18.95-13.3z"/><path d="m46 37.667h-18a1 1 0 0 1 0-2h18a1 1 0 0 1 0 2z"/><path d="m46 43.3h-18a1 1 0 0 1 0-2h18a1 1 0 0 1 0 2z"/><path d="m46 48.933h-18a1 1 0 1 1 0-2h18a1 1 0 0 1 0 2z"/></svg>