<svg id="Icons" height="512" viewBox="0 0 74 74" width="512" xmlns="http://www.w3.org/2000/svg"><path d="m39.64 72h-3.74a1 1 0 0 1 0-2h3.74a1 1 0 0 1 0 2z"/><path d="m69 72h-8.09a1 1 0 0 1 0-2h8.09a1 1 0 0 0 1-1v-64a1 1 0 0 0 -1-1h-64a1 1 0 0 0 -1 1v64a1 1 0 0 0 1 1h22.09a1 1 0 1 1 0 2h-22.09a3 3 0 0 1 -3-3v-64a3 3 0 0 1 3-3h64a3 3 0 0 1 3 3v64a3 3 0 0 1 -3 3z"/><path d="m52.1 72h-3.66a1 1 0 0 1 0-2h3.66a1 1 0 0 1 0 2z"/><path d="m71 19h-68a1 1 0 0 1 0-2h68a1 1 0 0 1 0 2z"/><path d="m64.812 11.5h-24.333a1 1 0 0 1 0-2h24.333a1 1 0 0 1 0 2z"/><path d="m12.822 11.5h-2.634a1 1 0 0 1 0-2h2.634a1 1 0 0 1 0 2z"/><path d="m22.484 11.5h-2.634a1 1 0 0 1 0-2h2.634a1 1 0 0 1 0 2z"/><path d="m32.146 11.5h-2.635a1 1 0 1 1 0-2h2.635a1 1 0 0 1 0 2z"/><path d="m52.43 59h-30.86a1 1 0 0 1 -.829-.44 19.6 19.6 0 1 1 32.518 0 1 1 0 0 1 -.829.44zm-30.319-2h29.778a17.6 17.6 0 1 0 -29.778 0z"/><path d="m37 34.833a1 1 0 0 1 -1-1v-.633a1 1 0 0 1 2 0v.634a1 1 0 0 1 -1 .999z"/><path d="m27.431 38.8a1 1 0 0 1 -.707-.293l-.449-.448a1 1 0 0 1 1.414-1.414l.449.448a1 1 0 0 1 -.707 1.707z"/><path d="m23.467 48.367h-.635a1 1 0 0 1 0-2h.635a1 1 0 1 1 0 2z"/><path d="m51.168 48.367h-.635a1 1 0 0 1 0-2h.635a1 1 0 0 1 0 2z"/><path d="m46.569 38.8a1 1 0 0 1 -.707-1.707l.45-.449a1 1 0 0 1 1.414 1.415l-.45.449a1 1 0 0 1 -.707.292z"/><path d="m42.4 59a1 1 0 0 1 -1-1 4.4 4.4 0 0 0 -8.8 0 1 1 0 0 1 -2 0 6.4 6.4 0 0 1 12.8 0 1 1 0 0 1 -1 1z"/><path d="m37 53.6a.983.983 0 0 1 -.366-.07 1 1 0 0 1 -.565-1.3l3.867-9.81a1 1 0 0 1 1.861.734l-3.866 9.809a1 1 0 0 1 -.931.637z"/></svg>