<svg id="Icons" height="512" viewBox="0 0 74 74" width="512" xmlns="http://www.w3.org/2000/svg"><path d="m45.24 4.5h-2.97a1 1 0 0 1 0-2h2.97a1 1 0 0 1 0 2z"/><path d="m68 57.83h-62a4 4 0 0 1 -4-4v-47.33a4 4 0 0 1 4-4h19.37a1 1 0 0 1 0 2h-19.37a2 2 0 0 0 -2 2v47.33a2 2 0 0 0 2 2h62a2 2 0 0 0 2-2v-47.33a2 2 0 0 0 -2-2h-15.76a1 1 0 0 1 0-2h15.76a4 4 0 0 1 4 4v47.33a4 4 0 0 1 -4 4z"/><path d="m35.27 4.5h-2.9a1 1 0 0 1 0-2h2.9a1 1 0 0 1 0 2z"/><path d="m71 45.5h-68a1 1 0 0 1 0-2h68a1 1 0 0 1 0 2z"/><path d="m55 71.5h-36a1 1 0 0 1 -.924-1.382l5.653-13.674a1 1 0 0 1 .924-.618h24.694a1 1 0 0 1 .924.618l5.653 13.674a1 1 0 0 1 -.924 1.382zm-34.5-2h33l-4.821-11.674h-23.358z"/><path d="m15.031 51.469h-2.312a1 1 0 0 1 0-2h2.312a1 1 0 0 1 0 2z"/><path d="m60.25 71.5h-46.5a1 1 0 0 1 0-2h46.5a1 1 0 0 1 0 2z"/><path d="m41.07 32.972a.993.993 0 0 1 -.707-.293l-5.257-5.256-2.217 2.217a1 1 0 0 1 -1.674-.452l-3.5-13.256a1 1 0 0 1 1.222-1.222l13.256 3.5a1 1 0 0 1 .452 1.674l-2.217 2.217 5.256 5.257a1 1 0 0 1 0 1.414l-3.9 3.9a.993.993 0 0 1 -.714.3zm-5.964-7.963a.993.993 0 0 1 .707.293l5.257 5.256 2.488-2.488-5.258-5.257a1 1 0 0 1 0-1.414l1.7-1.699-9.914-2.621 2.614 9.921 1.7-1.7a.993.993 0 0 1 .706-.291z"/></svg>