<svg id="Icons" height="512" viewBox="0 0 74 74" width="512" xmlns="http://www.w3.org/2000/svg"><path d="m44 4.5h-2.97a1 1 0 0 1 0-2h2.97a1 1 0 0 1 0 2z"/><path d="m68 57.83h-62a4 4 0 0 1 -4-4v-47.33a4 4 0 0 1 4-4h18.13a1 1 0 0 1 0 2h-18.13a2 2 0 0 0 -2 2v47.33a2 2 0 0 0 2 2h62a2 2 0 0 0 2-2v-47.33a2 2 0 0 0 -2-2h-17a1 1 0 0 1 0-2h17a4 4 0 0 1 4 4v47.33a4 4 0 0 1 -4 4z"/><path d="m34.03 4.5h-2.9a1 1 0 1 1 0-2h2.9a1 1 0 0 1 0 2z"/><path d="m71 45.5h-68a1 1 0 0 1 0-2h68a1 1 0 0 1 0 2z"/><path d="m14.031 51.469h-2.312a1 1 0 0 1 0-2h2.312a1 1 0 0 1 0 2z"/><path d="m48.5 71h-23a1 1 0 0 1 -1-1v-13.174a1 1 0 0 1 1-1h23a1 1 0 0 1 1 1v13.174a1 1 0 0 1 -1 1zm-22-2h21v-11.174h-21z"/><path d="m54.5 71h-35a1 1 0 0 1 0-2h35a1 1 0 0 1 0 2z"/><path d="m24.369 37.406a1 1 0 0 1 -1-1l-.008-7.9a9.552 9.552 0 0 1 -2.361-6.16c0-6.48 7.178-11.752 16-11.752s16 5.272 16 11.752-7.178 11.754-16 11.754a21.057 21.057 0 0 1 -6.254-.929l-5.8 4.057a.992.992 0 0 1 -.577.178zm12.631-24.812c-7.72 0-14 4.374-14 9.752a7.685 7.685 0 0 0 2.106 5.123 1 1 0 0 1 .254.665l.007 6.355 4.642-3.245a1 1 0 0 1 .894-.127 18.926 18.926 0 0 0 6.097.983c7.72 0 14-4.375 14-9.752s-6.28-9.754-14-9.754z"/><path d="m37 23.84a1 1 0 0 1 -1-1v-6a1 1 0 0 1 2 0v6a1 1 0 0 1 -1 1z"/><path d="m37 28.32a1 1 0 0 1 -1-1v-.58a1 1 0 1 1 2 0v.58a1 1 0 0 1 -1 1z"/></svg>