<?xml version="1.0" encoding="UTF-8"?>
<svg xmlns="http://www.w3.org/2000/svg" id="Icons" viewBox="0 0 74 74" width="512" height="512"><path d="M71,50.44a1,1,0,0,1-1-1V46.47a1,1,0,0,1,2,0v2.97A1,1,0,0,1,71,50.44Z"/><path d="M69,72H5a3,3,0,0,1-3-3V5A3,3,0,0,1,5,2H69a3,3,0,0,1,3,3V29.56a1,1,0,1,1-2,0V5a1,1,0,0,0-1-1H5A1,1,0,0,0,4,5V69a1,1,0,0,0,1,1H69a1,1,0,0,0,1-1V56.44a1,1,0,0,1,2,0V69A3,3,0,0,1,69,72Z"/><path d="M71,40.47a1,1,0,0,1-1-1V36.56a1,1,0,0,1,2,0v2.91A1,1,0,0,1,71,40.47Z"/><path d="M63.194,65H10.806A1.808,1.808,0,0,1,9,63.194V21.131a1.808,1.808,0,0,1,1.806-1.8H63.194A1.808,1.808,0,0,1,65,21.131V63.194A1.808,1.808,0,0,1,63.194,65ZM11,63H63V21.326H11Z"/><path d="M12.71,14.844a3.522,3.522,0,1,1,3.521-3.522A3.526,3.526,0,0,1,12.71,14.844Zm0-5.044a1.522,1.522,0,1,0,1.521,1.522A1.523,1.523,0,0,0,12.71,9.8Z"/><path d="M23.225,14.844a3.522,3.522,0,1,1,3.521-3.522A3.526,3.526,0,0,1,23.225,14.844Zm0-5.044a1.522,1.522,0,1,0,1.521,1.522A1.524,1.524,0,0,0,23.225,9.8Z"/><path d="M33.739,14.844a3.522,3.522,0,1,1,3.522-3.522A3.526,3.526,0,0,1,33.739,14.844Zm0-5.044a1.522,1.522,0,1,0,1.522,1.522A1.523,1.523,0,0,0,33.739,9.8Z"/><path d="M23.214,43.909a3.869,3.869,0,0,1-.722,2.649,2.759,2.759,0,0,1-2.131.781,2.634,2.634,0,0,1-2-.771,2.822,2.822,0,0,1-.736-2.034v-.271h1.354q0,1.861,1.382,1.861a1.47,1.47,0,0,0,1.118-.41,2.671,2.671,0,0,0,.388-1.736V36.987h1.347Z"/><path d="M20.36,47.464a2.765,2.765,0,0,1-2.089-.809,2.959,2.959,0,0,1-.771-2.121v-.4h1.6v.125c0,1.168.412,1.736,1.256,1.736a1.353,1.353,0,0,0,1.028-.371,2.592,2.592,0,0,0,.354-1.649V36.862h1.6v7.047a4,4,0,0,1-.755,2.734A2.893,2.893,0,0,1,20.36,47.464Zm-2.61-3.076v.146a2.713,2.713,0,0,0,.7,1.948,2.522,2.522,0,0,0,1.908.732,2.656,2.656,0,0,0,2.04-.741,3.777,3.777,0,0,0,.689-2.564v-6.8h-1.1v6.867a2.734,2.734,0,0,1-.423,1.821,1.592,1.592,0,0,1-1.209.449c-.966,0-1.472-.626-1.5-1.861Z"/><path d="M35.036,47.165h-1.52l-1.181-3.1H28.072l-1.125,3.1H25.524l3.909-10.178h1.451ZM31.94,43l-1.792-4.721L28.44,43Z"/><path d="M35.222,47.291H33.43L33.4,47.21l-1.149-3.016H28.16l-1.125,3.1H25.343l4-10.429h1.62l.032.077Zm-1.62-.25h1.249L30.8,37.112H29.52l-3.814,9.929h1.153l1.125-3.1h4.437l.031.08ZM32.12,43.125H28.263l1.883-5.207Zm-3.5-.25h3.141l-1.608-4.237Z"/><path d="M45.6,36.987,41.637,47.165H40.248L36.291,36.987h1.437l3.215,8.727,3.214-8.727Z"/><path d="M41.723,47.291H40.162l-.03-.08L36.108,36.862h1.706l3.128,8.491,3.128-8.491h1.707Zm-1.389-.25h1.217l3.861-9.929H44.244l-3.3,8.964-3.3-8.964H36.474Z"/><path d="M56.375,47.165H54.854l-1.18-3.1H49.411l-1.125,3.1H46.863l3.909-10.178h1.451ZM53.278,43l-1.791-4.721L49.779,43Z"/><path d="M56.561,47.291H54.769l-.032-.081-1.149-3.016H49.5l-1.125,3.1H46.682l4-10.429h1.621l.032.077Zm-1.621-.25h1.249l-4.05-9.929H50.857l-3.812,9.929H48.2l1.125-3.1H53.76l.031.08Zm-1.481-3.916H49.6l1.882-5.207Zm-3.5-.25H53.1L51.49,38.638Z"/></svg>
