<svg id="Icons" height="512" viewBox="0 0 74 74" width="512" xmlns="http://www.w3.org/2000/svg"><path d="m71 47.44a1 1 0 0 1 -1-1v-2.97a1 1 0 0 1 2 0v2.97a1 1 0 0 1 -1 1z"/><path d="m69 72h-64a3 3 0 0 1 -3-3v-64a3 3 0 0 1 3-3h64a3 3 0 0 1 3 3v21.56a1 1 0 1 1 -2 0v-21.56a1 1 0 0 0 -1-1h-64a1 1 0 0 0 -1 1v64a1 1 0 0 0 1 1h64a1 1 0 0 0 1-1v-15.56a1 1 0 0 1 2 0v15.56a3 3 0 0 1 -3 3z"/><path d="m71 37.47a1 1 0 0 1 -1-1v-2.91a1 1 0 0 1 2 0v2.91a1 1 0 0 1 -1 1z"/><path d="m71 19h-68a1 1 0 0 1 0-2h68a1 1 0 0 1 0 2z"/><path d="m62.5 13.815a3.317 3.317 0 1 1 3.312-3.315 3.321 3.321 0 0 1 -3.312 3.315zm0-4.634a1.317 1.317 0 1 0 1.312 1.319 1.318 1.318 0 0 0 -1.312-1.319z"/><path d="m52.833 13.815a3.317 3.317 0 1 1 3.317-3.315 3.321 3.321 0 0 1 -3.317 3.315zm0-4.634a1.317 1.317 0 1 0 1.317 1.319 1.317 1.317 0 0 0 -1.317-1.319z"/><path d="m43.172 13.815a3.317 3.317 0 1 1 3.317-3.315 3.322 3.322 0 0 1 -3.317 3.315zm0-4.634a1.317 1.317 0 1 0 1.317 1.319 1.318 1.318 0 0 0 -1.317-1.319z"/><path d="m65 72a1 1 0 0 1 -1-1v-3.531l-4.444-.557a1 1 0 0 1 -.848-.755 20.744 20.744 0 0 0 -2.341-5.686 1 1 0 0 1 .07-1.124l2.733-3.523-4.993-4.994-3.524 2.733a1 1 0 0 1 -1.124.07 20.739 20.739 0 0 0 -5.686-2.341 1 1 0 0 1 -.755-.848l-.556-4.444h-7.064l-.556 4.444a1 1 0 0 1 -.755.848 20.739 20.739 0 0 0 -5.686 2.341 1 1 0 0 1 -1.124-.07l-3.524-2.732-4.993 4.993 2.733 3.523a1 1 0 0 1 .07 1.124 20.744 20.744 0 0 0 -2.341 5.686 1 1 0 0 1 -.848.755l-4.444.556v3.532a1 1 0 0 1 -2 0v-3.667a1.85 1.85 0 0 1 1.6-1.833l3.919-.489a22.792 22.792 0 0 1 2.049-4.969l-2.4-3.1a1.837 1.837 0 0 1 .149-2.44l5.187-5.186a1.839 1.839 0 0 1 2.452-.141l3.085 2.393a22.812 22.812 0 0 1 4.969-2.049l.489-3.914a1.85 1.85 0 0 1 1.834-1.605h7.334a1.848 1.848 0 0 1 1.833 1.6l.49 3.919a22.812 22.812 0 0 1 4.969 2.049l3.1-2.4a1.832 1.832 0 0 1 2.44.15l5.187 5.186a1.841 1.841 0 0 1 .14 2.452l-2.393 3.085a22.792 22.792 0 0 1 2.049 4.969l3.9.489a1.852 1.852 0 0 1 1.618 1.834v3.667a1 1 0 0 1 -1 1z"/><path d="m51.293 72a1 1 0 0 1 -1-1 11.3 11.3 0 1 0 -22.586 0 1 1 0 0 1 -2 0 13.3 13.3 0 1 1 26.586 0 1 1 0 0 1 -1 1z"/></svg>