<svg id="Icons" height="512" viewBox="0 0 74 74" width="512" xmlns="http://www.w3.org/2000/svg"><path d="m71 38.56a1 1 0 0 1 -1-1v-3.65a1 1 0 0 1 2 0v3.65a1 1 0 0 1 -1 1z"/><path d="m69 72.01h-64a3 3 0 0 1 -3-3v-64a3 3 0 0 1 3-3h64a3 3 0 0 1 3 3v20.09a1 1 0 0 1 -2 0v-20.09a1 1 0 0 0 -1-1h-64a1 1 0 0 0 -1 1v64a1 1 0 0 0 1 1h64a1 1 0 0 0 1-1v-10.1a1 1 0 0 1 2 0v10.1a3 3 0 0 1 -3 3z"/><path d="m71 51.11a1 1 0 0 1 -1-1v-3.74a1 1 0 0 1 2 0v3.74a1 1 0 0 1 -1 1z"/><path d="m71 19.008h-68a1 1 0 0 1 0-2h68a1 1 0 0 1 0 2z"/><path d="m11.125 13.924a3.416 3.416 0 1 1 3.416-3.416 3.42 3.42 0 0 1 -3.416 3.416zm0-4.832a1.416 1.416 0 1 0 1.416 1.416 1.418 1.418 0 0 0 -1.416-1.416z"/><path d="m21.2 13.924a3.416 3.416 0 1 1 3.416-3.416 3.419 3.419 0 0 1 -3.416 3.416zm0-4.832a1.416 1.416 0 1 0 1.416 1.416 1.417 1.417 0 0 0 -1.416-1.416z"/><path d="m31.271 13.924a3.416 3.416 0 1 1 3.417-3.416 3.42 3.42 0 0 1 -3.417 3.416zm0-4.832a1.416 1.416 0 1 0 1.417 1.416 1.417 1.417 0 0 0 -1.417-1.416z"/><path d="m36.951 51.732c-3.962 0-7.066-6.136-7.066-13.97s3.1-13.97 7.066-13.97 7.067 6.136 7.067 13.97-3.104 13.97-7.067 13.97zm0-25.94c-2.4 0-5.066 4.916-5.066 11.97s2.67 11.97 5.066 11.97 5.067-4.916 5.067-11.97-2.67-11.97-5.067-11.97z"/><path d="m36.951 51.732a1 1 0 0 1 -1-1v-25.94a1 1 0 0 1 2 0v25.94a1 1 0 0 1 -1 1z"/><path d="m36.951 51.732a1 1 0 0 1 -1-1v-25.94a1 1 0 0 1 2 0v25.94a1 1 0 0 1 -1 1z"/><path d="m49.921 38.762h-25.94a1 1 0 0 1 0-2h25.94a1 1 0 0 1 0 2z"/><path d="m36.951 51.732a13.97 13.97 0 1 1 13.97-13.97 13.986 13.986 0 0 1 -13.97 13.97zm0-25.94a11.97 11.97 0 1 0 11.97 11.97 11.983 11.983 0 0 0 -11.97-11.97z"/><path d="m48.006 31.984h-22.106a1 1 0 0 1 0-2h22.106a1 1 0 0 1 0 2z"/><path d="m48.006 45.543h-22.106a1 1 0 0 1 0-2h22.106a1 1 0 0 1 0 2z"/><path d="m61.514 57.458h-49.125a1 1 0 1 1 0-2h49.125a1 1 0 1 1 0 2z"/><path d="m61.514 64.754h-49.125a1 1 0 1 1 0-2h49.125a1 1 0 0 1 0 2z"/></svg>