<svg id="Icons" height="512" viewBox="0 0 74 74" width="512" xmlns="http://www.w3.org/2000/svg"><path d="m49.34 72.01h-3.73a1 1 0 0 1 0-2h3.73a1 1 0 0 1 0 2z"/><path d="m69 72.01h-10.85a1 1 0 1 1 0-2h10.85a1 1 0 0 0 1-1v-64a1 1 0 0 0 -1-1h-64a1 1 0 0 0 -1 1v64a1 1 0 0 0 1 1h19.34a1 1 0 1 1 0 2h-19.34a3 3 0 0 1 -3-3v-64a3 3 0 0 1 3-3h64a3 3 0 0 1 3 3v64a3 3 0 0 1 -3 3z"/><path d="m36.8 72.01h-3.66a1 1 0 0 1 0-2h3.66a1 1 0 0 1 0 2z"/><path d="m71 19.008h-68a1 1 0 0 1 0-2h68a1 1 0 0 1 0 2z"/><path d="m62.5 13.825a3.318 3.318 0 1 1 3.317-3.317 3.321 3.321 0 0 1 -3.317 3.317zm0-4.635a1.318 1.318 0 1 0 1.317 1.318 1.319 1.319 0 0 0 -1.317-1.318z"/><path d="m52.833 13.825a3.318 3.318 0 1 1 3.317-3.317 3.321 3.321 0 0 1 -3.317 3.317zm0-4.635a1.318 1.318 0 1 0 1.317 1.318 1.318 1.318 0 0 0 -1.317-1.318z"/><path d="m43.172 13.825a3.318 3.318 0 1 1 3.317-3.317 3.322 3.322 0 0 1 -3.317 3.317zm0-4.635a1.318 1.318 0 1 0 1.317 1.318 1.319 1.319 0 0 0 -1.317-1.318z"/><path d="m33.521 11.508h-24.333a1 1 0 1 1 0-2h24.333a1 1 0 0 1 0 2z"/><path d="m37.25 39.947h-28a1 1 0 0 1 -1-1v-11.447a1 1 0 0 1 1-1h28a1 1 0 0 1 1 1v11.447a1 1 0 0 1 -1 1zm-27-2h26v-9.447h-26z"/><path d="m64.75 39.947h-19.5a1 1 0 0 1 -1-1v-11.447a1 1 0 0 1 1-1h19.5a1 1 0 0 1 1 1v11.447a1 1 0 0 1 -1 1zm-18.5-2h17.5v-9.447h-17.5z"/><path d="m37.25 47.173h-28a1 1 0 0 1 0-2h28a1 1 0 0 1 0 2z"/><path d="m63.5 47.173h-16.5a1 1 0 0 1 0-2h16.5a1 1 0 0 1 0 2z"/><path d="m37.25 54.845h-28a1 1 0 0 1 0-2h28a1 1 0 0 1 0 2z"/><path d="m63.5 54.845h-16.5a1 1 0 0 1 0-2h16.5a1 1 0 0 1 0 2z"/><path d="m37.25 62.516h-28a1 1 0 1 1 0-2h28a1 1 0 0 1 0 2z"/><path d="m63.5 62.516h-16.5a1 1 0 0 1 0-2h16.5a1 1 0 0 1 0 2z"/></svg>