<svg id="Icons" height="512" viewBox="0 0 74 74" width="512" xmlns="http://www.w3.org/2000/svg"><path d="m71 42.64a1 1 0 0 1 -1-1v-3.74a1 1 0 0 1 2 0v3.74a1 1 0 0 1 -1 1z"/><path d="m69 72h-64a3 3 0 0 1 -3-3v-64a3 3 0 0 1 3-3h64a3 3 0 0 1 3 3v24.09a1 1 0 1 1 -2 0v-24.09a1 1 0 0 0 -1-1h-64a1 1 0 0 0 -1 1v64a1 1 0 0 0 1 1h64a1 1 0 0 0 1-1v-6.09a1 1 0 0 1 2 0v6.09a3 3 0 0 1 -3 3z"/><path d="m71 55.1a1 1 0 0 1 -1-1v-3.66a1 1 0 0 1 2 0v3.66a1 1 0 0 1 -1 1z"/><path d="m71 19h-68a1 1 0 0 1 0-2h68a1 1 0 0 1 0 2z"/><path d="m64.812 11.5h-24.333a1 1 0 0 1 0-2h24.333a1 1 0 0 1 0 2z"/><path d="m12.822 11.5h-2.634a1 1 0 0 1 0-2h2.634a1 1 0 0 1 0 2z"/><path d="m22.483 11.5h-2.634a1 1 0 0 1 0-2h2.634a1 1 0 1 1 0 2z"/><path d="m32.146 11.5h-2.635a1 1 0 1 1 0-2h2.635a1 1 0 0 1 0 2z"/><path d="m37 52.75a14 14 0 1 1 14-14 14.015 14.015 0 0 1 -14 14zm0-26a12 12 0 1 0 12 12 12.013 12.013 0 0 0 -12-12z"/><path d="m33.13 45.326a1 1 0 0 1 -.985-1.169l.65-3.79-2.755-2.685a1 1 0 0 1 .555-1.706l3.805-.553 1.7-3.449a1 1 0 0 1 .9-.557 1 1 0 0 1 .9.557l1.7 3.449 3.805.553a1 1 0 0 1 .555 1.706l-2.76 2.685.65 3.79a1 1 0 0 1 -1.45 1.054l-3.4-1.789-3.4 1.789a1 1 0 0 1 -.47.115zm-.243-7.662 1.68 1.637a1 1 0 0 1 .287.886l-.4 2.312 2.077-1.092a1 1 0 0 1 .931 0l2.079 1.093-.4-2.311a1 1 0 0 1 .287-.886l1.68-1.637-2.321-.337a1 1 0 0 1 -.753-.548l-1.034-2.105-1.039 2.1a1 1 0 0 1 -.753.547z"/><path d="m32 64.25a1 1 0 0 1 -.936-.654l-1.688-4.572-4.276 2.343a1 1 0 0 1 -1.417-1.226l4.31-11.551a1 1 0 1 1 1.873.7l-3.366 9.031 2.933-1.608a1 1 0 0 1 1.419.531l1.156 3.132 3.358-9a1 1 0 1 1 1.873.7l-4.3 11.52a1 1 0 0 1 -.939.654z"/><path d="m42 64.25a1 1 0 0 1 -.937-.65l-4.3-11.52a1 1 0 1 1 1.873-.7l3.359 9 1.156-3.133a1 1 0 0 1 1.419-.531l2.93 1.605-3.37-9.031a1 1 0 1 1 1.873-.7l4.31 11.551a1 1 0 0 1 -1.413 1.226l-4.273-2.343-1.689 4.576a1 1 0 0 1 -.938.65z"/></svg>