<svg id="Icons" height="512" viewBox="0 0 74 74" width="512" xmlns="http://www.w3.org/2000/svg"><path d="m71 41.64a1 1 0 0 1 -1-1v-3.74a1 1 0 0 1 2 0v3.74a1 1 0 0 1 -1 1z"/><path d="m69 72h-64a3 3 0 0 1 -3-3v-64a3 3 0 0 1 3-3h64a3 3 0 0 1 3 3v23.09a1 1 0 1 1 -2 0v-23.09a1 1 0 0 0 -1-1h-64a1 1 0 0 0 -1 1v64a1 1 0 0 0 1 1h64a1 1 0 0 0 1-1v-7.09a1 1 0 0 1 2 0v7.09a3 3 0 0 1 -3 3z"/><path d="m71 54.1a1 1 0 0 1 -1-1v-3.66a1 1 0 0 1 2 0v3.66a1 1 0 0 1 -1 1z"/><path d="m71 19h-68a1 1 0 0 1 0-2h68a1 1 0 0 1 0 2z"/><path d="m62.5 13.817a3.317 3.317 0 1 1 3.312-3.317 3.321 3.321 0 0 1 -3.312 3.317zm0-4.634a1.317 1.317 0 1 0 1.312 1.317 1.318 1.318 0 0 0 -1.312-1.317z"/><path d="m52.833 13.817a3.317 3.317 0 1 1 3.318-3.317 3.321 3.321 0 0 1 -3.318 3.317zm0-4.634a1.317 1.317 0 1 0 1.318 1.317 1.318 1.318 0 0 0 -1.318-1.317z"/><path d="m43.171 13.817a3.317 3.317 0 1 1 3.318-3.317 3.321 3.321 0 0 1 -3.318 3.317zm0-4.634a1.317 1.317 0 1 0 1.318 1.317 1.318 1.318 0 0 0 -1.318-1.317z"/><path d="m33.521 11.5h-24.333a1 1 0 0 1 0-2h24.333a1 1 0 0 1 0 2z"/><path d="m56.5 63.5a1 1 0 0 1 -1-1v-25.46a1 1 0 1 1 2 0v25.46a1 1 0 0 1 -1 1z"/><path d="m56.5 33.08a1 1 0 0 1 -1-1v-5.58a1 1 0 0 1 2 0v5.58a1 1 0 0 1 -1 1z"/><path d="m43.5 63.5a1 1 0 0 1 -1-1v-5.58a1 1 0 0 1 2 0v5.58a1 1 0 0 1 -1 1z"/><path d="m43.5 52.96a1 1 0 0 1 -1-1v-25.46a1 1 0 0 1 2 0v25.46a1 1 0 0 1 -1 1z"/><path d="m30.5 63.5a1 1 0 0 1 -1-1v-25.46a1 1 0 1 1 2 0v25.46a1 1 0 0 1 -1 1z"/><path d="m30.5 33.08a1 1 0 0 1 -1-1v-5.58a1 1 0 0 1 2 0v5.58a1 1 0 0 1 -1 1z"/><path d="m17.5 63.5a1 1 0 0 1 -1-1v-5.58a1 1 0 0 1 2 0v5.58a1 1 0 0 1 -1 1z"/><path d="m17.5 52.96a1 1 0 0 1 -1-1v-25.46a1 1 0 0 1 2 0v25.46a1 1 0 0 1 -1 1z"/><path d="m58.677 38.038h-4.354a3.479 3.479 0 0 1 0-6.958h4.354a3.479 3.479 0 0 1 0 6.958zm-4.354-4.958a1.479 1.479 0 0 0 0 2.958h4.354a1.479 1.479 0 0 0 0-2.958z"/><path d="m45.677 57.92h-4.354a3.479 3.479 0 0 1 0-6.958h4.354a3.479 3.479 0 0 1 0 6.958zm-4.354-4.958a1.479 1.479 0 0 0 0 2.958h4.354a1.479 1.479 0 0 0 0-2.958z"/><path d="m32.677 38.038h-4.354a3.479 3.479 0 0 1 0-6.958h4.354a3.479 3.479 0 0 1 0 6.958zm-4.354-4.958a1.479 1.479 0 0 0 0 2.958h4.354a1.479 1.479 0 0 0 0-2.958z"/><path d="m19.677 57.92h-4.354a3.479 3.479 0 0 1 0-6.958h4.354a3.479 3.479 0 0 1 0 6.958zm-4.354-4.958a1.479 1.479 0 0 0 0 2.958h4.354a1.479 1.479 0 0 0 0-2.958z"/></svg>