<svg id="Icons" height="512" viewBox="0 0 74 74" width="512" xmlns="http://www.w3.org/2000/svg"><path d="m46.64 56.75h-19.28a1 1 0 0 1 -1-1v-1.03c0-4.684-.926-5.689-2.771-7.691a30.867 30.867 0 0 1 -3.692-4.7 20.258 20.258 0 0 1 29.603-26.814 1 1 0 1 1 -1.24 1.569 18.15 18.15 0 0 0 -13.35-3.784 18.46 18.46 0 0 0 -16.123 16.7 18.125 18.125 0 0 0 2.8 11.253 29.068 29.068 0 0 0 3.477 4.423c1.987 2.157 3.3 3.581 3.3 9.046v.03h17.288c.134-5.133 1.333-6.567 3.41-9.05a45.49 45.49 0 0 0 3.128-4.1 18.149 18.149 0 0 0 3.08-10.038.96.96 0 0 1 1-1 1 1 0 0 1 1 1 20.149 20.149 0 0 1 -3.419 11.142 47.086 47.086 0 0 1 -3.251 4.277c-2.091 2.5-2.956 3.534-2.956 8.747a1.018 1.018 0 0 1 -1.004 1.02z"/><path d="m54.99 25.561a1 1 0 0 1 -.938-.654 15.824 15.824 0 0 0 -1.176-2.483 1 1 0 0 1 1.724-1.008 17.866 17.866 0 0 1 1.324 2.8 1 1 0 0 1 -.938 1.348z"/><path d="m48.784 62.71h-23.568a1.764 1.764 0 0 1 -1.762-1.762v-4.433a1.763 1.763 0 0 1 1.762-1.762h23.568a1.763 1.763 0 0 1 1.762 1.762v4.433a1.764 1.764 0 0 1 -1.762 1.762zm-23.33-2h23.092v-3.957h-23.092z"/><path d="m41.868 72h-9.736a3.52 3.52 0 0 1 -3.516-3.516v-6.774a1 1 0 0 1 1-1h14.768a1 1 0 0 1 1 1v6.774a3.52 3.52 0 0 1 -3.516 3.516zm-11.252-9.29v5.774a1.518 1.518 0 0 0 1.516 1.516h9.736a1.518 1.518 0 0 0 1.516-1.516v-5.774z"/><path d="m48.679 67.358h-4.3a1 1 0 0 1 0-2h4.3a1 1 0 0 1 0 2z"/><path d="m29.619 67.358h-4.3a1 1 0 1 1 0-2h4.3a1 1 0 0 1 0 2z"/><path d="m43.151 36.1a1 1 0 0 1 -.707-1.707l3.178-3.178-3.178-3.177a1 1 0 1 1 1.414-1.414l3.885 3.884a1 1 0 0 1 0 1.414l-3.885 3.885a1 1 0 0 1 -.707.293z"/><path d="m30.849 36.1a1 1 0 0 1 -.707-.293l-3.885-3.885a1 1 0 0 1 0-1.414l3.885-3.884a1 1 0 0 1 1.414 1.414l-3.178 3.177 3.178 3.178a1 1 0 0 1 -.707 1.707z"/><path d="m33.634 41.282a1 1 0 0 1 -.959-1.288l5.439-18.13a1 1 0 0 1 1.916.574l-5.439 18.13a1 1 0 0 1 -.957.714z"/><path d="m37 6.535a1 1 0 0 1 -1-1v-2.535a1 1 0 0 1 2 0v2.535a1 1 0 0 1 -1 1z"/><path d="m14.79 15.314a.993.993 0 0 1 -.707-.293l-1.792-1.792a1 1 0 0 1 1.414-1.414l1.795 1.792a1 1 0 0 1 -.707 1.707z"/><path d="m9.052 37.525h-2.535a1 1 0 0 1 0-2h2.535a1 1 0 0 1 0 2z"/><path d="m67.483 37.525h-2.535a1 1 0 1 1 0-2h2.535a1 1 0 0 1 0 2z"/><path d="m59.21 15.314a1 1 0 0 1 -.707-1.707l1.797-1.792a1 1 0 1 1 1.414 1.414l-1.792 1.792a.993.993 0 0 1 -.712.293z"/></svg>