<svg id="Icons" height="512" viewBox="0 0 74 74" width="512" xmlns="http://www.w3.org/2000/svg"><path d="m47 72h-2.97a1 1 0 0 1 0-2h2.97a1 1 0 0 1 0 2z"/><path d="m69 72h-15a1 1 0 0 1 0-2h15a1 1 0 0 0 1-1v-64a1 1 0 0 0 -1-1h-64a1 1 0 0 0 -1 1v64a1 1 0 0 0 1 1h22.13a1 1 0 0 1 0 2h-22.13a3 3 0 0 1 -3-3v-64a3 3 0 0 1 3-3h64a3 3 0 0 1 3 3v64a3 3 0 0 1 -3 3z"/><path d="m37.03 72h-2.9a1 1 0 1 1 0-2h2.9a1 1 0 0 1 0 2z"/><path d="m71 19h-68a1 1 0 0 1 0-2h68a1 1 0 0 1 0 2z"/><path d="m62.5 13.817a3.317 3.317 0 1 1 3.312-3.317 3.321 3.321 0 0 1 -3.312 3.317zm0-4.634a1.317 1.317 0 1 0 1.312 1.317 1.318 1.318 0 0 0 -1.312-1.317z"/><path d="m52.833 13.817a3.317 3.317 0 1 1 3.317-3.317 3.321 3.321 0 0 1 -3.317 3.317zm0-4.634a1.317 1.317 0 1 0 1.317 1.317 1.317 1.317 0 0 0 -1.317-1.317z"/><path d="m43.171 13.817a3.317 3.317 0 1 1 3.317-3.317 3.321 3.321 0 0 1 -3.317 3.317zm0-4.634a1.317 1.317 0 1 0 1.317 1.317 1.317 1.317 0 0 0 -1.317-1.317z"/><path d="m33.521 11.5h-24.333a1 1 0 0 1 0-2h24.333a1 1 0 0 1 0 2z"/><path d="m54.5 58.638h-35a3.925 3.925 0 0 1 -3.92-3.92v-20.436a3.925 3.925 0 0 1 3.92-3.92h35a3.925 3.925 0 0 1 3.92 3.92v20.436a3.925 3.925 0 0 1 -3.92 3.92zm-35-26.276a1.922 1.922 0 0 0 -1.92 1.92v20.436a1.922 1.922 0 0 0 1.92 1.92h35a1.922 1.922 0 0 0 1.92-1.92v-20.436a1.922 1.922 0 0 0 -1.92-1.92z"/><path d="m33.181 51.706a2.614 2.614 0 0 1 -1.29-.344 2.588 2.588 0 0 1 -1.329-2.278v-9.168a2.617 2.617 0 0 1 3.964-2.244l7.641 4.583a2.618 2.618 0 0 1 0 4.49l-7.641 4.583a2.606 2.606 0 0 1 -1.345.378zm0-12.41a.631.631 0 0 0 -.308.083.6.6 0 0 0 -.314.537v9.168a.618.618 0 0 0 .935.529l7.641-4.583a.618.618 0 0 0 0-1.06l-7.635-4.583a.6.6 0 0 0 -.316-.087z"/></svg>