<?xml version="1.0" encoding="UTF-8"?>
<svg xmlns="http://www.w3.org/2000/svg" id="Icons" viewBox="0 0 74 74" width="512" height="512"><path d="M71,45.45a1,1,0,0,1-1-1V41.48a1,1,0,1,1,2,0v2.97A1,1,0,0,1,71,45.45Z"/><path d="M69,72H5a3,3,0,0,1-3-3V5A3,3,0,0,1,5,2H69a3,3,0,0,1,3,3V34.48a1,1,0,0,1-2,0V5a1,1,0,0,0-1-1H5A1,1,0,0,0,4,5V69a1,1,0,0,0,1,1H69a1,1,0,0,0,1-1V61.35a1,1,0,1,1,2,0V69A3,3,0,0,1,69,72Z"/><path d="M71,55.35a1,1,0,0,1-1-1v-2.9a1,1,0,0,1,2,0v2.9A1,1,0,0,1,71,55.35Z"/><path d="M71,19H3a1,1,0,0,1,0-2H71a1,1,0,0,1,0,2Z"/><path d="M62.5,13.817A3.317,3.317,0,1,1,65.812,10.5,3.321,3.321,0,0,1,62.5,13.817Zm0-4.634A1.317,1.317,0,1,0,63.812,10.5,1.318,1.318,0,0,0,62.5,9.183Z"/><path d="M52.833,13.817A3.317,3.317,0,1,1,56.151,10.5,3.321,3.321,0,0,1,52.833,13.817Zm0-4.634A1.317,1.317,0,1,0,54.151,10.5,1.318,1.318,0,0,0,52.833,9.183Z"/><path d="M43.171,13.817A3.317,3.317,0,1,1,46.489,10.5,3.321,3.321,0,0,1,43.171,13.817Zm0-4.634A1.317,1.317,0,1,0,44.489,10.5,1.318,1.318,0,0,0,43.171,9.183Z"/><path d="M33.521,11.5H9.188a1,1,0,0,1,0-2H33.521a1,1,0,0,1,0,2Z"/><path d="M37,64A19.5,19.5,0,1,1,56.5,44.5,19.523,19.523,0,0,1,37,64Zm0-37A17.5,17.5,0,1,0,54.5,44.5,17.521,17.521,0,0,0,37,27Z"/><path d="M37,59.15A14.65,14.65,0,1,1,51.65,44.5,14.667,14.667,0,0,1,37,59.15Zm0-27.3A12.65,12.65,0,1,0,49.65,44.5,12.663,12.663,0,0,0,37,31.85Z"/><path d="M37,45.5a4.357,4.357,0,1,1,4.612-4.35,1,1,0,0,1-2,0A2.627,2.627,0,1,0,37,43.5a1,1,0,0,1,0,2Z"/><path d="M37,52.2a4.492,4.492,0,0,1-4.612-4.35,1,1,0,0,1,2,0A2.627,2.627,0,1,0,37,45.5a1,1,0,0,1,0-2,4.357,4.357,0,1,1,0,8.7Z"/><path d="M37,53.779a1,1,0,0,1-1-1V51.2a1,1,0,1,1,2,0v1.584A1,1,0,0,1,37,53.779Z"/><path d="M37,38.805a1,1,0,0,1-1-1V36.221a1,1,0,0,1,2,0v1.584A1,1,0,0,1,37,38.805Z"/></svg>
