<svg id="Icons" height="512" viewBox="0 0 74 74" width="512" xmlns="http://www.w3.org/2000/svg"><path d="m36.994 69.3a32.3 32.3 0 0 1 -25.91-51.564 1 1 0 0 1 1.605 1.193 30.3 30.3 0 0 0 34.365 46.651 1 1 0 0 1 .662 1.887 32.376 32.376 0 0 1 -10.722 1.833z"/><path d="m62.951 20.5a1 1 0 0 1 -.831-.443c-.511-.761-1.091-1.54-1.724-2.314a1 1 0 1 1 1.548-1.266c.673.823 1.291 1.652 1.836 2.466a1 1 0 0 1 -.829 1.557z"/><path d="m46.89 8.3a1 1 0 0 1 -.316-.051 30.292 30.292 0 0 0 -17.232-.561 1 1 0 1 1 -.5-1.936 32.269 32.269 0 0 1 18.367.6 1 1 0 0 1 -.319 1.948z"/><path d="m56.1 13.236a.967.967 0 0 1 -.607-.215c-.159-.126-.287-.229-.416-.323-.636-.47-1.281-.91-1.921-1.311a1 1 0 1 1 1.063-1.694c.682.428 1.369.9 2.042 1.392.148.108.3.229.451.35a1.018 1.018 0 0 1 .172 1.418 1 1 0 0 1 -.784.383z"/><path d="m62.11 56.665a1 1 0 0 1 -1-.995 1.01 1.01 0 0 1 .258-.67 30.209 30.209 0 0 0 3.986-28.674 1 1 0 1 1 1.873-.7 32.2 32.2 0 0 1 -4.3 30.637 1.023 1.023 0 0 1 -.813.409z"/><path d="m62.114 56.656a1 1 0 0 1 -.975-.779l-2.017-8.885a1 1 0 1 1 1.951-.443l1.8 7.91 7.91-1.8a1 1 0 1 1 .444 1.95l-8.886 2.017a.981.981 0 0 1 -.227.03z"/><path d="m13.9 28.229a1 1 0 0 1 -.974-.778l-1.795-7.91-7.91 1.795a1 1 0 1 1 -.444-1.95l8.886-2.017a1 1 0 0 1 1.2.754l2.017 8.885a1 1 0 0 1 -.977 1.221z"/><path d="m50.875 52.5h-27.75a2.629 2.629 0 0 1 -2.625-2.625v-26.75a2.629 2.629 0 0 1 2.625-2.625h27.75a2.629 2.629 0 0 1 2.625 2.625v26.75a2.629 2.629 0 0 1 -2.625 2.625zm-27.75-30a.625.625 0 0 0 -.625.625v26.75a.625.625 0 0 0 .625.625h27.75a.625.625 0 0 0 .625-.625v-26.75a.625.625 0 0 0 -.625-.625z"/><path d="m52.5 30.62h-31a1 1 0 0 1 0-2h31a1 1 0 0 1 0 2z"/><path d="m26.513 27h-.513a1 1 0 0 1 0-2h.513a1 1 0 1 1 0 2z"/><path d="m31.068 27h-.511a1 1 0 0 1 0-2h.511a1 1 0 0 1 0 2z"/><path d="m35.625 27h-.513a1 1 0 0 1 0-2h.513a1 1 0 0 1 0 2z"/></svg>