<?xml version="1.0" encoding="UTF-8"?>
<svg xmlns="http://www.w3.org/2000/svg" id="Icons" viewBox="0 0 74 74" width="512" height="512"><path d="M25.05,69.82a1.008,1.008,0,0,1-.352-.064,29.842,29.842,0,0,1-2.815-1.221,1,1,0,0,1,.894-1.789A28.181,28.181,0,0,0,25.4,67.884a1,1,0,0,1-.351,1.936Z"/><path d="M37,72c-.676,0-1.353-.019-2.036-.058-1.045-.06-2.12-.17-3.2-.329a1,1,0,1,1,.291-1.978c1.019.15,2.036.254,3.02.31A32.95,32.95,0,0,0,69.694,41.5H36A3.5,3.5,0,0,1,32.5,38V4.306A32.953,32.953,0,0,0,4.058,38.923a32.522,32.522,0,0,0,5.715,16.65,1,1,0,1,1-1.646,1.135A34.51,34.51,0,0,1,2.062,39.035,34.947,34.947,0,0,1,33.4,2.186a1,1,0,0,1,1.1.994V38A1.5,1.5,0,0,0,36,39.5H70.82a1,1,0,0,1,1,1.1A34.941,34.941,0,0,1,37,72Z"/><path d="M16.309,64.92a1,1,0,0,1-.606-.2c-.8-.608-1.6-1.28-2.38-2a1,1,0,1,1,1.354-1.472c.736.676,1.49,1.309,2.239,1.881a1,1,0,0,1-.607,1.8Z"/><path d="M70.82,34.5H40.5a1,1,0,0,1-1-1V3.18a1,1,0,0,1,1.1-.994A35.067,35.067,0,0,1,71.815,33.4a1,1,0,0,1-1,1.1Zm-29.32-2H69.694A33.08,33.08,0,0,0,41.5,4.306Z"/></svg>
