<svg id="Icons" height="512" viewBox="0 0 74 74" width="512" xmlns="http://www.w3.org/2000/svg"><path d="m20.55 45.31h-6.51a12.035 12.035 0 0 1 -.583-24.056 11.392 11.392 0 0 1 12.68-7.646 18.044 18.044 0 0 1 9.036-9 1 1 0 0 1 .814 1.828 16 16 0 0 0 -8.317 8.683 1.007 1.007 0 0 1 -1.161.606 9.658 9.658 0 0 0 -2.249-.273 9.369 9.369 0 0 0 -9.081 7.039 1 1 0 0 1 -.969.751h-.17a10.035 10.035 0 1 0 0 20.07h6.51a1 1 0 0 1 0 2z"/><path d="m55.5 11.245a1 1 0 0 1 -.834-.446 16.14 16.14 0 0 0 -2-2.016 1 1 0 0 1 1.294-1.526 18.084 18.084 0 0 1 2.318 2.351 1 1 0 0 1 -.775 1.637z"/><path d="m59.96 45.31h-7.09a1 1 0 0 1 0-2h7.09a10.035 10.035 0 1 0 0-20.07h-.71a1 1 0 0 1 -1-1.067l.021-.292c.023-.315.047-.624.047-.951a15.634 15.634 0 0 0 -.169-2.314 1 1 0 0 1 .989-1.151 1 1 0 0 1 1 .905 17.594 17.594 0 0 1 .184 2.56c0 .107 0 .212-.006.316a12.035 12.035 0 0 1 -.356 24.064z"/><path d="m47.13 5.73a1 1 0 0 1 -.289-.043 14.577 14.577 0 0 0 -2.77-.542 1 1 0 1 1 .2-1.99 16.543 16.543 0 0 1 3.15.618 1 1 0 0 1 -.291 1.957z"/><path d="m52.866 70.942h-32.32a1 1 0 0 1 -1-1v-39.512a1 1 0 0 1 1-1h22.483a1 1 0 0 1 .707.293l9.837 9.837a1 1 0 0 1 .293.707v29.675a1 1 0 0 1 -1 1zm-31.32-2h30.32v-28.261l-9.251-9.251h-21.069z"/><path d="m52.866 41.267h-9.837a1 1 0 0 1 -1-1v-9.837a1 1 0 0 1 2 0v8.837h8.837a1 1 0 0 1 0 2z"/><path d="m46.671 62.645h-19.93a1 1 0 1 1 0-2h19.93a1 1 0 0 1 0 2z"/><path d="m46.671 55.593h-19.93a1 1 0 0 1 0-2h19.93a1 1 0 1 1 0 2z"/><path d="m46.671 48.542h-19.93a1 1 0 0 1 0-2h19.93a1 1 0 0 1 0 2z"/></svg>