<svg id="Icons" height="512" viewBox="0 0 74 74" width="512" xmlns="http://www.w3.org/2000/svg"><path d="m71 44.63a1 1 0 0 1 -1-1v-2.97a1 1 0 0 1 2 0v2.97a1 1 0 0 1 -1 1z"/><path d="m69 72h-64a3 3 0 0 1 -3-3v-64a3 3 0 0 1 3-3h64a3 3 0 0 1 3 3v28.66a1 1 0 0 1 -2 0v-28.66a1 1 0 0 0 -1-1h-64a1 1 0 0 0 -1 1v64a1 1 0 0 0 1 1h64a1 1 0 0 0 1-1v-8.46a1 1 0 1 1 2 0v8.46a3 3 0 0 1 -3 3z"/><path d="m71 54.54a1 1 0 0 1 -1-1v-2.91a1 1 0 1 1 2 0v2.91a1 1 0 0 1 -1 1z"/><path d="m71 19h-68a1 1 0 0 1 0-2h68a1 1 0 0 1 0 2z"/><path d="m63.417 11.5h-2.54a1 1 0 0 1 0-2h2.54a1 1 0 0 1 0 2z"/><path d="m54.1 11.5h-2.54a1 1 0 0 1 0-2h2.54a1 1 0 1 1 0 2z"/><path d="m44.79 11.5h-2.54a1 1 0 0 1 0-2h2.54a1 1 0 0 1 0 2z"/><path d="m37 63a.994.994 0 0 1 -.5-.133c-9.711-5.567-15.283-13.953-15.283-22.992v-7.735a1 1 0 0 1 1.09-1c6.031.542 10.6-1.029 13.944-4.807a1.006 1.006 0 0 1 .726-.333.966.966 0 0 1 .739.3 15.89 15.89 0 0 0 13.956 4.844 1 1 0 0 1 1.111.994v7.735c0 9.039-5.572 17.419-15.285 22.992a.994.994 0 0 1 -.498.135zm-13.783-29.788v6.663c0 8.15 5.015 15.766 13.783 20.967 8.768-5.2 13.783-12.817 13.783-20.967v-6.645a17.8 17.8 0 0 1 -13.754-4.8c-3.47 3.463-8.101 5.075-13.812 4.782z"/><path d="m34.7 49.191a1 1 0 0 1 -.707-.293l-2.781-2.781a1 1 0 1 1 1.413-1.417l2.075 2.077 6.675-6.677a1 1 0 0 1 1.414 1.414l-7.383 7.386a.993.993 0 0 1 -.706.291z"/></svg>