<svg id="Icons" height="512" viewBox="0 0 74 74" width="512" xmlns="http://www.w3.org/2000/svg"><path d="m47.709 56.28a.985.985 0 0 1 -.524-.15 1 1 0 0 1 -.326-1.376c.376-.608.752-1.229 1.132-1.856l.374-.617a1 1 0 1 1 1.71 1.038l-.373.616q-.576.948-1.141 1.87a1 1 0 0 1 -.852.475z"/><path d="m37 72a1 1 0 0 1 -.8-.394c-.936-1.233-23.03-30.385-23.03-45.776a23.83 23.83 0 0 1 47.66 0c0 3.249-1 7.365-2.963 12.234a1 1 0 1 1 -1.854-.749c1.869-4.63 2.817-8.494 2.817-11.485a21.83 21.83 0 0 0 -43.66 0c0 13.13 17.818 38.053 21.831 43.5 1.151-1.559 3.435-4.711 6.087-8.692a1 1 0 0 1 1.664 1.108c-3.843 5.77-6.926 9.822-6.957 9.862a1 1 0 0 1 -.795.392z"/><path d="m52.669 47.7a.984.984 0 0 1 -.47-.118 1 1 0 0 1 -.411-1.353c.467-.875.914-1.739 1.362-2.614a1 1 0 0 1 1.78.91c-.452.886-.905 1.761-1.378 2.646a1 1 0 0 1 -.883.529z"/><path d="m37 41.58a15.571 15.571 0 1 1 15.571-15.571 15.588 15.588 0 0 1 -15.571 15.571zm0-29.142a13.571 13.571 0 1 0 13.571 13.571 13.586 13.586 0 0 0 -13.571-13.571z"/></svg>