<svg id="Icons" height="512" viewBox="0 0 74 74" width="512" xmlns="http://www.w3.org/2000/svg"><path d="m41.1 72h-3.74a1 1 0 0 1 0-2h3.74a1 1 0 0 1 0 2z"/><path d="m69 72h-19.09a1 1 0 0 1 0-2h19.09a1 1 0 0 0 1-1v-64a1 1 0 0 0 -1-1h-64a1 1 0 0 0 -1 1v64a1 1 0 0 0 1 1h11.09a1 1 0 1 1 0 2h-11.09a3 3 0 0 1 -3-3v-64a3 3 0 0 1 3-3h64a3 3 0 0 1 3 3v64a3 3 0 0 1 -3 3z"/><path d="m28.56 72h-3.66a1 1 0 0 1 0-2h3.66a1 1 0 1 1 0 2z"/><path d="m71 19h-68a1 1 0 0 1 0-2h68a1 1 0 0 1 0 2z"/><path d="m13.123 11.5h-2.54a1 1 0 1 1 0-2h2.54a1 1 0 0 1 0 2z"/><path d="m22.437 11.5h-2.537a1 1 0 0 1 0-2h2.541a1 1 0 0 1 0 2z"/><path d="m31.75 11.5h-2.54a1 1 0 0 1 0-2h2.54a1 1 0 0 1 0 2z"/><path d="m37 40.349a1 1 0 0 1 -1-1v-9.438a1 1 0 0 1 2 0v9.438a1 1 0 0 1 -1 1z"/><path d="m37 40.348a1 1 0 0 1 -.707-.293l-2.493-2.493a1 1 0 0 1 1.414-1.414l1.786 1.786 1.786-1.786a1 1 0 0 1 1.414 1.414l-2.493 2.493a1 1 0 0 1 -.707.293z"/><path d="m37 46a10.917 10.917 0 1 1 10.917-10.917 10.929 10.929 0 0 1 -10.917 10.917zm0-19.833a8.917 8.917 0 1 0 8.917 8.916 8.927 8.927 0 0 0 -8.917-8.916z"/><path d="m61 54h-48a1 1 0 0 1 0-2h48a1 1 0 0 1 0 2z"/><path d="m61 62h-48a1 1 0 0 1 0-2h48a1 1 0 0 1 0 2z"/></svg>