<?xml version="1.0" encoding="UTF-8"?>
<svg xmlns="http://www.w3.org/2000/svg" id="Icons" viewBox="0 0 74 74" width="512" height="512"><path d="M39.64,72H35.9a1,1,0,0,1,0-2h3.74a1,1,0,0,1,0,2Z"/><path d="M69,72H60.91a1,1,0,0,1,0-2H69a1,1,0,0,0,1-1V5a1,1,0,0,0-1-1H5A1,1,0,0,0,4,5V69a1,1,0,0,0,1,1H27.09a1,1,0,1,1,0,2H5a3,3,0,0,1-3-3V5A3,3,0,0,1,5,2H69a3,3,0,0,1,3,3V69A3,3,0,0,1,69,72Z"/><path d="M52.1,72H48.44a1,1,0,0,1,0-2H52.1a1,1,0,0,1,0,2Z"/><path d="M71,19H3a1,1,0,0,1,0-2H71a1,1,0,0,1,0,2Z"/><path d="M64.812,11.5H40.479a1,1,0,0,1,0-2H64.812a1,1,0,0,1,0,2Z"/><path d="M12.822,11.5H10.188a1,1,0,0,1,0-2h2.634a1,1,0,0,1,0,2Z"/><path d="M22.484,11.5H19.85a1,1,0,0,1,0-2h2.634a1,1,0,0,1,0,2Z"/><path d="M32.146,11.5H29.511a1,1,0,1,1,0-2h2.635a1,1,0,0,1,0,2Z"/><path d="M37,48.1a7.214,7.214,0,0,1-7.206-7.206V34.206a7.206,7.206,0,0,1,14.412,0V40.89A7.214,7.214,0,0,1,37,48.1ZM37,29a5.211,5.211,0,0,0-5.206,5.206V40.89a5.206,5.206,0,1,0,10.412,0V34.206A5.211,5.211,0,0,0,37,29Z"/><path d="M37,52.87A11.937,11.937,0,0,1,25.077,40.947v-.813a1,1,0,0,1,2,0v.813a9.923,9.923,0,1,0,19.846,0v-.813a1,1,0,0,1,2,0v.813A11.937,11.937,0,0,1,37,52.87Z"/><path d="M37,62a1,1,0,0,1-1-1V51.87a1,1,0,0,1,2,0V61A1,1,0,0,1,37,62Z"/><path d="M40.382,62H33.618a1,1,0,1,1,0-2h6.764a1,1,0,1,1,0,2Z"/></svg>
