<svg id="Icons" height="512" viewBox="0 0 74 74" width="512" xmlns="http://www.w3.org/2000/svg"><path d="m71 43.53a1 1 0 0 1 -1-1v-2.97a1 1 0 0 1 2 0v2.97a1 1 0 0 1 -1 1z"/><path d="m69 72h-64a3 3 0 0 1 -3-3v-64a3 3 0 0 1 3-3h64a3 3 0 0 1 3 3v27.56a1 1 0 0 1 -2 0v-27.56a1 1 0 0 0 -1-1h-64a1 1 0 0 0 -1 1v64a1 1 0 0 0 1 1h64a1 1 0 0 0 1-1v-9.56a1 1 0 0 1 2 0v9.56a3 3 0 0 1 -3 3z"/><path d="m71 53.44a1 1 0 0 1 -1-1v-2.91a1 1 0 0 1 2 0v2.91a1 1 0 0 1 -1 1z"/><path d="m71 19h-68a1 1 0 0 1 0-2h68a1 1 0 0 1 0 2z"/><path d="m62.5 13.817a3.317 3.317 0 1 1 3.312-3.317 3.321 3.321 0 0 1 -3.312 3.317zm0-4.634a1.317 1.317 0 1 0 1.312 1.317 1.318 1.318 0 0 0 -1.312-1.317z"/><path d="m52.833 13.817a3.317 3.317 0 1 1 3.318-3.317 3.321 3.321 0 0 1 -3.318 3.317zm0-4.634a1.317 1.317 0 1 0 1.318 1.317 1.318 1.318 0 0 0 -1.318-1.317z"/><path d="m43.171 13.817a3.317 3.317 0 1 1 3.318-3.317 3.321 3.321 0 0 1 -3.318 3.317zm0-4.634a1.317 1.317 0 1 0 1.318 1.317 1.318 1.318 0 0 0 -1.318-1.317z"/><path d="m60 61.574h-6.376a1 1 0 0 1 -1-1v-29.148a1 1 0 0 1 1-1h6.376a1 1 0 0 1 1 1v29.148a1 1 0 0 1 -1 1zm-5.376-2h4.376v-27.148h-4.376z"/><path d="m46.792 61.574h-6.376a1 1 0 0 1 -1-1v-17.307a1 1 0 0 1 1-1h6.376a1 1 0 0 1 1 1v17.307a1 1 0 0 1 -1 1zm-5.376-2h4.376v-15.307h-4.376z"/><path d="m33.584 61.574h-6.376a1 1 0 0 1 -1-1v-25.5a1 1 0 0 1 1-1h6.376a1 1 0 0 1 1 1v25.5a1 1 0 0 1 -1 1zm-5.376-2h4.376v-23.5h-4.376z"/><path d="m20.376 61.574h-6.376a1 1 0 0 1 -1-1v-17.307a1 1 0 0 1 1-1h6.376a1 1 0 0 1 1 1v17.307a1 1 0 0 1 -1 1zm-5.376-2h4.376v-15.307h-4.376z"/></svg>