<svg id="Icons" height="512" viewBox="0 0 74 74" width="512" xmlns="http://www.w3.org/2000/svg"><path d="m56.5 34.47a1 1 0 0 1 -1-1v-2.91a1 1 0 0 1 2 0v2.91a1 1 0 0 1 -1 1z"/><path d="m53.5 72h-33a4 4 0 0 1 -4-4v-62a4 4 0 0 1 4-4h33a4 4 0 0 1 4 4v17.56a1 1 0 1 1 -2 0v-17.56a2 2 0 0 0 -2-2h-33a2 2 0 0 0 -2 2v62a2 2 0 0 0 2 2h33a2 2 0 0 0 2-2v-17.56a1 1 0 0 1 2 0v17.56a4 4 0 0 1 -4 4z"/><path d="m56.5 44.44a1 1 0 0 1 -1-1v-2.97a1 1 0 0 1 2 0v2.97a1 1 0 0 1 -1 1z"/><path d="m56.5 14h-39a1 1 0 0 1 0-2h39a1 1 0 0 1 0 2z"/><path d="m56.5 59h-39a1 1 0 0 1 0-2h39a1 1 0 0 1 0 2z"/><path d="m37 68.208a3.708 3.708 0 1 1 3.708-3.708 3.712 3.712 0 0 1 -3.708 3.708zm0-5.416a1.708 1.708 0 1 0 1.708 1.708 1.71 1.71 0 0 0 -1.708-1.708z"/><path d="m43.5 9h-8a1 1 0 0 1 0-2h8a1 1 0 0 1 0 2z"/><path d="m31.5 9h-1a1 1 0 0 1 0-2h1a1 1 0 0 1 0 2z"/><path d="m48.065 49.188h-22.13a2.52 2.52 0 0 1 -2.518-2.518v-22.13a2.521 2.521 0 0 1 2.518-2.519h22.13a2.521 2.521 0 0 1 2.518 2.519v22.13a2.52 2.52 0 0 1 -2.518 2.518zm-22.13-25.167a.519.519 0 0 0 -.518.519v22.13a.518.518 0 0 0 .518.518h22.13a.518.518 0 0 0 .518-.518v-22.13a.519.519 0 0 0 -.518-.519z"/><path d="m37 41a1 1 0 0 1 -1-1v-8.8a1 1 0 1 1 2 0v8.8a1 1 0 0 1 -1 1z"/><path d="m37 49.193a1 1 0 0 1 -1-1v-4.435a1 1 0 0 1 2 0v4.435a1 1 0 0 1 -1 1z"/><path d="m37 28.462a1 1 0 0 1 -1-1v-4.435a1 1 0 0 1 2 0v4.435a1 1 0 0 1 -1 1z"/><path d="m41.4 36.61h-8.815a1 1 0 1 1 0-2h8.815a1 1 0 1 1 0 2z"/><path d="m28.852 36.61h-4.435a1 1 0 0 1 0-2h4.435a1 1 0 1 1 0 2z"/><path d="m49.583 36.61h-4.425a1 1 0 0 1 0-2h4.425a1 1 0 0 1 0 2z"/><path d="m32.584 36.61a1 1 0 0 1 -.864-1.5 1.138 1.138 0 0 0 .159-.579 1.16 1.16 0 1 0 -2.32 0 1.147 1.147 0 0 0 .158.579 1 1 0 1 1 -1.73 1 3.16 3.16 0 1 1 5.464 0 1 1 0 0 1 -.867.5z"/><path d="m43.281 39.84a3.161 3.161 0 0 1 -2.747-4.723 1 1 0 1 1 1.74.987 1.16 1.16 0 1 0 2.014 0 1 1 0 1 1 1.74-.987 3.161 3.161 0 0 1 -2.747 4.723z"/><path d="m38.075 32.484a3.162 3.162 0 0 1 -1.582-.428 1 1 0 1 1 1-1.731 1.138 1.138 0 0 0 .579.159 1.16 1.16 0 0 0 0-2.32 1.147 1.147 0 0 0 -.579.158 1 1 0 1 1 -1-1.73 3.159 3.159 0 1 1 1.582 5.892z"/><path d="m35.925 45.046a3.16 3.16 0 1 1 1.564-5.906 1 1 0 0 1 -.989 1.739 1.16 1.16 0 1 0 0 2.014 1 1 0 1 1 .987 1.74 3.178 3.178 0 0 1 -1.562.413z"/></svg>