<svg id="Icons" height="512" viewBox="0 0 74 74" width="512" xmlns="http://www.w3.org/2000/svg"><path d="m71 40.69a1 1 0 0 1 -1-1v-2.9a1 1 0 1 1 2 0v2.9a1 1 0 0 1 -1 1z"/><path d="m69 72h-64a3 3 0 0 1 -3-3v-64a3 3 0 0 1 3-3h64a3 3 0 0 1 3 3v24.79a1 1 0 0 1 -2 0v-24.79a1 1 0 0 0 -1-1h-64a1 1 0 0 0 -1 1v64a1 1 0 0 0 1 1h64a1 1 0 0 0 1-1v-12.34a1 1 0 0 1 2 0v12.34a3 3 0 0 1 -3 3z"/><path d="m71 50.66a1 1 0 0 1 -1-1v-2.97a1 1 0 0 1 2 0v2.97a1 1 0 0 1 -1 1z"/><path d="m71 19h-68a1 1 0 0 1 0-2h68a1 1 0 0 1 0 2z"/><path d="m63.417 11.5h-2.54a1 1 0 0 1 0-2h2.54a1 1 0 0 1 0 2z"/><path d="m54.1 11.5h-2.537a1 1 0 0 1 0-2h2.537a1 1 0 0 1 0 2z"/><path d="m44.79 11.5h-2.54a1 1 0 0 1 0-2h2.54a1 1 0 0 1 0 2z"/><path d="m63.5 29h-53a1 1 0 0 1 0-2h53a1 1 0 0 1 0 2z"/><path d="m63.5 39h-53a1 1 0 0 1 0-2h53a1 1 0 0 1 0 2z"/><path d="m42.924 64.616a1 1 0 0 1 -.466-.115l-5.458-2.87-5.458 2.869a1 1 0 0 1 -1.451-1.054l1.042-6.078-4.416-4.3a1 1 0 0 1 .554-1.706l6.1-.886 2.73-5.531a1.041 1.041 0 0 1 1.792 0l2.73 5.531 6.1.886a1 1 0 0 1 .554 1.706l-4.416 4.305 1.042 6.078a1 1 0 0 1 -.985 1.169zm-5.924-5.116a1.013 1.013 0 0 1 .466.115l4.13 2.172-.788-4.6a1 1 0 0 1 .292-.887l3.342-3.258-4.619-.671a1 1 0 0 1 -.753-.547l-2.07-4.18-2.065 4.184a1 1 0 0 1 -.753.547l-4.619.671 3.342 3.254a1 1 0 0 1 .287.884l-.788 4.6 4.13-2.172a1.013 1.013 0 0 1 .466-.112z"/></svg>