<svg id="Icons" height="512" viewBox="0 0 74 74" width="512" xmlns="http://www.w3.org/2000/svg"><path d="m10.69 54.97a1 1 0 0 1 -1-1v-2.97a1 1 0 0 1 2 0v2.97a1 1 0 0 1 -1 1z"/><path d="m63.31 73h-52.62a1 1 0 0 1 -1-1v-11.03a1 1 0 0 1 2 0v10.03h50.62v-50.656l-15.344-15.344h-35.276v29.1a1 1 0 0 1 -2 0v-30.1a1 1 0 0 1 1-1h36.69a1 1 0 0 1 .707.293l15.93 15.93a1 1 0 0 1 .293.707v52.07a1 1 0 0 1 -1 1z"/><path d="m10.69 45a1 1 0 0 1 -1-1v-2.9a1 1 0 0 1 2 0v2.9a1 1 0 0 1 -1 1z"/><path d="m63.311 20.929h-15.929a1 1 0 0 1 -1-1v-15.929a1 1 0 0 1 2 0v14.929h14.929a1 1 0 1 1 0 2z"/><path d="m54.5 27.25h-36a1 1 0 0 1 0-2h36a1 1 0 0 1 0 2z"/><path d="m38 16.5h-19.5a1 1 0 0 1 0-2h19.5a1 1 0 0 1 0 2z"/><path d="m54.5 38h-36a1 1 0 0 1 0-2h36a1 1 0 0 1 0 2z"/><path d="m38.6 66.875h-3.2a1.373 1.373 0 0 1 -1.36-1.2l-.17-1.345a10.478 10.478 0 0 1 -1.6-.664l-1.07.834a1.369 1.369 0 0 1 -1.811-.114l-2.272-2.271a1.371 1.371 0 0 1 -.117-1.815l.829-1.066a10.562 10.562 0 0 1 -.664-1.6l-1.344-.17a1.374 1.374 0 0 1 -1.2-1.36v-3.204a1.374 1.374 0 0 1 1.2-1.36l1.344-.17a10.562 10.562 0 0 1 .664-1.6l-.829-1.07a1.372 1.372 0 0 1 .112-1.81l2.273-2.272a1.371 1.371 0 0 1 1.815-.118l1.067.831a10.478 10.478 0 0 1 1.6-.664l.17-1.345a1.373 1.373 0 0 1 1.36-1.2h3.203a1.373 1.373 0 0 1 1.36 1.2l.17 1.345a10.478 10.478 0 0 1 1.6.664l1.07-.831a1.372 1.372 0 0 1 1.811.114l2.272 2.271a1.371 1.371 0 0 1 .117 1.815l-.829 1.066a10.562 10.562 0 0 1 .664 1.6l1.344.17a1.374 1.374 0 0 1 1.2 1.36v3.204a1.374 1.374 0 0 1 -1.2 1.36l-1.344.17a10.562 10.562 0 0 1 -.664 1.6l.829 1.07a1.372 1.372 0 0 1 -.112 1.81l-2.273 2.272a1.37 1.37 0 0 1 -1.81.113l-1.065-.829a10.478 10.478 0 0 1 -1.6.664l-.17 1.345a1.373 1.373 0 0 1 -1.37 1.2zm-2.653-2h2.1l.183-1.451a1 1 0 0 1 .754-.845 8.5 8.5 0 0 0 2.33-.964 1 1 0 0 1 1.128.069l1.147.893 1.486-1.486-.892-1.147a1 1 0 0 1 -.07-1.127 8.466 8.466 0 0 0 .964-2.331 1 1 0 0 1 .846-.754l1.45-.183v-2.1l-1.45-.183a1 1 0 0 1 -.846-.754 8.466 8.466 0 0 0 -.964-2.331 1 1 0 0 1 .07-1.127l.892-1.148-1.486-1.485-1.147.893a1 1 0 0 1 -1.128.069 8.5 8.5 0 0 0 -2.33-.964 1 1 0 0 1 -.754-.845l-.183-1.451h-2.1l-.183 1.451a1 1 0 0 1 -.754.845 8.5 8.5 0 0 0 -2.33.964 1 1 0 0 1 -1.128-.069l-1.147-.893-1.486 1.486.892 1.147a1 1 0 0 1 .07 1.127 8.466 8.466 0 0 0 -.964 2.331 1 1 0 0 1 -.846.754l-1.45.183v2.1l1.45.183a1 1 0 0 1 .846.754 8.466 8.466 0 0 0 .964 2.331 1 1 0 0 1 -.07 1.127l-.892 1.148 1.486 1.485 1.147-.893a1 1 0 0 1 1.128-.069 8.5 8.5 0 0 0 2.33.964 1 1 0 0 1 .754.845z"/><path d="m37 61a6.5 6.5 0 1 1 6.378-6.5 6.444 6.444 0 0 1 -6.378 6.5zm0-10.99a4.5 4.5 0 1 0 4.378 4.49 4.442 4.442 0 0 0 -4.378-4.495z"/></svg>