<svg id="Icons" height="512" viewBox="0 0 74 74" width="512" xmlns="http://www.w3.org/2000/svg"><path d="m59.96 45.5h-3.57a1 1 0 0 1 0-2h3.57a10.035 10.035 0 1 0 0-20.07h-.71a1 1 0 0 1 -1-1.07l.018-.254c.024-.322.049-.647.049-.976a15.722 15.722 0 0 0 -2.594-8.689 1 1 0 0 1 1.668-1.1 17.706 17.706 0 0 1 2.929 9.789c0 .1 0 .2-.005.306a12.035 12.035 0 0 1 -.355 24.064z"/><path d="m39.779 5.46a1 1 0 0 1 -.16-1.987 17.583 17.583 0 0 1 2.821-.223h.11a1 1 0 0 1 0 2h-.11a15.539 15.539 0 0 0 -2.5.2.983.983 0 0 1 -.161.01z"/><path d="m18.45 45.5h-4.41a12.035 12.035 0 0 1 -.583-24.056 11.328 11.328 0 0 1 12.681-7.644 18.042 18.042 0 0 1 5.762-7.106 1 1 0 1 1 1.11 1.667 16.065 16.065 0 0 0 -5.339 6.95 1 1 0 0 1 -1.148.605 10.212 10.212 0 0 0 -2.261-.276 9.371 9.371 0 0 0 -9.081 7.039 1 1 0 0 1 -.969.751h-.17a10.035 10.035 0 1 0 0 20.07h4.41a1 1 0 1 1 0 2z"/><path d="m51.269 7.75a1 1 0 0 1 -.532-.153 14.731 14.731 0 0 0 -2.313-1.18 1 1 0 1 1 .752-1.853 16.862 16.862 0 0 1 2.624 1.336 1 1 0 0 1 -.533 1.847z"/><path d="m37.422 70.752a20.752 20.752 0 1 1 20.753-20.752 20.775 20.775 0 0 1 -20.753 20.752zm0-39.5a18.752 18.752 0 1 0 18.753 18.748 18.773 18.773 0 0 0 -18.753-18.752z"/><path d="m37.422 70.752c-6.064 0-10.813-9.115-10.813-20.752s4.749-20.752 10.813-20.752 10.813 9.115 10.813 20.752-4.75 20.752-10.813 20.752zm0-39.5c-4.777 0-8.813 8.587-8.813 18.752s4.036 18.752 8.813 18.752 8.813-8.591 8.813-18.756-4.035-18.752-8.813-18.752z"/><path d="m37.422 70.752a1 1 0 0 1 -1-1v-39.5a1 1 0 0 1 2 0v39.5a1 1 0 0 1 -1 1z"/><path d="m57.175 51h-39.505a1 1 0 0 1 0-2h39.5a1 1 0 0 1 0 2z"/><path d="m54.632 41.31h-34.419a1 1 0 0 1 0-2h34.419a1 1 0 1 1 0 2z"/><path d="m54.632 60.685h-34.419a1 1 0 1 1 0-2h34.419a1 1 0 1 1 0 2z"/></svg>