<?xml version="1.0" encoding="UTF-8"?>
<svg xmlns="http://www.w3.org/2000/svg" id="Icons" viewBox="0 0 74 74" width="512" height="512"><path d="M18.27,43h-2.9a1,1,0,1,1,0-2h2.9a1,1,0,0,1,0,2Z"/><path d="M40.23,43H35.24a1,1,0,0,1,0-2h4.99a.77.77,0,0,0,.77-.77V4.77A.77.77,0,0,0,40.23,4H4.77A.77.77,0,0,0,4,4.77V40.23a.77.77,0,0,0,.77.77h3.6a1,1,0,0,1,0,2H4.77A2.774,2.774,0,0,1,2,40.23V4.77A2.774,2.774,0,0,1,4.77,2H40.23A2.774,2.774,0,0,1,43,4.77V40.23A2.774,2.774,0,0,1,40.23,43Z"/><path d="M28.24,43H25.27a1,1,0,1,1,0-2h2.97a1,1,0,0,1,0,2Z"/><path d="M42,12.864H3a1,1,0,0,1,0-2H42a1,1,0,0,1,0,2Z"/><path d="M37.568,8.93H37.1a1,1,0,0,1,0-2h.472a1,1,0,0,1,0,2Z"/><path d="M32.375,8.93H31.9a1,1,0,0,1,0-2h.472a1,1,0,0,1,0,2Z"/><path d="M27.182,8.93H26.71a1,1,0,0,1,0-2h.472a1,1,0,0,1,0,2Z"/><path d="M69.458,72H33.542A2.544,2.544,0,0,1,31,69.458V51.542A2.544,2.544,0,0,1,33.542,49H69.458A2.544,2.544,0,0,1,72,51.542V69.458A2.544,2.544,0,0,1,69.458,72ZM33.542,51a.542.542,0,0,0-.542.542V69.458a.542.542,0,0,0,.542.542H69.458A.542.542,0,0,0,70,69.458V51.542A.542.542,0,0,0,69.458,51Z"/><path d="M65.564,56.312H64.91a1,1,0,0,1,0-2h.654a1,1,0,0,1,0,2Z"/><path d="M58.7,56.312h-.653a1,1,0,0,1,0-2H58.7a1,1,0,1,1,0,2Z"/><path d="M51.827,56.312h-.654a1,1,0,0,1,0-2h.654a1,1,0,0,1,0,2Z"/><path d="M44.958,56.312h-.653a1,1,0,1,1,0-2h.653a1,1,0,0,1,0,2Z"/><path d="M38.09,56.312h-.654a1,1,0,1,1,0-2h.654a1,1,0,0,1,0,2Z"/><path d="M65.564,61.5H64.91a1,1,0,0,1,0-2h.654a1,1,0,0,1,0,2Z"/><path d="M58.7,61.5h-.653a1,1,0,0,1,0-2H58.7a1,1,0,0,1,0,2Z"/><path d="M51.827,61.5h-.654a1,1,0,0,1,0-2h.654a1,1,0,0,1,0,2Z"/><path d="M44.958,61.5h-.653a1,1,0,0,1,0-2h.653a1,1,0,0,1,0,2Z"/><path d="M38.09,61.5h-.654a1,1,0,0,1,0-2h.654a1,1,0,0,1,0,2Z"/><path d="M65.564,66.688H64.91a1,1,0,0,1,0-2h.654a1,1,0,0,1,0,2Z"/><path d="M38.09,66.688h-.654a1,1,0,1,1,0-2h.654a1,1,0,0,1,0,2Z"/><path d="M58.7,66.688H44.305a1,1,0,1,1,0-2H58.7a1,1,0,1,1,0,2Z"/><path d="M51.5,51.115a1,1,0,0,1-1-1V32H42a1,1,0,0,1,0-2h9.5a1,1,0,0,1,1,1V50.115A1,1,0,0,1,51.5,51.115Z"/></svg>
