<svg id="Icons" height="512" viewBox="0 0 74 74" width="512" xmlns="http://www.w3.org/2000/svg"><path d="m25.875 49.75a23.875 23.875 0 0 1 -16.882-40.757 23.875 23.875 0 1 1 33.764 33.764 23.72 23.72 0 0 1 -16.882 6.993zm0-45.75a21.729 21.729 0 0 0 -15.468 6.407 21.875 21.875 0 0 0 30.936 30.936 21.875 21.875 0 0 0 -15.468-37.343z"/><path d="m32.04 11.161a1 1 0 0 1 -.366-.07 15.293 15.293 0 0 0 -2.74-.8 1 1 0 1 1 .373-1.964 17.282 17.282 0 0 1 3.1.9 1 1 0 0 1 -.366 1.932z"/><path d="m25.88 43.75a17.878 17.878 0 0 1 -12.648-30.516 17.643 17.643 0 0 1 6.782-4.249 1 1 0 0 1 .652 1.89 15.88 15.88 0 1 0 21.084 15.005c0-.331-.009-.642-.036-.964l1-.1h1c.029.3.04.671.04 1.06a17.867 17.867 0 0 1 -17.874 17.874z"/><path d="m39.851 17.42a1 1 0 0 1 -.832-.443 15.481 15.481 0 0 0 -1.851-2.254 1 1 0 0 1 1.424-1.406 17.609 17.609 0 0 1 2.089 2.546 1 1 0 0 1 -.83 1.557z"/><path d="m65.679 72a6.28 6.28 0 0 1 -4.47-1.852l-19.227-19.226a1 1 0 0 1 0-1.414l7.526-7.526a1 1 0 0 1 1.414 0l19.226 19.227a6.322 6.322 0 0 1 -4.469 10.791zm-21.579-21.785 18.523 18.519a4.321 4.321 0 1 0 6.111-6.111l-18.519-18.523z"/><path d="m46.452 47.452a1 1 0 0 1 -.707-.293l-4.4-4.4a1 1 0 1 1 1.414-1.414l4.4 4.4a1 1 0 0 1 -.707 1.707z"/><path d="m46.877 55.4a1 1 0 0 1 -.707-1.707l7.519-7.519a1 1 0 1 1 1.411 1.41l-7.52 7.52a1 1 0 0 1 -.703.296z"/></svg>