<svg id="Icons" height="512" viewBox="0 0 74 74" width="512" xmlns="http://www.w3.org/2000/svg"><path d="m24.588 72a1 1 0 0 1 -.882-.528l-7.5-14a1 1 0 0 1 .882-1.472h15a1 1 0 0 1 .882 1.472l-7.5 14a1 1 0 0 1 -.882.528zm-5.83-14 5.83 10.882 5.83-10.882z"/><path d="m17.09 33.91a1 1 0 0 1 -1-1v-2.91a1 1 0 0 1 2 0v2.91a1 1 0 0 1 -1 1z"/><path d="m32.09 58h-15a1 1 0 0 1 -1-1v-7.13a1 1 0 0 1 2 0v6.13h13v-51.48a.521.521 0 0 0 -.52-.52h-11.97a.515.515 0 0 0 -.51.52v18.48a1 1 0 0 1 -2 0v-18.48a2.518 2.518 0 0 1 2.51-2.52h11.97a2.522 2.522 0 0 1 2.52 2.52v52.48a1 1 0 0 1 -1 1z"/><path d="m17.09 43.87a1 1 0 0 1 -1-1v-2.96a1 1 0 0 1 2 0v2.96a1 1 0 0 1 -1 1z"/><path d="m32.088 17h-15a1 1 0 0 1 0-2h15a1 1 0 0 1 0 2z"/><path d="m24.588 58a1 1 0 0 1 -1-1v-41a1 1 0 0 1 2 0v41a1 1 0 0 1 -1 1z"/><path d="m36.232 56.157h-4.146a1 1 0 0 1 0-2h3.956l.508-4.05a1 1 0 0 1 .753-.846 19.078 19.078 0 0 0 5.242-2.161 1 1 0 0 1 1.128.069l3.2 2.5 4.543-4.544-2.5-3.2a1 1 0 0 1 -.069-1.128 19.093 19.093 0 0 0 2.163-5.241 1 1 0 0 1 .845-.754l4.05-.508v-6.423l-4.049-.508a1 1 0 0 1 -.846-.754 19.048 19.048 0 0 0 -2.163-5.24 1 1 0 0 1 .069-1.129l2.495-3.2-4.542-4.543-3.2 2.5a1 1 0 0 1 -1.128.069 19.109 19.109 0 0 0 -5.241-2.166 1 1 0 0 1 -.753-.847l-.505-4.053h-3.956a1 1 0 0 1 0-2h4.146a1.8 1.8 0 0 1 1.768 1.554l.448 3.576a21.069 21.069 0 0 1 4.528 1.87l2.824-2.2a1.8 1.8 0 0 1 2.361.149l4.806 4.806a1.8 1.8 0 0 1 .155 2.353l-2.2 2.831a21.059 21.059 0 0 1 1.867 4.524l3.566.448a1.8 1.8 0 0 1 1.564 1.771v6.8a1.8 1.8 0 0 1 -1.556 1.769l-3.574.449a21.059 21.059 0 0 1 -1.867 4.524l2.2 2.822a1.8 1.8 0 0 1 -.149 2.362l-4.8 4.805a1.8 1.8 0 0 1 -2.354.156l-2.829-2.2a21.015 21.015 0 0 1 -4.526 1.867l-.464 3.557a1.8 1.8 0 0 1 -1.768 1.564z"/><path d="m32.086 45.176a1 1 0 0 1 0-2c4.559 0 11.817-5.536 11.817-12.1a11.973 11.973 0 0 0 -11.817-12.1 1 1 0 0 1 0-2 13.975 13.975 0 0 1 13.814 14.103 13.757 13.757 0 0 1 -4.853 9.995c-2.747 2.526-6.183 4.102-8.961 4.102z"/><path d="m32.086 56.157a1 1 0 0 1 -1-1v-48.157a1 1 0 0 1 2 0v48.157a1 1 0 0 1 -1 1z"/></svg>