<svg id="Icons" height="512" viewBox="0 0 74 74" width="512" xmlns="http://www.w3.org/2000/svg"><path d="m22.06 47.84a.993.993 0 0 1 -.727-.314c-.677-.717-1.344-1.444-1.991-2.172a1 1 0 0 1 1.5-1.329c.634.713 1.288 1.426 1.951 2.128a1 1 0 0 1 -.728 1.687z"/><path d="m59.42 72c-5.987 0-15.529-4.8-25.527-12.851a1 1 0 1 1 1.254-1.558c9.653 7.77 18.728 12.409 24.273 12.409a5.026 5.026 0 0 0 3.68-1.227l6.72-6.72a.577.577 0 0 0 .006-.83l-13.444-13.456a.606.606 0 0 0 -.835 0l-3.512 3.512a.978.978 0 0 1 -.079.09c-3.194 3.181-13.085-.905-20.756-8.569s-11.75-17.562-8.569-20.756a1.006 1.006 0 0 1 .092-.081l3.51-3.51a.593.593 0 0 0 0-.835l-13.45-13.44a.583.583 0 0 0 -.829-.007l-6.727 6.729c-3.677 3.665.881 15.112 11.083 27.834a1 1 0 1 1 -1.56 1.251c-11.208-13.977-15.5-25.95-10.936-30.503l6.719-6.719a2.551 2.551 0 0 1 1.832-.763 2.557 2.557 0 0 1 1.838.771l13.444 13.429a2.593 2.593 0 0 1 0 3.664l-3.59 3.59a.781.781 0 0 1 -.067.062c-1.715 1.968 1.156 10.393 8.627 17.864s15.9 10.346 17.865 8.626a.757.757 0 0 1 .061-.066l3.59-3.59a2.656 2.656 0 0 1 3.664 0l13.44 13.45a2.576 2.576 0 0 1 -.006 3.67l-6.714 6.714a6.923 6.923 0 0 1 -5.097 1.816z"/><path d="m29.189 54.8a1 1 0 0 1 -.664-.253c-.735-.655-1.471-1.34-2.207-2.026a1 1 0 1 1 1.364-1.462c.724.674 1.448 1.349 2.173 1.994a1 1 0 0 1 -.666 1.747z"/><path d="m23.346 23.752a1 1 0 0 1 -.707-.293l-15.695-15.694a1 1 0 1 1 1.414-1.414l15.7 15.694a1 1 0 0 1 -.707 1.707z"/><path d="m66.942 67.349a1 1 0 0 1 -.707-.293l-15.694-15.695a1 1 0 1 1 1.414-1.414l15.694 15.695a1 1 0 0 1 -.707 1.707z"/><path d="m69.594 37a1 1 0 0 1 -1-1 31.036 31.036 0 0 0 -31-31 1 1 0 0 1 0-2 33.038 33.038 0 0 1 33 33 1 1 0 0 1 -1 1z"/><path d="m60.451 37a1 1 0 0 1 -1-1 21.882 21.882 0 0 0 -21.857-21.857 1 1 0 0 1 0-2 23.884 23.884 0 0 1 23.857 23.857 1 1 0 0 1 -1 1z"/><path d="m51.308 37a1 1 0 0 1 -1-1 12.728 12.728 0 0 0 -12.714-12.714 1 1 0 0 1 0-2 14.731 14.731 0 0 1 14.714 14.714 1 1 0 0 1 -1 1z"/></svg>